<?xml version="1.0" encoding="utf-8" standalone="no"?>
<!DOCTYPE svg PUBLIC "-//W3C//DTD SVG 1.1//EN"
  "http://www.w3.org/Graphics/SVG/1.1/DTD/svg11.dtd">
<svg xmlns:xlink="http://www.w3.org/1999/xlink" width="864pt" height="432pt" viewBox="0 0 864 432" xmlns="http://www.w3.org/2000/svg" version="1.1">
 <metadata>
  <rdf:RDF xmlns:dc="http://purl.org/dc/elements/1.1/" xmlns:cc="http://creativecommons.org/ns#" xmlns:rdf="http://www.w3.org/1999/02/22-rdf-syntax-ns#">
   <cc:Work>
    <dc:type rdf:resource="http://purl.org/dc/dcmitype/StillImage"/>
    <dc:date>2022-01-16T21:20:27.302644</dc:date>
    <dc:format>image/svg+xml</dc:format>
    <dc:creator>
     <cc:Agent>
      <dc:title>Matplotlib v3.5.1, https://matplotlib.org/</dc:title>
     </cc:Agent>
    </dc:creator>
   </cc:Work>
  </rdf:RDF>
 </metadata>
 <defs>
  <style type="text/css">*{stroke-linejoin: round; stroke-linecap: butt}</style>
 </defs>
 <g id="figure_1">
  <g id="patch_1">
   <path d="M 0 432 
L 864 432 
L 864 0 
L 0 0 
z
" style="fill: #ffffff"/>
  </g>
  <g id="axes_1">
   <g id="patch_2">
    <path d="M 108 384.48 
L 777.6 384.48 
L 777.6 51.84 
L 108 51.84 
z
" style="fill: #ffffff"/>
   </g>
   <g id="matplotlib.axis_1">
    <g id="xtick_1">
     <g id="line2d_1">
      <path d="M 108 384.48 
L 108 51.84 
" clip-path="url(#p675ffc411c)" style="fill: none; stroke: #b0b0b0; stroke-width: 0.8; stroke-linecap: square"/>
     </g>
     <g id="line2d_2">
      <defs>
       <path id="m2cfcc0d2bb" d="M 0 0 
L 0 3.5 
" style="stroke: #000000; stroke-width: 0.8"/>
      </defs>
      <g>
       <use xlink:href="#m2cfcc0d2bb" x="108" y="384.48" style="stroke: #000000; stroke-width: 0.8"/>
      </g>
     </g>
     <g id="text_1">
      <!-- 0.0 -->
      <g transform="translate(100.048438 399.078438)scale(0.1 -0.1)">
       <defs>
        <path id="DejaVuSans-30" d="M 2034 4250 
Q 1547 4250 1301 3770 
Q 1056 3291 1056 2328 
Q 1056 1369 1301 889 
Q 1547 409 2034 409 
Q 2525 409 2770 889 
Q 3016 1369 3016 2328 
Q 3016 3291 2770 3770 
Q 2525 4250 2034 4250 
z
M 2034 4750 
Q 2819 4750 3233 4129 
Q 3647 3509 3647 2328 
Q 3647 1150 3233 529 
Q 2819 -91 2034 -91 
Q 1250 -91 836 529 
Q 422 1150 422 2328 
Q 422 3509 836 4129 
Q 1250 4750 2034 4750 
z
" transform="scale(0.015625)"/>
        <path id="DejaVuSans-2e" d="M 684 794 
L 1344 794 
L 1344 0 
L 684 0 
L 684 794 
z
" transform="scale(0.015625)"/>
       </defs>
       <use xlink:href="#DejaVuSans-30"/>
       <use xlink:href="#DejaVuSans-2e" x="63.623047"/>
       <use xlink:href="#DejaVuSans-30" x="95.410156"/>
      </g>
     </g>
    </g>
    <g id="xtick_2">
     <g id="line2d_3">
      <path d="M 174.96 384.48 
L 174.96 51.84 
" clip-path="url(#p675ffc411c)" style="fill: none; stroke: #b0b0b0; stroke-width: 0.8; stroke-linecap: square"/>
     </g>
     <g id="line2d_4">
      <g>
       <use xlink:href="#m2cfcc0d2bb" x="174.96" y="384.48" style="stroke: #000000; stroke-width: 0.8"/>
      </g>
     </g>
     <g id="text_2">
      <!-- 0.1 -->
      <g transform="translate(167.008438 399.078438)scale(0.1 -0.1)">
       <defs>
        <path id="DejaVuSans-31" d="M 794 531 
L 1825 531 
L 1825 4091 
L 703 3866 
L 703 4441 
L 1819 4666 
L 2450 4666 
L 2450 531 
L 3481 531 
L 3481 0 
L 794 0 
L 794 531 
z
" transform="scale(0.015625)"/>
       </defs>
       <use xlink:href="#DejaVuSans-30"/>
       <use xlink:href="#DejaVuSans-2e" x="63.623047"/>
       <use xlink:href="#DejaVuSans-31" x="95.410156"/>
      </g>
     </g>
    </g>
    <g id="xtick_3">
     <g id="line2d_5">
      <path d="M 241.92 384.48 
L 241.92 51.84 
" clip-path="url(#p675ffc411c)" style="fill: none; stroke: #b0b0b0; stroke-width: 0.8; stroke-linecap: square"/>
     </g>
     <g id="line2d_6">
      <g>
       <use xlink:href="#m2cfcc0d2bb" x="241.92" y="384.48" style="stroke: #000000; stroke-width: 0.8"/>
      </g>
     </g>
     <g id="text_3">
      <!-- 0.2 -->
      <g transform="translate(233.968438 399.078438)scale(0.1 -0.1)">
       <defs>
        <path id="DejaVuSans-32" d="M 1228 531 
L 3431 531 
L 3431 0 
L 469 0 
L 469 531 
Q 828 903 1448 1529 
Q 2069 2156 2228 2338 
Q 2531 2678 2651 2914 
Q 2772 3150 2772 3378 
Q 2772 3750 2511 3984 
Q 2250 4219 1831 4219 
Q 1534 4219 1204 4116 
Q 875 4013 500 3803 
L 500 4441 
Q 881 4594 1212 4672 
Q 1544 4750 1819 4750 
Q 2544 4750 2975 4387 
Q 3406 4025 3406 3419 
Q 3406 3131 3298 2873 
Q 3191 2616 2906 2266 
Q 2828 2175 2409 1742 
Q 1991 1309 1228 531 
z
" transform="scale(0.015625)"/>
       </defs>
       <use xlink:href="#DejaVuSans-30"/>
       <use xlink:href="#DejaVuSans-2e" x="63.623047"/>
       <use xlink:href="#DejaVuSans-32" x="95.410156"/>
      </g>
     </g>
    </g>
    <g id="xtick_4">
     <g id="line2d_7">
      <path d="M 308.88 384.48 
L 308.88 51.84 
" clip-path="url(#p675ffc411c)" style="fill: none; stroke: #b0b0b0; stroke-width: 0.8; stroke-linecap: square"/>
     </g>
     <g id="line2d_8">
      <g>
       <use xlink:href="#m2cfcc0d2bb" x="308.88" y="384.48" style="stroke: #000000; stroke-width: 0.8"/>
      </g>
     </g>
     <g id="text_4">
      <!-- 0.3 -->
      <g transform="translate(300.928437 399.078438)scale(0.1 -0.1)">
       <defs>
        <path id="DejaVuSans-33" d="M 2597 2516 
Q 3050 2419 3304 2112 
Q 3559 1806 3559 1356 
Q 3559 666 3084 287 
Q 2609 -91 1734 -91 
Q 1441 -91 1130 -33 
Q 819 25 488 141 
L 488 750 
Q 750 597 1062 519 
Q 1375 441 1716 441 
Q 2309 441 2620 675 
Q 2931 909 2931 1356 
Q 2931 1769 2642 2001 
Q 2353 2234 1838 2234 
L 1294 2234 
L 1294 2753 
L 1863 2753 
Q 2328 2753 2575 2939 
Q 2822 3125 2822 3475 
Q 2822 3834 2567 4026 
Q 2313 4219 1838 4219 
Q 1578 4219 1281 4162 
Q 984 4106 628 3988 
L 628 4550 
Q 988 4650 1302 4700 
Q 1616 4750 1894 4750 
Q 2613 4750 3031 4423 
Q 3450 4097 3450 3541 
Q 3450 3153 3228 2886 
Q 3006 2619 2597 2516 
z
" transform="scale(0.015625)"/>
       </defs>
       <use xlink:href="#DejaVuSans-30"/>
       <use xlink:href="#DejaVuSans-2e" x="63.623047"/>
       <use xlink:href="#DejaVuSans-33" x="95.410156"/>
      </g>
     </g>
    </g>
    <g id="xtick_5">
     <g id="line2d_9">
      <path d="M 375.84 384.48 
L 375.84 51.84 
" clip-path="url(#p675ffc411c)" style="fill: none; stroke: #b0b0b0; stroke-width: 0.8; stroke-linecap: square"/>
     </g>
     <g id="line2d_10">
      <g>
       <use xlink:href="#m2cfcc0d2bb" x="375.84" y="384.48" style="stroke: #000000; stroke-width: 0.8"/>
      </g>
     </g>
     <g id="text_5">
      <!-- 0.4 -->
      <g transform="translate(367.888438 399.078438)scale(0.1 -0.1)">
       <defs>
        <path id="DejaVuSans-34" d="M 2419 4116 
L 825 1625 
L 2419 1625 
L 2419 4116 
z
M 2253 4666 
L 3047 4666 
L 3047 1625 
L 3713 1625 
L 3713 1100 
L 3047 1100 
L 3047 0 
L 2419 0 
L 2419 1100 
L 313 1100 
L 313 1709 
L 2253 4666 
z
" transform="scale(0.015625)"/>
       </defs>
       <use xlink:href="#DejaVuSans-30"/>
       <use xlink:href="#DejaVuSans-2e" x="63.623047"/>
       <use xlink:href="#DejaVuSans-34" x="95.410156"/>
      </g>
     </g>
    </g>
    <g id="xtick_6">
     <g id="line2d_11">
      <path d="M 442.8 384.48 
L 442.8 51.84 
" clip-path="url(#p675ffc411c)" style="fill: none; stroke: #b0b0b0; stroke-width: 0.8; stroke-linecap: square"/>
     </g>
     <g id="line2d_12">
      <g>
       <use xlink:href="#m2cfcc0d2bb" x="442.8" y="384.48" style="stroke: #000000; stroke-width: 0.8"/>
      </g>
     </g>
     <g id="text_6">
      <!-- 0.5 -->
      <g transform="translate(434.848437 399.078438)scale(0.1 -0.1)">
       <defs>
        <path id="DejaVuSans-35" d="M 691 4666 
L 3169 4666 
L 3169 4134 
L 1269 4134 
L 1269 2991 
Q 1406 3038 1543 3061 
Q 1681 3084 1819 3084 
Q 2600 3084 3056 2656 
Q 3513 2228 3513 1497 
Q 3513 744 3044 326 
Q 2575 -91 1722 -91 
Q 1428 -91 1123 -41 
Q 819 9 494 109 
L 494 744 
Q 775 591 1075 516 
Q 1375 441 1709 441 
Q 2250 441 2565 725 
Q 2881 1009 2881 1497 
Q 2881 1984 2565 2268 
Q 2250 2553 1709 2553 
Q 1456 2553 1204 2497 
Q 953 2441 691 2322 
L 691 4666 
z
" transform="scale(0.015625)"/>
       </defs>
       <use xlink:href="#DejaVuSans-30"/>
       <use xlink:href="#DejaVuSans-2e" x="63.623047"/>
       <use xlink:href="#DejaVuSans-35" x="95.410156"/>
      </g>
     </g>
    </g>
    <g id="xtick_7">
     <g id="line2d_13">
      <path d="M 509.76 384.48 
L 509.76 51.84 
" clip-path="url(#p675ffc411c)" style="fill: none; stroke: #b0b0b0; stroke-width: 0.8; stroke-linecap: square"/>
     </g>
     <g id="line2d_14">
      <g>
       <use xlink:href="#m2cfcc0d2bb" x="509.76" y="384.48" style="stroke: #000000; stroke-width: 0.8"/>
      </g>
     </g>
     <g id="text_7">
      <!-- 0.6 -->
      <g transform="translate(501.808437 399.078438)scale(0.1 -0.1)">
       <defs>
        <path id="DejaVuSans-36" d="M 2113 2584 
Q 1688 2584 1439 2293 
Q 1191 2003 1191 1497 
Q 1191 994 1439 701 
Q 1688 409 2113 409 
Q 2538 409 2786 701 
Q 3034 994 3034 1497 
Q 3034 2003 2786 2293 
Q 2538 2584 2113 2584 
z
M 3366 4563 
L 3366 3988 
Q 3128 4100 2886 4159 
Q 2644 4219 2406 4219 
Q 1781 4219 1451 3797 
Q 1122 3375 1075 2522 
Q 1259 2794 1537 2939 
Q 1816 3084 2150 3084 
Q 2853 3084 3261 2657 
Q 3669 2231 3669 1497 
Q 3669 778 3244 343 
Q 2819 -91 2113 -91 
Q 1303 -91 875 529 
Q 447 1150 447 2328 
Q 447 3434 972 4092 
Q 1497 4750 2381 4750 
Q 2619 4750 2861 4703 
Q 3103 4656 3366 4563 
z
" transform="scale(0.015625)"/>
       </defs>
       <use xlink:href="#DejaVuSans-30"/>
       <use xlink:href="#DejaVuSans-2e" x="63.623047"/>
       <use xlink:href="#DejaVuSans-36" x="95.410156"/>
      </g>
     </g>
    </g>
    <g id="xtick_8">
     <g id="line2d_15">
      <path d="M 576.72 384.48 
L 576.72 51.84 
" clip-path="url(#p675ffc411c)" style="fill: none; stroke: #b0b0b0; stroke-width: 0.8; stroke-linecap: square"/>
     </g>
     <g id="line2d_16">
      <g>
       <use xlink:href="#m2cfcc0d2bb" x="576.72" y="384.48" style="stroke: #000000; stroke-width: 0.8"/>
      </g>
     </g>
     <g id="text_8">
      <!-- 0.7 -->
      <g transform="translate(568.768438 399.078438)scale(0.1 -0.1)">
       <defs>
        <path id="DejaVuSans-37" d="M 525 4666 
L 3525 4666 
L 3525 4397 
L 1831 0 
L 1172 0 
L 2766 4134 
L 525 4134 
L 525 4666 
z
" transform="scale(0.015625)"/>
       </defs>
       <use xlink:href="#DejaVuSans-30"/>
       <use xlink:href="#DejaVuSans-2e" x="63.623047"/>
       <use xlink:href="#DejaVuSans-37" x="95.410156"/>
      </g>
     </g>
    </g>
    <g id="xtick_9">
     <g id="line2d_17">
      <path d="M 643.68 384.48 
L 643.68 51.84 
" clip-path="url(#p675ffc411c)" style="fill: none; stroke: #b0b0b0; stroke-width: 0.8; stroke-linecap: square"/>
     </g>
     <g id="line2d_18">
      <g>
       <use xlink:href="#m2cfcc0d2bb" x="643.68" y="384.48" style="stroke: #000000; stroke-width: 0.8"/>
      </g>
     </g>
     <g id="text_9">
      <!-- 0.8 -->
      <g transform="translate(635.728438 399.078438)scale(0.1 -0.1)">
       <defs>
        <path id="DejaVuSans-38" d="M 2034 2216 
Q 1584 2216 1326 1975 
Q 1069 1734 1069 1313 
Q 1069 891 1326 650 
Q 1584 409 2034 409 
Q 2484 409 2743 651 
Q 3003 894 3003 1313 
Q 3003 1734 2745 1975 
Q 2488 2216 2034 2216 
z
M 1403 2484 
Q 997 2584 770 2862 
Q 544 3141 544 3541 
Q 544 4100 942 4425 
Q 1341 4750 2034 4750 
Q 2731 4750 3128 4425 
Q 3525 4100 3525 3541 
Q 3525 3141 3298 2862 
Q 3072 2584 2669 2484 
Q 3125 2378 3379 2068 
Q 3634 1759 3634 1313 
Q 3634 634 3220 271 
Q 2806 -91 2034 -91 
Q 1263 -91 848 271 
Q 434 634 434 1313 
Q 434 1759 690 2068 
Q 947 2378 1403 2484 
z
M 1172 3481 
Q 1172 3119 1398 2916 
Q 1625 2713 2034 2713 
Q 2441 2713 2670 2916 
Q 2900 3119 2900 3481 
Q 2900 3844 2670 4047 
Q 2441 4250 2034 4250 
Q 1625 4250 1398 4047 
Q 1172 3844 1172 3481 
z
" transform="scale(0.015625)"/>
       </defs>
       <use xlink:href="#DejaVuSans-30"/>
       <use xlink:href="#DejaVuSans-2e" x="63.623047"/>
       <use xlink:href="#DejaVuSans-38" x="95.410156"/>
      </g>
     </g>
    </g>
    <g id="xtick_10">
     <g id="line2d_19">
      <path d="M 710.64 384.48 
L 710.64 51.84 
" clip-path="url(#p675ffc411c)" style="fill: none; stroke: #b0b0b0; stroke-width: 0.8; stroke-linecap: square"/>
     </g>
     <g id="line2d_20">
      <g>
       <use xlink:href="#m2cfcc0d2bb" x="710.64" y="384.48" style="stroke: #000000; stroke-width: 0.8"/>
      </g>
     </g>
     <g id="text_10">
      <!-- 0.9 -->
      <g transform="translate(702.688437 399.078438)scale(0.1 -0.1)">
       <defs>
        <path id="DejaVuSans-39" d="M 703 97 
L 703 672 
Q 941 559 1184 500 
Q 1428 441 1663 441 
Q 2288 441 2617 861 
Q 2947 1281 2994 2138 
Q 2813 1869 2534 1725 
Q 2256 1581 1919 1581 
Q 1219 1581 811 2004 
Q 403 2428 403 3163 
Q 403 3881 828 4315 
Q 1253 4750 1959 4750 
Q 2769 4750 3195 4129 
Q 3622 3509 3622 2328 
Q 3622 1225 3098 567 
Q 2575 -91 1691 -91 
Q 1453 -91 1209 -44 
Q 966 3 703 97 
z
M 1959 2075 
Q 2384 2075 2632 2365 
Q 2881 2656 2881 3163 
Q 2881 3666 2632 3958 
Q 2384 4250 1959 4250 
Q 1534 4250 1286 3958 
Q 1038 3666 1038 3163 
Q 1038 2656 1286 2365 
Q 1534 2075 1959 2075 
z
" transform="scale(0.015625)"/>
       </defs>
       <use xlink:href="#DejaVuSans-30"/>
       <use xlink:href="#DejaVuSans-2e" x="63.623047"/>
       <use xlink:href="#DejaVuSans-39" x="95.410156"/>
      </g>
     </g>
    </g>
    <g id="xtick_11">
     <g id="line2d_21">
      <path d="M 777.6 384.48 
L 777.6 51.84 
" clip-path="url(#p675ffc411c)" style="fill: none; stroke: #b0b0b0; stroke-width: 0.8; stroke-linecap: square"/>
     </g>
     <g id="line2d_22">
      <g>
       <use xlink:href="#m2cfcc0d2bb" x="777.6" y="384.48" style="stroke: #000000; stroke-width: 0.8"/>
      </g>
     </g>
     <g id="text_11">
      <!-- 1.0 -->
      <g transform="translate(769.648438 399.078438)scale(0.1 -0.1)">
       <use xlink:href="#DejaVuSans-31"/>
       <use xlink:href="#DejaVuSans-2e" x="63.623047"/>
       <use xlink:href="#DejaVuSans-30" x="95.410156"/>
      </g>
     </g>
    </g>
   </g>
   <g id="matplotlib.axis_2">
    <g id="ytick_1">
     <g id="line2d_23">
      <path d="M 108 338.100737 
L 777.6 338.100737 
" clip-path="url(#p675ffc411c)" style="fill: none; stroke: #b0b0b0; stroke-width: 0.8; stroke-linecap: square"/>
     </g>
     <g id="line2d_24">
      <defs>
       <path id="me8eb1081aa" d="M 0 0 
L -3.5 0 
" style="stroke: #000000; stroke-width: 0.8"/>
      </defs>
      <g>
       <use xlink:href="#me8eb1081aa" x="108" y="338.100737" style="stroke: #000000; stroke-width: 0.8"/>
      </g>
     </g>
     <g id="text_12">
      <!-- −0.010 -->
      <g transform="translate(63.992188 341.899955)scale(0.1 -0.1)">
       <defs>
        <path id="DejaVuSans-2212" d="M 678 2272 
L 4684 2272 
L 4684 1741 
L 678 1741 
L 678 2272 
z
" transform="scale(0.015625)"/>
       </defs>
       <use xlink:href="#DejaVuSans-2212"/>
       <use xlink:href="#DejaVuSans-30" x="83.789062"/>
       <use xlink:href="#DejaVuSans-2e" x="147.412109"/>
       <use xlink:href="#DejaVuSans-30" x="179.199219"/>
       <use xlink:href="#DejaVuSans-31" x="242.822266"/>
       <use xlink:href="#DejaVuSans-30" x="306.445312"/>
      </g>
     </g>
    </g>
    <g id="ytick_2">
     <g id="line2d_25">
      <path d="M 108 283.872589 
L 777.6 283.872589 
" clip-path="url(#p675ffc411c)" style="fill: none; stroke: #b0b0b0; stroke-width: 0.8; stroke-linecap: square"/>
     </g>
     <g id="line2d_26">
      <g>
       <use xlink:href="#me8eb1081aa" x="108" y="283.872589" style="stroke: #000000; stroke-width: 0.8"/>
      </g>
     </g>
     <g id="text_13">
      <!-- −0.008 -->
      <g transform="translate(63.992188 287.671808)scale(0.1 -0.1)">
       <use xlink:href="#DejaVuSans-2212"/>
       <use xlink:href="#DejaVuSans-30" x="83.789062"/>
       <use xlink:href="#DejaVuSans-2e" x="147.412109"/>
       <use xlink:href="#DejaVuSans-30" x="179.199219"/>
       <use xlink:href="#DejaVuSans-30" x="242.822266"/>
       <use xlink:href="#DejaVuSans-38" x="306.445312"/>
      </g>
     </g>
    </g>
    <g id="ytick_3">
     <g id="line2d_27">
      <path d="M 108 229.644442 
L 777.6 229.644442 
" clip-path="url(#p675ffc411c)" style="fill: none; stroke: #b0b0b0; stroke-width: 0.8; stroke-linecap: square"/>
     </g>
     <g id="line2d_28">
      <g>
       <use xlink:href="#me8eb1081aa" x="108" y="229.644442" style="stroke: #000000; stroke-width: 0.8"/>
      </g>
     </g>
     <g id="text_14">
      <!-- −0.006 -->
      <g transform="translate(63.992188 233.443661)scale(0.1 -0.1)">
       <use xlink:href="#DejaVuSans-2212"/>
       <use xlink:href="#DejaVuSans-30" x="83.789062"/>
       <use xlink:href="#DejaVuSans-2e" x="147.412109"/>
       <use xlink:href="#DejaVuSans-30" x="179.199219"/>
       <use xlink:href="#DejaVuSans-30" x="242.822266"/>
       <use xlink:href="#DejaVuSans-36" x="306.445312"/>
      </g>
     </g>
    </g>
    <g id="ytick_4">
     <g id="line2d_29">
      <path d="M 108 175.416295 
L 777.6 175.416295 
" clip-path="url(#p675ffc411c)" style="fill: none; stroke: #b0b0b0; stroke-width: 0.8; stroke-linecap: square"/>
     </g>
     <g id="line2d_30">
      <g>
       <use xlink:href="#me8eb1081aa" x="108" y="175.416295" style="stroke: #000000; stroke-width: 0.8"/>
      </g>
     </g>
     <g id="text_15">
      <!-- −0.004 -->
      <g transform="translate(63.992188 179.215513)scale(0.1 -0.1)">
       <use xlink:href="#DejaVuSans-2212"/>
       <use xlink:href="#DejaVuSans-30" x="83.789062"/>
       <use xlink:href="#DejaVuSans-2e" x="147.412109"/>
       <use xlink:href="#DejaVuSans-30" x="179.199219"/>
       <use xlink:href="#DejaVuSans-30" x="242.822266"/>
       <use xlink:href="#DejaVuSans-34" x="306.445312"/>
      </g>
     </g>
    </g>
    <g id="ytick_5">
     <g id="line2d_31">
      <path d="M 108 121.188147 
L 777.6 121.188147 
" clip-path="url(#p675ffc411c)" style="fill: none; stroke: #b0b0b0; stroke-width: 0.8; stroke-linecap: square"/>
     </g>
     <g id="line2d_32">
      <g>
       <use xlink:href="#me8eb1081aa" x="108" y="121.188147" style="stroke: #000000; stroke-width: 0.8"/>
      </g>
     </g>
     <g id="text_16">
      <!-- −0.002 -->
      <g transform="translate(63.992188 124.987366)scale(0.1 -0.1)">
       <use xlink:href="#DejaVuSans-2212"/>
       <use xlink:href="#DejaVuSans-30" x="83.789062"/>
       <use xlink:href="#DejaVuSans-2e" x="147.412109"/>
       <use xlink:href="#DejaVuSans-30" x="179.199219"/>
       <use xlink:href="#DejaVuSans-30" x="242.822266"/>
       <use xlink:href="#DejaVuSans-32" x="306.445312"/>
      </g>
     </g>
    </g>
    <g id="ytick_6">
     <g id="line2d_33">
      <path d="M 108 66.96 
L 777.6 66.96 
" clip-path="url(#p675ffc411c)" style="fill: none; stroke: #b0b0b0; stroke-width: 0.8; stroke-linecap: square"/>
     </g>
     <g id="line2d_34">
      <g>
       <use xlink:href="#me8eb1081aa" x="108" y="66.96" style="stroke: #000000; stroke-width: 0.8"/>
      </g>
     </g>
     <g id="text_17">
      <!-- 0.000 -->
      <g transform="translate(72.371875 70.759219)scale(0.1 -0.1)">
       <use xlink:href="#DejaVuSans-30"/>
       <use xlink:href="#DejaVuSans-2e" x="63.623047"/>
       <use xlink:href="#DejaVuSans-30" x="95.410156"/>
       <use xlink:href="#DejaVuSans-30" x="159.033203"/>
       <use xlink:href="#DejaVuSans-30" x="222.65625"/>
      </g>
     </g>
    </g>
   </g>
   <g id="line2d_35">
    <path d="M 108 66.96 
L 113.23125 67.063419 
L 118.4625 67.37352 
L 123.69375 67.889834 
L 128.925 68.611582 
L 134.15625 69.537675 
L 139.3875 70.666715 
L 145.272656 72.17734 
L 151.157813 73.93978 
L 157.042969 75.950676 
L 162.928125 78.206205 
L 168.813281 80.702082 
L 174.698438 83.433574 
L 180.583594 86.395508 
L 187.122656 89.949996 
L 193.661719 93.773786 
L 200.200781 97.857997 
L 206.739844 102.19317 
L 213.932813 107.239757 
L 221.125781 112.56383 
L 228.31875 118.150616 
L 236.165625 124.52676 
L 244.666406 131.742096 
L 253.167188 139.250708 
L 262.321875 147.632161 
L 272.130469 156.91133 
L 283.246875 167.744493 
L 295.671094 180.169075 
L 311.364844 196.195013 
L 363.023438 249.220429 
L 375.447656 261.516312 
L 386.564063 272.215968 
L 397.026563 281.971398 
L 406.835156 290.798154 
L 415.989844 298.725904 
L 424.490625 305.794693 
L 432.991406 312.560954 
L 440.838281 318.522054 
L 448.685156 324.195927 
L 455.878125 329.134042 
L 463.071094 333.811664 
L 470.264063 338.220908 
L 477.457031 342.354722 
L 483.996094 345.868475 
L 490.535156 349.145379 
L 497.074219 352.181934 
L 503.613281 354.975208 
L 510.152344 357.522835 
L 516.691406 359.823009 
L 523.230469 361.874475 
L 529.769531 363.676523 
L 536.308594 365.228979 
L 542.847656 366.532193 
L 549.386719 367.587024 
L 555.925781 368.394833 
L 562.464844 368.95746 
L 569.003906 369.277218 
L 575.542969 369.356869 
L 582.082031 369.19961 
L 588.621094 368.809056 
L 595.160156 368.189216 
L 601.699219 367.344481 
L 608.238281 366.279598 
L 614.777344 364.999651 
L 621.316406 363.510042 
L 628.509375 361.636121 
L 635.702344 359.523371 
L 642.895313 357.180123 
L 650.088281 354.615039 
L 657.935156 351.574293 
L 665.782031 348.292191 
L 673.628906 344.781029 
L 682.129688 340.733357 
L 690.630469 336.447853 
L 699.785156 331.585604 
L 709.59375 326.114724 
L 720.05625 320.009385 
L 731.172656 313.251402 
L 742.942969 305.831779 
L 756.021094 297.320783 
L 771.060938 287.258471 
L 777.6 282.812402 
L 777.6 282.812402 
" clip-path="url(#p675ffc411c)" style="fill: none; stroke: #1f77b4; stroke-width: 1.5; stroke-linecap: square"/>
   </g>
   <g id="line2d_36">
    <path d="M 108 66.96 
L 110.615625 67.063419 
L 113.23125 67.37352 
L 115.846875 67.889834 
L 118.4625 68.611582 
L 121.078125 69.537675 
L 123.69375 70.666715 
L 126.309375 71.997001 
L 129.578906 73.93978 
L 132.848437 76.189284 
L 136.117969 78.740233 
L 139.3875 81.586646 
L 142.657031 84.721862 
L 145.926562 88.138558 
L 149.85 92.598889 
L 153.773438 97.438122 
L 157.696875 102.640109 
L 161.620313 108.187554 
L 166.197656 115.071623 
L 170.775 122.369954 
L 176.00625 131.1763 
L 181.2375 140.430104 
L 187.122656 151.309151 
L 193.661719 163.88657 
L 201.508594 179.508295 
L 211.971094 200.913207 
L 234.203906 246.594033 
L 242.050781 262.154246 
L 249.24375 275.912669 
L 255.128906 286.719826 
L 261.014063 297.053779 
L 266.245313 305.794693 
L 271.476562 314.077436 
L 276.053906 320.921812 
L 280.63125 327.368064 
L 285.208594 333.397403 
L 289.132031 338.220908 
L 293.055469 342.716644 
L 296.978906 346.876586 
L 300.902344 350.693897 
L 304.825781 354.162922 
L 308.095312 356.784459 
L 311.364844 359.159025 
L 314.634375 361.285202 
L 317.903906 363.162118 
L 321.173437 364.789439 
L 324.442969 366.167358 
L 327.7125 367.296584 
L 330.982031 368.178327 
L 334.251562 368.814287 
L 337.521094 369.206636 
L 340.790625 369.358003 
L 344.060156 369.271456 
L 347.329687 368.950487 
L 350.599219 368.398989 
L 353.86875 367.62124 
L 357.138281 366.621882 
L 360.407812 365.405901 
L 363.677344 363.978606 
L 367.600781 361.994836 
L 371.524219 359.725091 
L 375.447656 357.180123 
L 379.371094 354.371156 
L 383.294531 351.309836 
L 387.871875 347.435388 
L 392.449219 343.253419 
L 397.026563 338.783993 
L 402.257812 333.350292 
L 407.489062 327.598667 
L 413.374219 320.786752 
L 419.913281 312.845946 
L 427.10625 303.728268 
L 434.953125 293.414021 
L 444.761719 280.128327 
L 459.147656 260.21169 
L 479.41875 232.18077 
L 489.88125 218.090599 
L 499.035937 206.120878 
L 507.536719 195.377283 
L 515.383594 185.822971 
L 522.576563 177.399925 
L 529.769531 169.318381 
L 536.9625 161.59407 
L 543.501563 154.891685 
L 550.040625 148.499792 
L 556.579688 142.421602 
L 563.11875 136.657999 
L 569.657813 131.207742 
L 576.196875 126.067678 
L 582.735938 121.232941 
L 589.275 116.697167 
L 595.814063 112.452682 
L 602.353125 108.490702 
L 608.892188 104.801511 
L 615.43125 101.374641 
L 621.970312 98.199028 
L 628.509375 95.263171 
L 635.048437 92.555264 
L 642.241406 89.825554 
L 649.434375 87.341158 
L 656.627344 85.086141 
L 664.474219 82.869273 
L 672.321094 80.886769 
L 680.821875 78.981193 
L 689.322656 77.304585 
L 698.477344 75.729565 
L 708.285938 74.278478 
L 718.748438 72.967572 
L 729.864844 71.806744 
L 741.635156 70.799649 
L 754.713281 69.904308 
L 769.099219 69.140843 
L 777.6 68.779152 
L 777.6 68.779152 
" clip-path="url(#p675ffc411c)" style="fill: none; stroke: #ff7f0e; stroke-width: 1.5; stroke-linecap: square"/>
   </g>
   <g id="line2d_37">
    <path d="M 108 66.96 
L 109.961719 67.090885 
L 111.923438 67.483291 
L 113.885156 68.136467 
L 115.846875 69.049165 
L 117.808594 70.219643 
L 119.770313 71.645667 
L 121.732031 73.324518 
L 123.69375 75.252997 
L 125.655469 77.427436 
L 128.271094 80.702082 
L 130.886719 84.395548 
L 133.502344 88.495408 
L 136.117969 92.987901 
L 138.733594 97.857997 
L 142.003125 104.451759 
L 145.272656 111.575834 
L 148.542188 119.193425 
L 152.465625 128.930731 
L 156.389062 139.250708 
L 160.966406 151.926606 
L 166.197656 167.099083 
L 172.736719 186.811195 
L 184.507031 223.223632 
L 193.007812 249.220429 
L 198.892969 266.59089 
L 204.124219 281.371538 
L 208.701563 293.665432 
L 212.625 303.650996 
L 216.548438 313.06836 
L 220.471875 321.867541 
L 223.741406 328.695762 
L 227.010938 335.041113 
L 230.280469 340.883795 
L 233.55 346.206886 
L 236.165625 350.081727 
L 238.78125 353.609142 
L 241.396875 356.784459 
L 244.0125 359.604167 
L 246.628125 362.06591 
L 249.24375 364.168461 
L 251.859375 365.9117 
L 253.821094 366.983866 
L 255.782813 367.85523 
L 257.744531 368.526905 
L 259.70625 369.000323 
L 261.667969 369.277218 
L 263.629688 369.359621 
L 265.591406 369.249847 
L 267.553125 368.950487 
L 269.514844 368.464394 
L 271.476562 367.794672 
L 274.092188 366.621882 
L 276.707813 365.137172 
L 279.323438 363.349767 
L 281.939062 361.269509 
L 284.554688 358.906804 
L 287.170313 356.272567 
L 290.439844 352.615291 
L 293.709375 348.574619 
L 296.978906 344.174444 
L 300.248438 339.439311 
L 304.171875 333.350292 
L 308.095312 326.858907 
L 312.672656 318.836088 
L 317.903906 309.16024 
L 323.789062 297.752152 
L 330.982031 283.258621 
L 341.444531 261.576657 
L 357.138281 229.067259 
L 364.985156 213.343184 
L 371.524219 200.700796 
L 377.409375 189.759212 
L 383.294531 179.284921 
L 388.525781 170.399679 
L 393.757031 161.937248 
L 398.988281 153.913001 
L 404.219531 146.336649 
L 408.796875 140.078435 
L 413.374219 134.166754 
L 417.951563 128.599202 
L 422.528906 123.371163 
L 427.10625 118.476065 
L 431.683594 113.905646 
L 436.260938 109.650195 
L 440.838281 105.698796 
L 445.415625 102.039553 
L 449.992969 98.659801 
L 454.570312 95.546302 
L 459.147656 92.68543 
L 463.725 90.063332 
L 468.95625 87.341158 
L 474.1875 84.891968 
L 479.41875 82.695383 
L 484.65 80.73153 
L 490.535156 78.776486 
L 496.420313 77.065532 
L 502.305469 75.573928 
L 508.844531 74.145694 
L 516.0375 72.819281 
L 523.230469 71.714614 
L 531.077344 70.724866 
L 540.232031 69.806787 
L 550.040625 69.052009 
L 561.157031 68.419822 
L 574.235156 67.902313 
L 590.582813 67.493461 
L 611.507812 67.208657 
L 642.241406 67.03551 
L 702.400781 66.96576 
L 777.6 66.960149 
L 777.6 66.960149 
" clip-path="url(#p675ffc411c)" style="fill: none; stroke: #2ca02c; stroke-width: 1.5; stroke-linecap: square"/>
   </g>
   <g id="line2d_38">
    <path d="M 108 66.96 
L 109.307812 67.063419 
L 110.615625 67.37352 
L 111.923438 67.889834 
L 113.23125 68.611582 
L 114.539062 69.537675 
L 115.846875 70.666715 
L 117.808594 72.736997 
L 119.770313 75.252997 
L 121.732031 78.206205 
L 123.69375 81.586646 
L 125.655469 85.382929 
L 127.617188 89.582287 
L 130.232812 95.783916 
L 132.848437 102.640109 
L 135.464063 110.110325 
L 138.733594 120.244315 
L 142.003125 131.1763 
L 145.926562 145.208249 
L 149.85 160.065393 
L 155.08125 180.830522 
L 162.928125 213.084583 
L 172.082812 250.529129 
L 177.314063 270.974034 
L 181.891406 287.892527 
L 185.814844 301.47922 
L 189.084375 312.051647 
L 192.353906 321.867541 
L 194.969531 329.134042 
L 197.585156 335.849579 
L 200.200781 341.990471 
L 202.816406 347.536765 
L 205.432031 352.472253 
L 207.39375 355.765382 
L 209.355469 358.703945 
L 211.317187 361.285202 
L 213.278906 363.507551 
L 215.240625 365.370507 
L 217.202344 366.87467 
L 219.164062 368.021702 
L 221.125781 368.814287 
L 222.433594 369.147535 
L 223.741406 369.326187 
L 225.049219 369.351748 
L 226.357031 369.225897 
L 228.31875 368.75732 
L 230.280469 367.959201 
L 232.242188 366.839248 
L 234.203906 365.405901 
L 236.165625 363.668278 
L 238.127344 361.636121 
L 240.089063 359.319745 
L 242.704688 355.807921 
L 245.320312 351.837075 
L 247.935937 347.435388 
L 250.551563 342.632056 
L 253.821094 336.108819 
L 257.090625 329.064682 
L 261.014063 320.009385 
L 264.9375 310.395973 
L 269.514844 298.613175 
L 275.4 282.812402 
L 284.554688 257.481383 
L 295.671094 226.853203 
L 302.210156 209.50144 
L 307.441406 196.189749 
L 312.672656 183.492981 
L 317.25 172.948368 
L 321.827344 162.971348 
L 326.404688 153.588329 
L 330.328125 146.030772 
L 334.251562 138.925724 
L 338.175 132.272852 
L 342.098438 126.067678 
L 346.021875 120.302097 
L 349.945312 114.964887 
L 353.86875 110.042196 
L 357.792188 105.518019 
L 361.715625 101.374641 
L 365.639063 97.593051 
L 369.5625 94.153322 
L 373.485938 91.034958 
L 377.409375 88.217201 
L 381.332812 85.6793 
L 385.25625 83.40075 
L 389.179688 81.36149 
L 393.757031 79.258881 
L 398.334375 77.425941 
L 402.911719 75.834682 
L 407.489062 74.458878 
L 412.720313 73.119177 
L 417.951563 71.995791 
L 423.836719 70.953227 
L 430.375781 70.025308 
L 437.56875 69.233092 
L 446.069531 68.539133 
L 455.878125 67.98224 
L 467.648438 67.554322 
L 482.688281 67.247775 
L 504.267188 67.055484 
L 543.501563 66.970657 
L 740.327344 66.96 
L 777.6 66.96 
L 777.6 66.96 
" clip-path="url(#p675ffc411c)" style="fill: none; stroke: #d62728; stroke-width: 1.5; stroke-linecap: square"/>
   </g>
   <g id="patch_3">
    <path d="M 108 384.48 
L 108 51.84 
" style="fill: none; stroke: #000000; stroke-width: 0.8; stroke-linejoin: miter; stroke-linecap: square"/>
   </g>
   <g id="patch_4">
    <path d="M 777.6 384.48 
L 777.6 51.84 
" style="fill: none; stroke: #000000; stroke-width: 0.8; stroke-linejoin: miter; stroke-linecap: square"/>
   </g>
   <g id="patch_5">
    <path d="M 108 384.48 
L 777.6 384.48 
" style="fill: none; stroke: #000000; stroke-width: 0.8; stroke-linejoin: miter; stroke-linecap: square"/>
   </g>
   <g id="patch_6">
    <path d="M 108 51.84 
L 777.6 51.84 
" style="fill: none; stroke: #000000; stroke-width: 0.8; stroke-linejoin: miter; stroke-linecap: square"/>
   </g>
   <g id="legend_1">
    <g id="patch_7">
     <path d="M 572.9 118.5525 
L 770.6 118.5525 
Q 772.6 118.5525 772.6 116.5525 
L 772.6 58.84 
Q 772.6 56.84 770.6 56.84 
L 572.9 56.84 
Q 570.9 56.84 570.9 58.84 
L 570.9 116.5525 
Q 570.9 118.5525 572.9 118.5525 
z
" style="fill: #ffffff; opacity: 0.8; stroke: #cccccc; stroke-linejoin: miter"/>
    </g>
    <g id="line2d_39">
     <path d="M 574.9 64.938438 
L 584.9 64.938438 
L 594.9 64.938438 
" style="fill: none; stroke: #1f77b4; stroke-width: 1.5; stroke-linecap: square"/>
    </g>
    <g id="text_18">
     <!-- $d(x; h=8, a=0.25) / f(x=8; h=8)$ -->
     <g transform="translate(602.9 68.438438)scale(0.1 -0.1)">
      <defs>
       <path id="DejaVuSans-Oblique-64" d="M 2675 525 
Q 2444 222 2128 65 
Q 1813 -91 1428 -91 
Q 903 -91 598 267 
Q 294 625 294 1247 
Q 294 1766 478 2236 
Q 663 2706 1013 3078 
Q 1244 3325 1534 3454 
Q 1825 3584 2144 3584 
Q 2481 3584 2739 3421 
Q 2997 3259 3138 2956 
L 3513 4863 
L 4091 4863 
L 3144 0 
L 2566 0 
L 2675 525 
z
M 891 1350 
Q 891 897 1095 644 
Q 1300 391 1663 391 
Q 1931 391 2161 520 
Q 2391 650 2566 903 
Q 2750 1166 2856 1509 
Q 2963 1853 2963 2188 
Q 2963 2622 2758 2865 
Q 2553 3109 2194 3109 
Q 1922 3109 1687 2981 
Q 1453 2853 1288 2613 
Q 1106 2353 998 2009 
Q 891 1666 891 1350 
z
" transform="scale(0.015625)"/>
       <path id="DejaVuSans-28" d="M 1984 4856 
Q 1566 4138 1362 3434 
Q 1159 2731 1159 2009 
Q 1159 1288 1364 580 
Q 1569 -128 1984 -844 
L 1484 -844 
Q 1016 -109 783 600 
Q 550 1309 550 2009 
Q 550 2706 781 3412 
Q 1013 4119 1484 4856 
L 1984 4856 
z
" transform="scale(0.015625)"/>
       <path id="DejaVuSans-Oblique-78" d="M 3841 3500 
L 2234 1784 
L 3219 0 
L 2559 0 
L 1819 1388 
L 531 0 
L -166 0 
L 1556 1844 
L 641 3500 
L 1300 3500 
L 1972 2234 
L 3144 3500 
L 3841 3500 
z
" transform="scale(0.015625)"/>
       <path id="DejaVuSans-3b" d="M 750 3309 
L 1409 3309 
L 1409 2516 
L 750 2516 
L 750 3309 
z
M 750 794 
L 1409 794 
L 1409 256 
L 897 -744 
L 494 -744 
L 750 256 
L 750 794 
z
" transform="scale(0.015625)"/>
       <path id="DejaVuSans-Oblique-68" d="M 3566 2113 
L 3156 0 
L 2578 0 
L 2988 2091 
Q 3016 2238 3031 2350 
Q 3047 2463 3047 2528 
Q 3047 2791 2881 2937 
Q 2716 3084 2419 3084 
Q 1956 3084 1617 2771 
Q 1278 2459 1178 1941 
L 800 0 
L 225 0 
L 1172 4863 
L 1747 4863 
L 1375 2950 
Q 1594 3244 1934 3414 
Q 2275 3584 2650 3584 
Q 3113 3584 3367 3334 
Q 3622 3084 3622 2631 
Q 3622 2519 3608 2391 
Q 3594 2263 3566 2113 
z
" transform="scale(0.015625)"/>
       <path id="DejaVuSans-3d" d="M 678 2906 
L 4684 2906 
L 4684 2381 
L 678 2381 
L 678 2906 
z
M 678 1631 
L 4684 1631 
L 4684 1100 
L 678 1100 
L 678 1631 
z
" transform="scale(0.015625)"/>
       <path id="DejaVuSans-2c" d="M 750 794 
L 1409 794 
L 1409 256 
L 897 -744 
L 494 -744 
L 750 256 
L 750 794 
z
" transform="scale(0.015625)"/>
       <path id="DejaVuSans-Oblique-61" d="M 3438 1997 
L 3047 0 
L 2472 0 
L 2578 531 
Q 2325 219 2001 64 
Q 1678 -91 1281 -91 
Q 834 -91 548 182 
Q 263 456 263 884 
Q 263 1497 752 1853 
Q 1241 2209 2100 2209 
L 2900 2209 
L 2931 2363 
Q 2938 2388 2941 2417 
Q 2944 2447 2944 2509 
Q 2944 2788 2717 2942 
Q 2491 3097 2081 3097 
Q 1800 3097 1504 3025 
Q 1209 2953 897 2809 
L 997 3341 
Q 1322 3463 1633 3523 
Q 1944 3584 2234 3584 
Q 2853 3584 3176 3315 
Q 3500 3047 3500 2534 
Q 3500 2431 3484 2292 
Q 3469 2153 3438 1997 
z
M 2816 1759 
L 2241 1759 
Q 1534 1759 1195 1570 
Q 856 1381 856 984 
Q 856 709 1029 553 
Q 1203 397 1509 397 
Q 1978 397 2328 733 
Q 2678 1069 2791 1631 
L 2816 1759 
z
" transform="scale(0.015625)"/>
       <path id="DejaVuSans-29" d="M 513 4856 
L 1013 4856 
Q 1481 4119 1714 3412 
Q 1947 2706 1947 2009 
Q 1947 1309 1714 600 
Q 1481 -109 1013 -844 
L 513 -844 
Q 928 -128 1133 580 
Q 1338 1288 1338 2009 
Q 1338 2731 1133 3434 
Q 928 4138 513 4856 
z
" transform="scale(0.015625)"/>
       <path id="DejaVuSans-2f" d="M 1625 4666 
L 2156 4666 
L 531 -594 
L 0 -594 
L 1625 4666 
z
" transform="scale(0.015625)"/>
       <path id="DejaVuSans-Oblique-66" d="M 3059 4863 
L 2969 4384 
L 2419 4384 
Q 2106 4384 1964 4261 
Q 1822 4138 1753 3809 
L 1691 3500 
L 2638 3500 
L 2553 3053 
L 1606 3053 
L 1013 0 
L 434 0 
L 1031 3053 
L 481 3053 
L 563 3500 
L 1113 3500 
L 1159 3744 
Q 1278 4363 1576 4613 
Q 1875 4863 2516 4863 
L 3059 4863 
z
" transform="scale(0.015625)"/>
      </defs>
      <use xlink:href="#DejaVuSans-Oblique-64" transform="translate(0 0.015625)"/>
      <use xlink:href="#DejaVuSans-28" transform="translate(63.476562 0.015625)"/>
      <use xlink:href="#DejaVuSans-Oblique-78" transform="translate(102.490234 0.015625)"/>
      <use xlink:href="#DejaVuSans-3b" transform="translate(161.669922 0.015625)"/>
      <use xlink:href="#DejaVuSans-Oblique-68" transform="translate(214.84375 0.015625)"/>
      <use xlink:href="#DejaVuSans-3d" transform="translate(297.705078 0.015625)"/>
      <use xlink:href="#DejaVuSans-38" transform="translate(400.976562 0.015625)"/>
      <use xlink:href="#DejaVuSans-2c" transform="translate(464.599609 0.015625)"/>
      <use xlink:href="#DejaVuSans-Oblique-61" transform="translate(515.869141 0.015625)"/>
      <use xlink:href="#DejaVuSans-3d" transform="translate(596.630859 0.015625)"/>
      <use xlink:href="#DejaVuSans-30" transform="translate(699.902344 0.015625)"/>
      <use xlink:href="#DejaVuSans-2e" transform="translate(763.525391 0.015625)"/>
      <use xlink:href="#DejaVuSans-32" transform="translate(789.8125 0.015625)"/>
      <use xlink:href="#DejaVuSans-35" transform="translate(853.435547 0.015625)"/>
      <use xlink:href="#DejaVuSans-29" transform="translate(917.058594 0.015625)"/>
      <use xlink:href="#DejaVuSans-2f" transform="translate(956.072266 0.015625)"/>
      <use xlink:href="#DejaVuSans-Oblique-66" transform="translate(989.763672 0.015625)"/>
      <use xlink:href="#DejaVuSans-28" transform="translate(1024.96875 0.015625)"/>
      <use xlink:href="#DejaVuSans-Oblique-78" transform="translate(1063.982422 0.015625)"/>
      <use xlink:href="#DejaVuSans-3d" transform="translate(1142.644531 0.015625)"/>
      <use xlink:href="#DejaVuSans-38" transform="translate(1245.916016 0.015625)"/>
      <use xlink:href="#DejaVuSans-3b" transform="translate(1309.539062 0.015625)"/>
      <use xlink:href="#DejaVuSans-Oblique-68" transform="translate(1362.712891 0.015625)"/>
      <use xlink:href="#DejaVuSans-3d" transform="translate(1445.574219 0.015625)"/>
      <use xlink:href="#DejaVuSans-38" transform="translate(1548.845703 0.015625)"/>
      <use xlink:href="#DejaVuSans-29" transform="translate(1612.46875 0.015625)"/>
     </g>
    </g>
    <g id="line2d_40">
     <path d="M 574.9 79.616563 
L 584.9 79.616563 
L 594.9 79.616563 
" style="fill: none; stroke: #ff7f0e; stroke-width: 1.5; stroke-linecap: square"/>
    </g>
    <g id="text_19">
     <!-- $d(x; h=8, a=0.50) / f(x=8; h=8)$ -->
     <g transform="translate(602.9 83.116563)scale(0.1 -0.1)">
      <use xlink:href="#DejaVuSans-Oblique-64" transform="translate(0 0.015625)"/>
      <use xlink:href="#DejaVuSans-28" transform="translate(63.476562 0.015625)"/>
      <use xlink:href="#DejaVuSans-Oblique-78" transform="translate(102.490234 0.015625)"/>
      <use xlink:href="#DejaVuSans-3b" transform="translate(161.669922 0.015625)"/>
      <use xlink:href="#DejaVuSans-Oblique-68" transform="translate(214.84375 0.015625)"/>
      <use xlink:href="#DejaVuSans-3d" transform="translate(297.705078 0.015625)"/>
      <use xlink:href="#DejaVuSans-38" transform="translate(400.976562 0.015625)"/>
      <use xlink:href="#DejaVuSans-2c" transform="translate(464.599609 0.015625)"/>
      <use xlink:href="#DejaVuSans-Oblique-61" transform="translate(515.869141 0.015625)"/>
      <use xlink:href="#DejaVuSans-3d" transform="translate(596.630859 0.015625)"/>
      <use xlink:href="#DejaVuSans-30" transform="translate(699.902344 0.015625)"/>
      <use xlink:href="#DejaVuSans-2e" transform="translate(763.525391 0.015625)"/>
      <use xlink:href="#DejaVuSans-35" transform="translate(795.3125 0.015625)"/>
      <use xlink:href="#DejaVuSans-30" transform="translate(858.935547 0.015625)"/>
      <use xlink:href="#DejaVuSans-29" transform="translate(922.558594 0.015625)"/>
      <use xlink:href="#DejaVuSans-2f" transform="translate(961.572266 0.015625)"/>
      <use xlink:href="#DejaVuSans-Oblique-66" transform="translate(995.263672 0.015625)"/>
      <use xlink:href="#DejaVuSans-28" transform="translate(1030.46875 0.015625)"/>
      <use xlink:href="#DejaVuSans-Oblique-78" transform="translate(1069.482422 0.015625)"/>
      <use xlink:href="#DejaVuSans-3d" transform="translate(1148.144531 0.015625)"/>
      <use xlink:href="#DejaVuSans-38" transform="translate(1251.416016 0.015625)"/>
      <use xlink:href="#DejaVuSans-3b" transform="translate(1315.039062 0.015625)"/>
      <use xlink:href="#DejaVuSans-Oblique-68" transform="translate(1368.212891 0.015625)"/>
      <use xlink:href="#DejaVuSans-3d" transform="translate(1451.074219 0.015625)"/>
      <use xlink:href="#DejaVuSans-38" transform="translate(1554.345703 0.015625)"/>
      <use xlink:href="#DejaVuSans-29" transform="translate(1617.96875 0.015625)"/>
     </g>
    </g>
    <g id="line2d_41">
     <path d="M 574.9 94.294688 
L 584.9 94.294688 
L 594.9 94.294688 
" style="fill: none; stroke: #2ca02c; stroke-width: 1.5; stroke-linecap: square"/>
    </g>
    <g id="text_20">
     <!-- $d(x; h=8, a=0.75) / f(x=8; h=8)$ -->
     <g transform="translate(602.9 97.794688)scale(0.1 -0.1)">
      <use xlink:href="#DejaVuSans-Oblique-64" transform="translate(0 0.015625)"/>
      <use xlink:href="#DejaVuSans-28" transform="translate(63.476562 0.015625)"/>
      <use xlink:href="#DejaVuSans-Oblique-78" transform="translate(102.490234 0.015625)"/>
      <use xlink:href="#DejaVuSans-3b" transform="translate(161.669922 0.015625)"/>
      <use xlink:href="#DejaVuSans-Oblique-68" transform="translate(214.84375 0.015625)"/>
      <use xlink:href="#DejaVuSans-3d" transform="translate(297.705078 0.015625)"/>
      <use xlink:href="#DejaVuSans-38" transform="translate(400.976562 0.015625)"/>
      <use xlink:href="#DejaVuSans-2c" transform="translate(464.599609 0.015625)"/>
      <use xlink:href="#DejaVuSans-Oblique-61" transform="translate(515.869141 0.015625)"/>
      <use xlink:href="#DejaVuSans-3d" transform="translate(596.630859 0.015625)"/>
      <use xlink:href="#DejaVuSans-30" transform="translate(699.902344 0.015625)"/>
      <use xlink:href="#DejaVuSans-2e" transform="translate(763.525391 0.015625)"/>
      <use xlink:href="#DejaVuSans-37" transform="translate(787.5625 0.015625)"/>
      <use xlink:href="#DejaVuSans-35" transform="translate(851.185547 0.015625)"/>
      <use xlink:href="#DejaVuSans-29" transform="translate(914.808594 0.015625)"/>
      <use xlink:href="#DejaVuSans-2f" transform="translate(953.822266 0.015625)"/>
      <use xlink:href="#DejaVuSans-Oblique-66" transform="translate(987.513672 0.015625)"/>
      <use xlink:href="#DejaVuSans-28" transform="translate(1022.71875 0.015625)"/>
      <use xlink:href="#DejaVuSans-Oblique-78" transform="translate(1061.732422 0.015625)"/>
      <use xlink:href="#DejaVuSans-3d" transform="translate(1140.394531 0.015625)"/>
      <use xlink:href="#DejaVuSans-38" transform="translate(1243.666016 0.015625)"/>
      <use xlink:href="#DejaVuSans-3b" transform="translate(1307.289062 0.015625)"/>
      <use xlink:href="#DejaVuSans-Oblique-68" transform="translate(1360.462891 0.015625)"/>
      <use xlink:href="#DejaVuSans-3d" transform="translate(1443.324219 0.015625)"/>
      <use xlink:href="#DejaVuSans-38" transform="translate(1546.595703 0.015625)"/>
      <use xlink:href="#DejaVuSans-29" transform="translate(1610.21875 0.015625)"/>
     </g>
    </g>
    <g id="line2d_42">
     <path d="M 574.9 108.972813 
L 584.9 108.972813 
L 594.9 108.972813 
" style="fill: none; stroke: #d62728; stroke-width: 1.5; stroke-linecap: square"/>
    </g>
    <g id="text_21">
     <!-- $d(x; h=8, a=1.00) / f(x=8; h=8)$ -->
     <g transform="translate(602.9 112.472813)scale(0.1 -0.1)">
      <use xlink:href="#DejaVuSans-Oblique-64" transform="translate(0 0.015625)"/>
      <use xlink:href="#DejaVuSans-28" transform="translate(63.476562 0.015625)"/>
      <use xlink:href="#DejaVuSans-Oblique-78" transform="translate(102.490234 0.015625)"/>
      <use xlink:href="#DejaVuSans-3b" transform="translate(161.669922 0.015625)"/>
      <use xlink:href="#DejaVuSans-Oblique-68" transform="translate(214.84375 0.015625)"/>
      <use xlink:href="#DejaVuSans-3d" transform="translate(297.705078 0.015625)"/>
      <use xlink:href="#DejaVuSans-38" transform="translate(400.976562 0.015625)"/>
      <use xlink:href="#DejaVuSans-2c" transform="translate(464.599609 0.015625)"/>
      <use xlink:href="#DejaVuSans-Oblique-61" transform="translate(515.869141 0.015625)"/>
      <use xlink:href="#DejaVuSans-3d" transform="translate(596.630859 0.015625)"/>
      <use xlink:href="#DejaVuSans-31" transform="translate(699.902344 0.015625)"/>
      <use xlink:href="#DejaVuSans-2e" transform="translate(763.525391 0.015625)"/>
      <use xlink:href="#DejaVuSans-30" transform="translate(795.3125 0.015625)"/>
      <use xlink:href="#DejaVuSans-30" transform="translate(858.935547 0.015625)"/>
      <use xlink:href="#DejaVuSans-29" transform="translate(922.558594 0.015625)"/>
      <use xlink:href="#DejaVuSans-2f" transform="translate(961.572266 0.015625)"/>
      <use xlink:href="#DejaVuSans-Oblique-66" transform="translate(995.263672 0.015625)"/>
      <use xlink:href="#DejaVuSans-28" transform="translate(1030.46875 0.015625)"/>
      <use xlink:href="#DejaVuSans-Oblique-78" transform="translate(1069.482422 0.015625)"/>
      <use xlink:href="#DejaVuSans-3d" transform="translate(1148.144531 0.015625)"/>
      <use xlink:href="#DejaVuSans-38" transform="translate(1251.416016 0.015625)"/>
      <use xlink:href="#DejaVuSans-3b" transform="translate(1315.039062 0.015625)"/>
      <use xlink:href="#DejaVuSans-Oblique-68" transform="translate(1368.212891 0.015625)"/>
      <use xlink:href="#DejaVuSans-3d" transform="translate(1451.074219 0.015625)"/>
      <use xlink:href="#DejaVuSans-38" transform="translate(1554.345703 0.015625)"/>
      <use xlink:href="#DejaVuSans-29" transform="translate(1617.96875 0.015625)"/>
     </g>
    </g>
   </g>
  </g>
 </g>
 <defs>
  <clipPath id="p675ffc411c">
   <rect x="108" y="51.84" width="669.6" height="332.64"/>
  </clipPath>
 </defs>
</svg>
