<?xml version="1.0" encoding="utf-8" standalone="no"?>
<!DOCTYPE svg PUBLIC "-//W3C//DTD SVG 1.1//EN"
  "http://www.w3.org/Graphics/SVG/1.1/DTD/svg11.dtd">
<svg xmlns:xlink="http://www.w3.org/1999/xlink" width="864pt" height="432pt" viewBox="0 0 864 432" xmlns="http://www.w3.org/2000/svg" version="1.1">
 <metadata>
  <rdf:RDF xmlns:dc="http://purl.org/dc/elements/1.1/" xmlns:cc="http://creativecommons.org/ns#" xmlns:rdf="http://www.w3.org/1999/02/22-rdf-syntax-ns#">
   <cc:Work>
    <dc:type rdf:resource="http://purl.org/dc/dcmitype/StillImage"/>
    <dc:date>2022-01-18T01:53:59.539119</dc:date>
    <dc:format>image/svg+xml</dc:format>
    <dc:creator>
     <cc:Agent>
      <dc:title>Matplotlib v3.5.1, https://matplotlib.org/</dc:title>
     </cc:Agent>
    </dc:creator>
   </cc:Work>
  </rdf:RDF>
 </metadata>
 <defs>
  <style type="text/css">*{stroke-linejoin: round; stroke-linecap: butt}</style>
 </defs>
 <g id="figure_1">
  <g id="patch_1">
   <path d="M 0 432 
L 864 432 
L 864 0 
L 0 0 
z
" style="fill: #ffffff"/>
  </g>
  <g id="axes_1">
   <g id="patch_2">
    <path d="M 108 384.48 
L 777.6 384.48 
L 777.6 51.84 
L 108 51.84 
z
" style="fill: #ffffff"/>
   </g>
   <g id="matplotlib.axis_1">
    <g id="xtick_1">
     <g id="line2d_1">
      <path d="M 108 384.48 
L 108 51.84 
" clip-path="url(#pbb33d2592b)" style="fill: none; stroke: #b0b0b0; stroke-width: 0.8; stroke-linecap: square"/>
     </g>
     <g id="line2d_2">
      <defs>
       <path id="mfa2b6f5d6d" d="M 0 0 
L 0 3.5 
" style="stroke: #000000; stroke-width: 0.8"/>
      </defs>
      <g>
       <use xlink:href="#mfa2b6f5d6d" x="108" y="384.48" style="stroke: #000000; stroke-width: 0.8"/>
      </g>
     </g>
     <g id="text_1">
      <!-- 0.0 -->
      <g transform="translate(100.048438 399.078438)scale(0.1 -0.1)">
       <defs>
        <path id="DejaVuSans-30" d="M 2034 4250 
Q 1547 4250 1301 3770 
Q 1056 3291 1056 2328 
Q 1056 1369 1301 889 
Q 1547 409 2034 409 
Q 2525 409 2770 889 
Q 3016 1369 3016 2328 
Q 3016 3291 2770 3770 
Q 2525 4250 2034 4250 
z
M 2034 4750 
Q 2819 4750 3233 4129 
Q 3647 3509 3647 2328 
Q 3647 1150 3233 529 
Q 2819 -91 2034 -91 
Q 1250 -91 836 529 
Q 422 1150 422 2328 
Q 422 3509 836 4129 
Q 1250 4750 2034 4750 
z
" transform="scale(0.015625)"/>
        <path id="DejaVuSans-2e" d="M 684 794 
L 1344 794 
L 1344 0 
L 684 0 
L 684 794 
z
" transform="scale(0.015625)"/>
       </defs>
       <use xlink:href="#DejaVuSans-30"/>
       <use xlink:href="#DejaVuSans-2e" x="63.623047"/>
       <use xlink:href="#DejaVuSans-30" x="95.410156"/>
      </g>
     </g>
    </g>
    <g id="xtick_2">
     <g id="line2d_3">
      <path d="M 141.48 384.48 
L 141.48 51.84 
" clip-path="url(#pbb33d2592b)" style="fill: none; stroke: #b0b0b0; stroke-width: 0.8; stroke-linecap: square"/>
     </g>
     <g id="line2d_4">
      <g>
       <use xlink:href="#mfa2b6f5d6d" x="141.48" y="384.48" style="stroke: #000000; stroke-width: 0.8"/>
      </g>
     </g>
     <g id="text_2">
      <!-- 0.1 -->
      <g transform="translate(133.528438 399.078438)scale(0.1 -0.1)">
       <defs>
        <path id="DejaVuSans-31" d="M 794 531 
L 1825 531 
L 1825 4091 
L 703 3866 
L 703 4441 
L 1819 4666 
L 2450 4666 
L 2450 531 
L 3481 531 
L 3481 0 
L 794 0 
L 794 531 
z
" transform="scale(0.015625)"/>
       </defs>
       <use xlink:href="#DejaVuSans-30"/>
       <use xlink:href="#DejaVuSans-2e" x="63.623047"/>
       <use xlink:href="#DejaVuSans-31" x="95.410156"/>
      </g>
     </g>
    </g>
    <g id="xtick_3">
     <g id="line2d_5">
      <path d="M 174.96 384.48 
L 174.96 51.84 
" clip-path="url(#pbb33d2592b)" style="fill: none; stroke: #b0b0b0; stroke-width: 0.8; stroke-linecap: square"/>
     </g>
     <g id="line2d_6">
      <g>
       <use xlink:href="#mfa2b6f5d6d" x="174.96" y="384.48" style="stroke: #000000; stroke-width: 0.8"/>
      </g>
     </g>
     <g id="text_3">
      <!-- 0.2 -->
      <g transform="translate(167.008438 399.078438)scale(0.1 -0.1)">
       <defs>
        <path id="DejaVuSans-32" d="M 1228 531 
L 3431 531 
L 3431 0 
L 469 0 
L 469 531 
Q 828 903 1448 1529 
Q 2069 2156 2228 2338 
Q 2531 2678 2651 2914 
Q 2772 3150 2772 3378 
Q 2772 3750 2511 3984 
Q 2250 4219 1831 4219 
Q 1534 4219 1204 4116 
Q 875 4013 500 3803 
L 500 4441 
Q 881 4594 1212 4672 
Q 1544 4750 1819 4750 
Q 2544 4750 2975 4387 
Q 3406 4025 3406 3419 
Q 3406 3131 3298 2873 
Q 3191 2616 2906 2266 
Q 2828 2175 2409 1742 
Q 1991 1309 1228 531 
z
" transform="scale(0.015625)"/>
       </defs>
       <use xlink:href="#DejaVuSans-30"/>
       <use xlink:href="#DejaVuSans-2e" x="63.623047"/>
       <use xlink:href="#DejaVuSans-32" x="95.410156"/>
      </g>
     </g>
    </g>
    <g id="xtick_4">
     <g id="line2d_7">
      <path d="M 208.44 384.48 
L 208.44 51.84 
" clip-path="url(#pbb33d2592b)" style="fill: none; stroke: #b0b0b0; stroke-width: 0.8; stroke-linecap: square"/>
     </g>
     <g id="line2d_8">
      <g>
       <use xlink:href="#mfa2b6f5d6d" x="208.44" y="384.48" style="stroke: #000000; stroke-width: 0.8"/>
      </g>
     </g>
     <g id="text_4">
      <!-- 0.3 -->
      <g transform="translate(200.488438 399.078438)scale(0.1 -0.1)">
       <defs>
        <path id="DejaVuSans-33" d="M 2597 2516 
Q 3050 2419 3304 2112 
Q 3559 1806 3559 1356 
Q 3559 666 3084 287 
Q 2609 -91 1734 -91 
Q 1441 -91 1130 -33 
Q 819 25 488 141 
L 488 750 
Q 750 597 1062 519 
Q 1375 441 1716 441 
Q 2309 441 2620 675 
Q 2931 909 2931 1356 
Q 2931 1769 2642 2001 
Q 2353 2234 1838 2234 
L 1294 2234 
L 1294 2753 
L 1863 2753 
Q 2328 2753 2575 2939 
Q 2822 3125 2822 3475 
Q 2822 3834 2567 4026 
Q 2313 4219 1838 4219 
Q 1578 4219 1281 4162 
Q 984 4106 628 3988 
L 628 4550 
Q 988 4650 1302 4700 
Q 1616 4750 1894 4750 
Q 2613 4750 3031 4423 
Q 3450 4097 3450 3541 
Q 3450 3153 3228 2886 
Q 3006 2619 2597 2516 
z
" transform="scale(0.015625)"/>
       </defs>
       <use xlink:href="#DejaVuSans-30"/>
       <use xlink:href="#DejaVuSans-2e" x="63.623047"/>
       <use xlink:href="#DejaVuSans-33" x="95.410156"/>
      </g>
     </g>
    </g>
    <g id="xtick_5">
     <g id="line2d_9">
      <path d="M 241.92 384.48 
L 241.92 51.84 
" clip-path="url(#pbb33d2592b)" style="fill: none; stroke: #b0b0b0; stroke-width: 0.8; stroke-linecap: square"/>
     </g>
     <g id="line2d_10">
      <g>
       <use xlink:href="#mfa2b6f5d6d" x="241.92" y="384.48" style="stroke: #000000; stroke-width: 0.8"/>
      </g>
     </g>
     <g id="text_5">
      <!-- 0.4 -->
      <g transform="translate(233.968438 399.078438)scale(0.1 -0.1)">
       <defs>
        <path id="DejaVuSans-34" d="M 2419 4116 
L 825 1625 
L 2419 1625 
L 2419 4116 
z
M 2253 4666 
L 3047 4666 
L 3047 1625 
L 3713 1625 
L 3713 1100 
L 3047 1100 
L 3047 0 
L 2419 0 
L 2419 1100 
L 313 1100 
L 313 1709 
L 2253 4666 
z
" transform="scale(0.015625)"/>
       </defs>
       <use xlink:href="#DejaVuSans-30"/>
       <use xlink:href="#DejaVuSans-2e" x="63.623047"/>
       <use xlink:href="#DejaVuSans-34" x="95.410156"/>
      </g>
     </g>
    </g>
    <g id="xtick_6">
     <g id="line2d_11">
      <path d="M 275.4 384.48 
L 275.4 51.84 
" clip-path="url(#pbb33d2592b)" style="fill: none; stroke: #b0b0b0; stroke-width: 0.8; stroke-linecap: square"/>
     </g>
     <g id="line2d_12">
      <g>
       <use xlink:href="#mfa2b6f5d6d" x="275.4" y="384.48" style="stroke: #000000; stroke-width: 0.8"/>
      </g>
     </g>
     <g id="text_6">
      <!-- 0.5 -->
      <g transform="translate(267.448437 399.078438)scale(0.1 -0.1)">
       <defs>
        <path id="DejaVuSans-35" d="M 691 4666 
L 3169 4666 
L 3169 4134 
L 1269 4134 
L 1269 2991 
Q 1406 3038 1543 3061 
Q 1681 3084 1819 3084 
Q 2600 3084 3056 2656 
Q 3513 2228 3513 1497 
Q 3513 744 3044 326 
Q 2575 -91 1722 -91 
Q 1428 -91 1123 -41 
Q 819 9 494 109 
L 494 744 
Q 775 591 1075 516 
Q 1375 441 1709 441 
Q 2250 441 2565 725 
Q 2881 1009 2881 1497 
Q 2881 1984 2565 2268 
Q 2250 2553 1709 2553 
Q 1456 2553 1204 2497 
Q 953 2441 691 2322 
L 691 4666 
z
" transform="scale(0.015625)"/>
       </defs>
       <use xlink:href="#DejaVuSans-30"/>
       <use xlink:href="#DejaVuSans-2e" x="63.623047"/>
       <use xlink:href="#DejaVuSans-35" x="95.410156"/>
      </g>
     </g>
    </g>
    <g id="xtick_7">
     <g id="line2d_13">
      <path d="M 308.88 384.48 
L 308.88 51.84 
" clip-path="url(#pbb33d2592b)" style="fill: none; stroke: #b0b0b0; stroke-width: 0.8; stroke-linecap: square"/>
     </g>
     <g id="line2d_14">
      <g>
       <use xlink:href="#mfa2b6f5d6d" x="308.88" y="384.48" style="stroke: #000000; stroke-width: 0.8"/>
      </g>
     </g>
     <g id="text_7">
      <!-- 0.6 -->
      <g transform="translate(300.928437 399.078438)scale(0.1 -0.1)">
       <defs>
        <path id="DejaVuSans-36" d="M 2113 2584 
Q 1688 2584 1439 2293 
Q 1191 2003 1191 1497 
Q 1191 994 1439 701 
Q 1688 409 2113 409 
Q 2538 409 2786 701 
Q 3034 994 3034 1497 
Q 3034 2003 2786 2293 
Q 2538 2584 2113 2584 
z
M 3366 4563 
L 3366 3988 
Q 3128 4100 2886 4159 
Q 2644 4219 2406 4219 
Q 1781 4219 1451 3797 
Q 1122 3375 1075 2522 
Q 1259 2794 1537 2939 
Q 1816 3084 2150 3084 
Q 2853 3084 3261 2657 
Q 3669 2231 3669 1497 
Q 3669 778 3244 343 
Q 2819 -91 2113 -91 
Q 1303 -91 875 529 
Q 447 1150 447 2328 
Q 447 3434 972 4092 
Q 1497 4750 2381 4750 
Q 2619 4750 2861 4703 
Q 3103 4656 3366 4563 
z
" transform="scale(0.015625)"/>
       </defs>
       <use xlink:href="#DejaVuSans-30"/>
       <use xlink:href="#DejaVuSans-2e" x="63.623047"/>
       <use xlink:href="#DejaVuSans-36" x="95.410156"/>
      </g>
     </g>
    </g>
    <g id="xtick_8">
     <g id="line2d_15">
      <path d="M 342.36 384.48 
L 342.36 51.84 
" clip-path="url(#pbb33d2592b)" style="fill: none; stroke: #b0b0b0; stroke-width: 0.8; stroke-linecap: square"/>
     </g>
     <g id="line2d_16">
      <g>
       <use xlink:href="#mfa2b6f5d6d" x="342.36" y="384.48" style="stroke: #000000; stroke-width: 0.8"/>
      </g>
     </g>
     <g id="text_8">
      <!-- 0.7 -->
      <g transform="translate(334.408437 399.078438)scale(0.1 -0.1)">
       <defs>
        <path id="DejaVuSans-37" d="M 525 4666 
L 3525 4666 
L 3525 4397 
L 1831 0 
L 1172 0 
L 2766 4134 
L 525 4134 
L 525 4666 
z
" transform="scale(0.015625)"/>
       </defs>
       <use xlink:href="#DejaVuSans-30"/>
       <use xlink:href="#DejaVuSans-2e" x="63.623047"/>
       <use xlink:href="#DejaVuSans-37" x="95.410156"/>
      </g>
     </g>
    </g>
    <g id="xtick_9">
     <g id="line2d_17">
      <path d="M 375.84 384.48 
L 375.84 51.84 
" clip-path="url(#pbb33d2592b)" style="fill: none; stroke: #b0b0b0; stroke-width: 0.8; stroke-linecap: square"/>
     </g>
     <g id="line2d_18">
      <g>
       <use xlink:href="#mfa2b6f5d6d" x="375.84" y="384.48" style="stroke: #000000; stroke-width: 0.8"/>
      </g>
     </g>
     <g id="text_9">
      <!-- 0.8 -->
      <g transform="translate(367.888438 399.078438)scale(0.1 -0.1)">
       <defs>
        <path id="DejaVuSans-38" d="M 2034 2216 
Q 1584 2216 1326 1975 
Q 1069 1734 1069 1313 
Q 1069 891 1326 650 
Q 1584 409 2034 409 
Q 2484 409 2743 651 
Q 3003 894 3003 1313 
Q 3003 1734 2745 1975 
Q 2488 2216 2034 2216 
z
M 1403 2484 
Q 997 2584 770 2862 
Q 544 3141 544 3541 
Q 544 4100 942 4425 
Q 1341 4750 2034 4750 
Q 2731 4750 3128 4425 
Q 3525 4100 3525 3541 
Q 3525 3141 3298 2862 
Q 3072 2584 2669 2484 
Q 3125 2378 3379 2068 
Q 3634 1759 3634 1313 
Q 3634 634 3220 271 
Q 2806 -91 2034 -91 
Q 1263 -91 848 271 
Q 434 634 434 1313 
Q 434 1759 690 2068 
Q 947 2378 1403 2484 
z
M 1172 3481 
Q 1172 3119 1398 2916 
Q 1625 2713 2034 2713 
Q 2441 2713 2670 2916 
Q 2900 3119 2900 3481 
Q 2900 3844 2670 4047 
Q 2441 4250 2034 4250 
Q 1625 4250 1398 4047 
Q 1172 3844 1172 3481 
z
" transform="scale(0.015625)"/>
       </defs>
       <use xlink:href="#DejaVuSans-30"/>
       <use xlink:href="#DejaVuSans-2e" x="63.623047"/>
       <use xlink:href="#DejaVuSans-38" x="95.410156"/>
      </g>
     </g>
    </g>
    <g id="xtick_10">
     <g id="line2d_19">
      <path d="M 409.32 384.48 
L 409.32 51.84 
" clip-path="url(#pbb33d2592b)" style="fill: none; stroke: #b0b0b0; stroke-width: 0.8; stroke-linecap: square"/>
     </g>
     <g id="line2d_20">
      <g>
       <use xlink:href="#mfa2b6f5d6d" x="409.32" y="384.48" style="stroke: #000000; stroke-width: 0.8"/>
      </g>
     </g>
     <g id="text_10">
      <!-- 0.9 -->
      <g transform="translate(401.368437 399.078438)scale(0.1 -0.1)">
       <defs>
        <path id="DejaVuSans-39" d="M 703 97 
L 703 672 
Q 941 559 1184 500 
Q 1428 441 1663 441 
Q 2288 441 2617 861 
Q 2947 1281 2994 2138 
Q 2813 1869 2534 1725 
Q 2256 1581 1919 1581 
Q 1219 1581 811 2004 
Q 403 2428 403 3163 
Q 403 3881 828 4315 
Q 1253 4750 1959 4750 
Q 2769 4750 3195 4129 
Q 3622 3509 3622 2328 
Q 3622 1225 3098 567 
Q 2575 -91 1691 -91 
Q 1453 -91 1209 -44 
Q 966 3 703 97 
z
M 1959 2075 
Q 2384 2075 2632 2365 
Q 2881 2656 2881 3163 
Q 2881 3666 2632 3958 
Q 2384 4250 1959 4250 
Q 1534 4250 1286 3958 
Q 1038 3666 1038 3163 
Q 1038 2656 1286 2365 
Q 1534 2075 1959 2075 
z
" transform="scale(0.015625)"/>
       </defs>
       <use xlink:href="#DejaVuSans-30"/>
       <use xlink:href="#DejaVuSans-2e" x="63.623047"/>
       <use xlink:href="#DejaVuSans-39" x="95.410156"/>
      </g>
     </g>
    </g>
    <g id="xtick_11">
     <g id="line2d_21">
      <path d="M 442.8 384.48 
L 442.8 51.84 
" clip-path="url(#pbb33d2592b)" style="fill: none; stroke: #b0b0b0; stroke-width: 0.8; stroke-linecap: square"/>
     </g>
     <g id="line2d_22">
      <g>
       <use xlink:href="#mfa2b6f5d6d" x="442.8" y="384.48" style="stroke: #000000; stroke-width: 0.8"/>
      </g>
     </g>
     <g id="text_11">
      <!-- 1.0 -->
      <g transform="translate(434.848437 399.078438)scale(0.1 -0.1)">
       <use xlink:href="#DejaVuSans-31"/>
       <use xlink:href="#DejaVuSans-2e" x="63.623047"/>
       <use xlink:href="#DejaVuSans-30" x="95.410156"/>
      </g>
     </g>
    </g>
    <g id="xtick_12">
     <g id="line2d_23">
      <path d="M 476.28 384.48 
L 476.28 51.84 
" clip-path="url(#pbb33d2592b)" style="fill: none; stroke: #b0b0b0; stroke-width: 0.8; stroke-linecap: square"/>
     </g>
     <g id="line2d_24">
      <g>
       <use xlink:href="#mfa2b6f5d6d" x="476.28" y="384.48" style="stroke: #000000; stroke-width: 0.8"/>
      </g>
     </g>
     <g id="text_12">
      <!-- 1.1 -->
      <g transform="translate(468.328438 399.078438)scale(0.1 -0.1)">
       <use xlink:href="#DejaVuSans-31"/>
       <use xlink:href="#DejaVuSans-2e" x="63.623047"/>
       <use xlink:href="#DejaVuSans-31" x="95.410156"/>
      </g>
     </g>
    </g>
    <g id="xtick_13">
     <g id="line2d_25">
      <path d="M 509.76 384.48 
L 509.76 51.84 
" clip-path="url(#pbb33d2592b)" style="fill: none; stroke: #b0b0b0; stroke-width: 0.8; stroke-linecap: square"/>
     </g>
     <g id="line2d_26">
      <g>
       <use xlink:href="#mfa2b6f5d6d" x="509.76" y="384.48" style="stroke: #000000; stroke-width: 0.8"/>
      </g>
     </g>
     <g id="text_13">
      <!-- 1.2 -->
      <g transform="translate(501.808437 399.078438)scale(0.1 -0.1)">
       <use xlink:href="#DejaVuSans-31"/>
       <use xlink:href="#DejaVuSans-2e" x="63.623047"/>
       <use xlink:href="#DejaVuSans-32" x="95.410156"/>
      </g>
     </g>
    </g>
    <g id="xtick_14">
     <g id="line2d_27">
      <path d="M 543.24 384.48 
L 543.24 51.84 
" clip-path="url(#pbb33d2592b)" style="fill: none; stroke: #b0b0b0; stroke-width: 0.8; stroke-linecap: square"/>
     </g>
     <g id="line2d_28">
      <g>
       <use xlink:href="#mfa2b6f5d6d" x="543.24" y="384.48" style="stroke: #000000; stroke-width: 0.8"/>
      </g>
     </g>
     <g id="text_14">
      <!-- 1.3 -->
      <g transform="translate(535.288437 399.078438)scale(0.1 -0.1)">
       <use xlink:href="#DejaVuSans-31"/>
       <use xlink:href="#DejaVuSans-2e" x="63.623047"/>
       <use xlink:href="#DejaVuSans-33" x="95.410156"/>
      </g>
     </g>
    </g>
    <g id="xtick_15">
     <g id="line2d_29">
      <path d="M 576.72 384.48 
L 576.72 51.84 
" clip-path="url(#pbb33d2592b)" style="fill: none; stroke: #b0b0b0; stroke-width: 0.8; stroke-linecap: square"/>
     </g>
     <g id="line2d_30">
      <g>
       <use xlink:href="#mfa2b6f5d6d" x="576.72" y="384.48" style="stroke: #000000; stroke-width: 0.8"/>
      </g>
     </g>
     <g id="text_15">
      <!-- 1.4 -->
      <g transform="translate(568.768438 399.078438)scale(0.1 -0.1)">
       <use xlink:href="#DejaVuSans-31"/>
       <use xlink:href="#DejaVuSans-2e" x="63.623047"/>
       <use xlink:href="#DejaVuSans-34" x="95.410156"/>
      </g>
     </g>
    </g>
    <g id="xtick_16">
     <g id="line2d_31">
      <path d="M 610.2 384.48 
L 610.2 51.84 
" clip-path="url(#pbb33d2592b)" style="fill: none; stroke: #b0b0b0; stroke-width: 0.8; stroke-linecap: square"/>
     </g>
     <g id="line2d_32">
      <g>
       <use xlink:href="#mfa2b6f5d6d" x="610.2" y="384.48" style="stroke: #000000; stroke-width: 0.8"/>
      </g>
     </g>
     <g id="text_16">
      <!-- 1.5 -->
      <g transform="translate(602.248438 399.078438)scale(0.1 -0.1)">
       <use xlink:href="#DejaVuSans-31"/>
       <use xlink:href="#DejaVuSans-2e" x="63.623047"/>
       <use xlink:href="#DejaVuSans-35" x="95.410156"/>
      </g>
     </g>
    </g>
    <g id="xtick_17">
     <g id="line2d_33">
      <path d="M 643.68 384.48 
L 643.68 51.84 
" clip-path="url(#pbb33d2592b)" style="fill: none; stroke: #b0b0b0; stroke-width: 0.8; stroke-linecap: square"/>
     </g>
     <g id="line2d_34">
      <g>
       <use xlink:href="#mfa2b6f5d6d" x="643.68" y="384.48" style="stroke: #000000; stroke-width: 0.8"/>
      </g>
     </g>
     <g id="text_17">
      <!-- 1.6 -->
      <g transform="translate(635.728438 399.078438)scale(0.1 -0.1)">
       <use xlink:href="#DejaVuSans-31"/>
       <use xlink:href="#DejaVuSans-2e" x="63.623047"/>
       <use xlink:href="#DejaVuSans-36" x="95.410156"/>
      </g>
     </g>
    </g>
    <g id="xtick_18">
     <g id="line2d_35">
      <path d="M 677.16 384.48 
L 677.16 51.84 
" clip-path="url(#pbb33d2592b)" style="fill: none; stroke: #b0b0b0; stroke-width: 0.8; stroke-linecap: square"/>
     </g>
     <g id="line2d_36">
      <g>
       <use xlink:href="#mfa2b6f5d6d" x="677.16" y="384.48" style="stroke: #000000; stroke-width: 0.8"/>
      </g>
     </g>
     <g id="text_18">
      <!-- 1.7 -->
      <g transform="translate(669.208437 399.078438)scale(0.1 -0.1)">
       <use xlink:href="#DejaVuSans-31"/>
       <use xlink:href="#DejaVuSans-2e" x="63.623047"/>
       <use xlink:href="#DejaVuSans-37" x="95.410156"/>
      </g>
     </g>
    </g>
    <g id="xtick_19">
     <g id="line2d_37">
      <path d="M 710.64 384.48 
L 710.64 51.84 
" clip-path="url(#pbb33d2592b)" style="fill: none; stroke: #b0b0b0; stroke-width: 0.8; stroke-linecap: square"/>
     </g>
     <g id="line2d_38">
      <g>
       <use xlink:href="#mfa2b6f5d6d" x="710.64" y="384.48" style="stroke: #000000; stroke-width: 0.8"/>
      </g>
     </g>
     <g id="text_19">
      <!-- 1.8 -->
      <g transform="translate(702.688437 399.078438)scale(0.1 -0.1)">
       <use xlink:href="#DejaVuSans-31"/>
       <use xlink:href="#DejaVuSans-2e" x="63.623047"/>
       <use xlink:href="#DejaVuSans-38" x="95.410156"/>
      </g>
     </g>
    </g>
    <g id="xtick_20">
     <g id="line2d_39">
      <path d="M 744.12 384.48 
L 744.12 51.84 
" clip-path="url(#pbb33d2592b)" style="fill: none; stroke: #b0b0b0; stroke-width: 0.8; stroke-linecap: square"/>
     </g>
     <g id="line2d_40">
      <g>
       <use xlink:href="#mfa2b6f5d6d" x="744.12" y="384.48" style="stroke: #000000; stroke-width: 0.8"/>
      </g>
     </g>
     <g id="text_20">
      <!-- 1.9 -->
      <g transform="translate(736.168437 399.078438)scale(0.1 -0.1)">
       <use xlink:href="#DejaVuSans-31"/>
       <use xlink:href="#DejaVuSans-2e" x="63.623047"/>
       <use xlink:href="#DejaVuSans-39" x="95.410156"/>
      </g>
     </g>
    </g>
    <g id="xtick_21">
     <g id="line2d_41">
      <path d="M 777.6 384.48 
L 777.6 51.84 
" clip-path="url(#pbb33d2592b)" style="fill: none; stroke: #b0b0b0; stroke-width: 0.8; stroke-linecap: square"/>
     </g>
     <g id="line2d_42">
      <g>
       <use xlink:href="#mfa2b6f5d6d" x="777.6" y="384.48" style="stroke: #000000; stroke-width: 0.8"/>
      </g>
     </g>
     <g id="text_21">
      <!-- 2.0 -->
      <g transform="translate(769.648438 399.078438)scale(0.1 -0.1)">
       <use xlink:href="#DejaVuSans-32"/>
       <use xlink:href="#DejaVuSans-2e" x="63.623047"/>
       <use xlink:href="#DejaVuSans-30" x="95.410156"/>
      </g>
     </g>
    </g>
    <g id="text_22">
     <!-- x -->
     <g transform="translate(439.840625 412.756563)scale(0.1 -0.1)">
      <defs>
       <path id="DejaVuSans-78" d="M 3513 3500 
L 2247 1797 
L 3578 0 
L 2900 0 
L 1881 1375 
L 863 0 
L 184 0 
L 1544 1831 
L 300 3500 
L 978 3500 
L 1906 2253 
L 2834 3500 
L 3513 3500 
z
" transform="scale(0.015625)"/>
      </defs>
      <use xlink:href="#DejaVuSans-78"/>
     </g>
    </g>
   </g>
   <g id="matplotlib.axis_2">
    <g id="ytick_1">
     <g id="line2d_43">
      <path d="M 108 366.103987 
L 777.6 366.103987 
" clip-path="url(#pbb33d2592b)" style="fill: none; stroke: #b0b0b0; stroke-width: 0.8; stroke-linecap: square"/>
     </g>
     <g id="line2d_44">
      <defs>
       <path id="m497bc05d3b" d="M 0 0 
L -3.5 0 
" style="stroke: #000000; stroke-width: 0.8"/>
      </defs>
      <g>
       <use xlink:href="#m497bc05d3b" x="108" y="366.103987" style="stroke: #000000; stroke-width: 0.8"/>
      </g>
     </g>
     <g id="text_23">
      <!-- −0.30 -->
      <g transform="translate(70.354687 369.903206)scale(0.1 -0.1)">
       <defs>
        <path id="DejaVuSans-2212" d="M 678 2272 
L 4684 2272 
L 4684 1741 
L 678 1741 
L 678 2272 
z
" transform="scale(0.015625)"/>
       </defs>
       <use xlink:href="#DejaVuSans-2212"/>
       <use xlink:href="#DejaVuSans-30" x="83.789062"/>
       <use xlink:href="#DejaVuSans-2e" x="147.412109"/>
       <use xlink:href="#DejaVuSans-33" x="179.199219"/>
       <use xlink:href="#DejaVuSans-30" x="242.822266"/>
      </g>
     </g>
    </g>
    <g id="ytick_2">
     <g id="line2d_45">
      <path d="M 108 316.246656 
L 777.6 316.246656 
" clip-path="url(#pbb33d2592b)" style="fill: none; stroke: #b0b0b0; stroke-width: 0.8; stroke-linecap: square"/>
     </g>
     <g id="line2d_46">
      <g>
       <use xlink:href="#m497bc05d3b" x="108" y="316.246656" style="stroke: #000000; stroke-width: 0.8"/>
      </g>
     </g>
     <g id="text_24">
      <!-- −0.25 -->
      <g transform="translate(70.354687 320.045875)scale(0.1 -0.1)">
       <use xlink:href="#DejaVuSans-2212"/>
       <use xlink:href="#DejaVuSans-30" x="83.789062"/>
       <use xlink:href="#DejaVuSans-2e" x="147.412109"/>
       <use xlink:href="#DejaVuSans-32" x="179.199219"/>
       <use xlink:href="#DejaVuSans-35" x="242.822266"/>
      </g>
     </g>
    </g>
    <g id="ytick_3">
     <g id="line2d_47">
      <path d="M 108 266.389325 
L 777.6 266.389325 
" clip-path="url(#pbb33d2592b)" style="fill: none; stroke: #b0b0b0; stroke-width: 0.8; stroke-linecap: square"/>
     </g>
     <g id="line2d_48">
      <g>
       <use xlink:href="#m497bc05d3b" x="108" y="266.389325" style="stroke: #000000; stroke-width: 0.8"/>
      </g>
     </g>
     <g id="text_25">
      <!-- −0.20 -->
      <g transform="translate(70.354687 270.188544)scale(0.1 -0.1)">
       <use xlink:href="#DejaVuSans-2212"/>
       <use xlink:href="#DejaVuSans-30" x="83.789062"/>
       <use xlink:href="#DejaVuSans-2e" x="147.412109"/>
       <use xlink:href="#DejaVuSans-32" x="179.199219"/>
       <use xlink:href="#DejaVuSans-30" x="242.822266"/>
      </g>
     </g>
    </g>
    <g id="ytick_4">
     <g id="line2d_49">
      <path d="M 108 216.531994 
L 777.6 216.531994 
" clip-path="url(#pbb33d2592b)" style="fill: none; stroke: #b0b0b0; stroke-width: 0.8; stroke-linecap: square"/>
     </g>
     <g id="line2d_50">
      <g>
       <use xlink:href="#m497bc05d3b" x="108" y="216.531994" style="stroke: #000000; stroke-width: 0.8"/>
      </g>
     </g>
     <g id="text_26">
      <!-- −0.15 -->
      <g transform="translate(70.354687 220.331212)scale(0.1 -0.1)">
       <use xlink:href="#DejaVuSans-2212"/>
       <use xlink:href="#DejaVuSans-30" x="83.789062"/>
       <use xlink:href="#DejaVuSans-2e" x="147.412109"/>
       <use xlink:href="#DejaVuSans-31" x="179.199219"/>
       <use xlink:href="#DejaVuSans-35" x="242.822266"/>
      </g>
     </g>
    </g>
    <g id="ytick_5">
     <g id="line2d_51">
      <path d="M 108 166.674662 
L 777.6 166.674662 
" clip-path="url(#pbb33d2592b)" style="fill: none; stroke: #b0b0b0; stroke-width: 0.8; stroke-linecap: square"/>
     </g>
     <g id="line2d_52">
      <g>
       <use xlink:href="#m497bc05d3b" x="108" y="166.674662" style="stroke: #000000; stroke-width: 0.8"/>
      </g>
     </g>
     <g id="text_27">
      <!-- −0.10 -->
      <g transform="translate(70.354687 170.473881)scale(0.1 -0.1)">
       <use xlink:href="#DejaVuSans-2212"/>
       <use xlink:href="#DejaVuSans-30" x="83.789062"/>
       <use xlink:href="#DejaVuSans-2e" x="147.412109"/>
       <use xlink:href="#DejaVuSans-31" x="179.199219"/>
       <use xlink:href="#DejaVuSans-30" x="242.822266"/>
      </g>
     </g>
    </g>
    <g id="ytick_6">
     <g id="line2d_53">
      <path d="M 108 116.817331 
L 777.6 116.817331 
" clip-path="url(#pbb33d2592b)" style="fill: none; stroke: #b0b0b0; stroke-width: 0.8; stroke-linecap: square"/>
     </g>
     <g id="line2d_54">
      <g>
       <use xlink:href="#m497bc05d3b" x="108" y="116.817331" style="stroke: #000000; stroke-width: 0.8"/>
      </g>
     </g>
     <g id="text_28">
      <!-- −0.05 -->
      <g transform="translate(70.354687 120.61655)scale(0.1 -0.1)">
       <use xlink:href="#DejaVuSans-2212"/>
       <use xlink:href="#DejaVuSans-30" x="83.789062"/>
       <use xlink:href="#DejaVuSans-2e" x="147.412109"/>
       <use xlink:href="#DejaVuSans-30" x="179.199219"/>
       <use xlink:href="#DejaVuSans-35" x="242.822266"/>
      </g>
     </g>
    </g>
    <g id="ytick_7">
     <g id="line2d_55">
      <path d="M 108 66.96 
L 777.6 66.96 
" clip-path="url(#pbb33d2592b)" style="fill: none; stroke: #b0b0b0; stroke-width: 0.8; stroke-linecap: square"/>
     </g>
     <g id="line2d_56">
      <g>
       <use xlink:href="#m497bc05d3b" x="108" y="66.96" style="stroke: #000000; stroke-width: 0.8"/>
      </g>
     </g>
     <g id="text_29">
      <!-- 0.00 -->
      <g transform="translate(78.734375 70.759219)scale(0.1 -0.1)">
       <use xlink:href="#DejaVuSans-30"/>
       <use xlink:href="#DejaVuSans-2e" x="63.623047"/>
       <use xlink:href="#DejaVuSans-30" x="95.410156"/>
       <use xlink:href="#DejaVuSans-30" x="159.033203"/>
      </g>
     </g>
    </g>
   </g>
   <g id="line2d_57">
    <path d="M 108 66.96 
L 111.269531 67.055082 
L 114.539062 67.340164 
L 117.808594 67.814757 
L 121.078125 68.478048 
L 125.001563 69.521459 
L 128.925 70.832377 
L 132.848437 72.40759 
L 136.771875 74.243249 
L 140.695312 76.334888 
L 144.61875 78.677443 
L 148.542188 81.265274 
L 152.465625 84.092188 
L 157.042969 87.683437 
L 161.620313 91.579418 
L 166.197656 95.767752 
L 170.775 100.235269 
L 176.00625 105.665016 
L 181.2375 111.419497 
L 187.122656 118.253145 
L 193.007812 125.435495 
L 199.546875 133.782811 
L 206.739844 143.354949 
L 214.586719 154.188707 
L 223.741406 167.233459 
L 235.511719 184.440115 
L 271.476562 237.356129 
L 281.285156 251.231984 
L 289.785938 262.88176 
L 297.632812 273.264378 
L 304.825781 282.427474 
L 312.01875 291.21845 
L 318.557813 298.863381 
L 325.096875 306.158625 
L 330.982031 312.411947 
L 336.867188 318.358773 
L 342.752344 323.990519 
L 348.6375 329.300073 
L 354.522656 334.281746 
L 359.753906 338.431106 
L 364.985156 342.315766 
L 370.216406 345.934306 
L 375.447656 349.286038 
L 380.678906 352.370962 
L 385.910156 355.189733 
L 391.141406 357.743621 
L 396.372656 360.03447 
L 401.603906 362.064667 
L 406.835156 363.837098 
L 412.066406 365.355115 
L 417.297656 366.622502 
L 422.528906 367.643437 
L 427.760156 368.422463 
L 432.991406 368.964452 
L 438.222656 369.274574 
L 443.453906 369.358272 
L 448.685156 369.221225 
L 453.916406 368.869328 
L 459.147656 368.308664 
L 464.378906 367.545475 
L 470.264063 366.452756 
L 476.149219 365.121054 
L 482.034375 363.559774 
L 487.919531 361.778431 
L 494.458594 359.552731 
L 500.997656 357.08041 
L 507.536719 354.374709 
L 514.729687 351.14465 
L 521.922656 347.665675 
L 529.769531 343.606895 
L 537.616406 339.294695 
L 546.117188 334.362458 
L 555.271875 328.777932 
L 565.080469 322.517015 
L 575.542969 315.565432 
L 587.313281 307.463293 
L 600.391406 298.183428 
L 616.739063 286.289568 
L 640.933594 268.368963 
L 674.282812 243.703964 
L 691.938281 230.926526 
L 707.632031 219.842564 
L 722.017969 209.961626 
L 735.096094 201.244041 
L 747.520313 193.218643 
L 759.944531 185.460031 
L 771.714844 178.368078 
L 777.6 174.919297 
L 777.6 174.919297 
" clip-path="url(#pbb33d2592b)" style="fill: none; stroke: #1f77b4; stroke-width: 1.5; stroke-linecap: square"/>
   </g>
   <g id="line2d_58">
    <path d="M 108 66.96 
L 111.269531 67.055068 
L 114.539062 67.339946 
L 117.808594 67.813657 
L 121.732031 68.629039 
L 125.655469 69.709952 
L 129.578906 71.051083 
L 133.502344 72.645859 
L 137.425781 74.486491 
L 141.349219 76.564029 
L 145.272656 78.868417 
L 149.85 81.828733 
L 154.427344 85.063426 
L 159.004687 88.551627 
L 164.235938 92.819896 
L 170.121094 97.938667 
L 176.660156 103.957803 
L 183.853125 110.894999 
L 193.007812 120.045573 
L 219.164062 146.382004 
L 227.010938 153.842483 
L 233.55 159.756875 
L 239.435156 164.795468 
L 245.320312 169.527297 
L 250.551563 173.450158 
L 255.782813 177.086287 
L 260.360156 180.019669 
L 264.9375 182.711609 
L 269.514844 185.154502 
L 274.092188 187.342381 
L 278.669531 189.270882 
L 283.246875 190.937202 
L 287.824219 192.340053 
L 292.401563 193.479597 
L 296.978906 194.357378 
L 301.55625 194.976251 
L 306.133594 195.340298 
L 310.710938 195.454745 
L 315.288281 195.325872 
L 319.865625 194.960925 
L 324.442969 194.368018 
L 329.020313 193.556044 
L 333.597656 192.534581 
L 338.828906 191.123741 
L 344.060156 189.468544 
L 349.291406 187.585632 
L 355.176563 185.21654 
L 361.061719 182.605905 
L 367.600781 179.452598 
L 374.79375 175.716846 
L 382.640625 171.374298 
L 391.795313 166.030459 
L 402.911719 159.259801 
L 421.875 147.384468 
L 439.530469 136.420666 
L 451.300781 129.365793 
L 461.763281 123.353254 
L 471.571875 117.983136 
L 480.726562 113.231453 
L 489.227344 109.060406 
L 497.728125 105.131477 
L 506.228906 101.450078 
L 514.729687 98.017993 
L 523.230469 94.833827 
L 531.73125 91.893459 
L 540.232031 89.190469 
L 548.732813 86.716555 
L 557.233594 84.461918 
L 566.388281 82.266499 
L 575.542969 80.29796 
L 585.351562 78.423061 
L 595.160156 76.771551 
L 605.622656 75.234347 
L 616.739063 73.829646 
L 628.509375 72.570063 
L 640.933594 71.462404 
L 654.665625 70.46514 
L 669.705469 69.601415 
L 686.707031 68.857733 
L 705.670313 68.254871 
L 728.557031 67.761221 
L 756.675 67.392106 
L 777.6 67.227604 
L 777.6 67.227604 
" clip-path="url(#pbb33d2592b)" style="fill: none; stroke: #ff7f0e; stroke-width: 1.5; stroke-linecap: square"/>
   </g>
   <g id="line2d_59">
    <path d="M 108 66.96 
L 111.269531 67.055014 
L 114.539062 67.339078 
L 118.4625 67.925255 
L 122.385937 68.770709 
L 126.309375 69.863003 
L 130.232812 71.186149 
L 134.810156 72.995753 
L 139.3875 75.05776 
L 144.61875 77.671918 
L 150.503906 80.862904 
L 159.658594 86.126338 
L 172.082812 93.247973 
L 178.621875 96.715704 
L 183.853125 99.24904 
L 188.430469 101.248439 
L 193.007812 103.016779 
L 197.585156 104.532596 
L 201.508594 105.618634 
L 205.432031 106.500526 
L 209.355469 107.174411 
L 213.278906 107.639285 
L 217.202344 107.896854 
L 221.125781 107.951362 
L 225.049219 107.809379 
L 229.626563 107.407038 
L 234.203906 106.765957 
L 238.78125 105.90578 
L 244.0125 104.682533 
L 249.24375 103.236764 
L 255.128906 101.389924 
L 262.321875 98.89016 
L 272.130469 95.211294 
L 295.671094 86.263236 
L 304.171875 83.307668 
L 312.01875 80.802797 
L 319.865625 78.540556 
L 327.058594 76.691095 
L 334.251562 75.057243 
L 342.098438 73.513619 
L 349.945312 72.204712 
L 358.446094 71.028656 
L 366.946875 70.076003 
L 376.101562 69.265043 
L 386.564063 68.564552 
L 398.334375 68.003957 
L 412.066406 67.573958 
L 429.721875 67.256385 
L 453.916406 67.060642 
L 497.074219 66.971641 
L 697.823438 66.96 
L 777.6 66.96 
L 777.6 66.96 
" clip-path="url(#pbb33d2592b)" style="fill: none; stroke: #2ca02c; stroke-width: 1.5; stroke-linecap: square"/>
   </g>
   <g id="line2d_60">
    <path d="M 108 66.96 
L 111.269531 67.054797 
L 115.192969 67.413304 
L 119.116406 68.020028 
L 123.039844 68.842585 
L 127.617188 70.016751 
L 134.810156 72.134799 
L 143.964844 74.823084 
L 149.196094 76.121353 
L 153.773438 77.020079 
L 157.696875 77.581101 
L 161.620313 77.934339 
L 165.54375 78.077235 
L 169.467187 78.017112 
L 174.044531 77.711816 
L 178.621875 77.188212 
L 184.507031 76.266139 
L 192.353906 74.766482 
L 210.009375 71.302641 
L 217.85625 70.051353 
L 225.049219 69.133743 
L 232.242188 68.43188 
L 240.089063 67.882341 
L 249.24375 67.466462 
L 261.014063 67.175481 
L 277.361719 67.016442 
L 311.364844 66.962003 
L 777.6 66.96 
L 777.6 66.96 
" clip-path="url(#pbb33d2592b)" style="fill: none; stroke: #d62728; stroke-width: 1.5; stroke-linecap: square"/>
   </g>
   <g id="patch_3">
    <path d="M 108 384.48 
L 108 51.84 
" style="fill: none; stroke: #000000; stroke-width: 0.8; stroke-linejoin: miter; stroke-linecap: square"/>
   </g>
   <g id="patch_4">
    <path d="M 777.6 384.48 
L 777.6 51.84 
" style="fill: none; stroke: #000000; stroke-width: 0.8; stroke-linejoin: miter; stroke-linecap: square"/>
   </g>
   <g id="patch_5">
    <path d="M 108 384.48 
L 777.6 384.48 
" style="fill: none; stroke: #000000; stroke-width: 0.8; stroke-linejoin: miter; stroke-linecap: square"/>
   </g>
   <g id="patch_6">
    <path d="M 108 51.84 
L 777.6 51.84 
" style="fill: none; stroke: #000000; stroke-width: 0.8; stroke-linejoin: miter; stroke-linecap: square"/>
   </g>
   <g id="legend_1">
    <g id="patch_7">
     <path d="M 637.3 379.48 
L 770.6 379.48 
Q 772.6 379.48 772.6 377.48 
L 772.6 319.7675 
Q 772.6 317.7675 770.6 317.7675 
L 637.3 317.7675 
Q 635.3 317.7675 635.3 319.7675 
L 635.3 377.48 
Q 635.3 379.48 637.3 379.48 
z
" style="fill: #ffffff; opacity: 0.8; stroke: #cccccc; stroke-linejoin: miter"/>
    </g>
    <g id="line2d_61">
     <path d="M 639.3 325.865937 
L 649.3 325.865937 
L 659.3 325.865937 
" style="fill: none; stroke: #1f77b4; stroke-width: 1.5; stroke-linecap: square"/>
    </g>
    <g id="text_30">
     <!-- $d(x; 1)/f(x=0; h=1)$ -->
     <g transform="translate(667.3 329.365937)scale(0.1 -0.1)">
      <defs>
       <path id="DejaVuSans-Oblique-64" d="M 2675 525 
Q 2444 222 2128 65 
Q 1813 -91 1428 -91 
Q 903 -91 598 267 
Q 294 625 294 1247 
Q 294 1766 478 2236 
Q 663 2706 1013 3078 
Q 1244 3325 1534 3454 
Q 1825 3584 2144 3584 
Q 2481 3584 2739 3421 
Q 2997 3259 3138 2956 
L 3513 4863 
L 4091 4863 
L 3144 0 
L 2566 0 
L 2675 525 
z
M 891 1350 
Q 891 897 1095 644 
Q 1300 391 1663 391 
Q 1931 391 2161 520 
Q 2391 650 2566 903 
Q 2750 1166 2856 1509 
Q 2963 1853 2963 2188 
Q 2963 2622 2758 2865 
Q 2553 3109 2194 3109 
Q 1922 3109 1687 2981 
Q 1453 2853 1288 2613 
Q 1106 2353 998 2009 
Q 891 1666 891 1350 
z
" transform="scale(0.015625)"/>
       <path id="DejaVuSans-28" d="M 1984 4856 
Q 1566 4138 1362 3434 
Q 1159 2731 1159 2009 
Q 1159 1288 1364 580 
Q 1569 -128 1984 -844 
L 1484 -844 
Q 1016 -109 783 600 
Q 550 1309 550 2009 
Q 550 2706 781 3412 
Q 1013 4119 1484 4856 
L 1984 4856 
z
" transform="scale(0.015625)"/>
       <path id="DejaVuSans-Oblique-78" d="M 3841 3500 
L 2234 1784 
L 3219 0 
L 2559 0 
L 1819 1388 
L 531 0 
L -166 0 
L 1556 1844 
L 641 3500 
L 1300 3500 
L 1972 2234 
L 3144 3500 
L 3841 3500 
z
" transform="scale(0.015625)"/>
       <path id="DejaVuSans-3b" d="M 750 3309 
L 1409 3309 
L 1409 2516 
L 750 2516 
L 750 3309 
z
M 750 794 
L 1409 794 
L 1409 256 
L 897 -744 
L 494 -744 
L 750 256 
L 750 794 
z
" transform="scale(0.015625)"/>
       <path id="DejaVuSans-29" d="M 513 4856 
L 1013 4856 
Q 1481 4119 1714 3412 
Q 1947 2706 1947 2009 
Q 1947 1309 1714 600 
Q 1481 -109 1013 -844 
L 513 -844 
Q 928 -128 1133 580 
Q 1338 1288 1338 2009 
Q 1338 2731 1133 3434 
Q 928 4138 513 4856 
z
" transform="scale(0.015625)"/>
       <path id="DejaVuSans-2f" d="M 1625 4666 
L 2156 4666 
L 531 -594 
L 0 -594 
L 1625 4666 
z
" transform="scale(0.015625)"/>
       <path id="DejaVuSans-Oblique-66" d="M 3059 4863 
L 2969 4384 
L 2419 4384 
Q 2106 4384 1964 4261 
Q 1822 4138 1753 3809 
L 1691 3500 
L 2638 3500 
L 2553 3053 
L 1606 3053 
L 1013 0 
L 434 0 
L 1031 3053 
L 481 3053 
L 563 3500 
L 1113 3500 
L 1159 3744 
Q 1278 4363 1576 4613 
Q 1875 4863 2516 4863 
L 3059 4863 
z
" transform="scale(0.015625)"/>
       <path id="DejaVuSans-3d" d="M 678 2906 
L 4684 2906 
L 4684 2381 
L 678 2381 
L 678 2906 
z
M 678 1631 
L 4684 1631 
L 4684 1100 
L 678 1100 
L 678 1631 
z
" transform="scale(0.015625)"/>
       <path id="DejaVuSans-Oblique-68" d="M 3566 2113 
L 3156 0 
L 2578 0 
L 2988 2091 
Q 3016 2238 3031 2350 
Q 3047 2463 3047 2528 
Q 3047 2791 2881 2937 
Q 2716 3084 2419 3084 
Q 1956 3084 1617 2771 
Q 1278 2459 1178 1941 
L 800 0 
L 225 0 
L 1172 4863 
L 1747 4863 
L 1375 2950 
Q 1594 3244 1934 3414 
Q 2275 3584 2650 3584 
Q 3113 3584 3367 3334 
Q 3622 3084 3622 2631 
Q 3622 2519 3608 2391 
Q 3594 2263 3566 2113 
z
" transform="scale(0.015625)"/>
      </defs>
      <use xlink:href="#DejaVuSans-Oblique-64" transform="translate(0 0.015625)"/>
      <use xlink:href="#DejaVuSans-28" transform="translate(63.476562 0.015625)"/>
      <use xlink:href="#DejaVuSans-Oblique-78" transform="translate(102.490234 0.015625)"/>
      <use xlink:href="#DejaVuSans-3b" transform="translate(161.669922 0.015625)"/>
      <use xlink:href="#DejaVuSans-31" transform="translate(214.84375 0.015625)"/>
      <use xlink:href="#DejaVuSans-29" transform="translate(278.466797 0.015625)"/>
      <use xlink:href="#DejaVuSans-2f" transform="translate(317.480469 0.015625)"/>
      <use xlink:href="#DejaVuSans-Oblique-66" transform="translate(351.171875 0.015625)"/>
      <use xlink:href="#DejaVuSans-28" transform="translate(386.376953 0.015625)"/>
      <use xlink:href="#DejaVuSans-Oblique-78" transform="translate(425.390625 0.015625)"/>
      <use xlink:href="#DejaVuSans-3d" transform="translate(504.052734 0.015625)"/>
      <use xlink:href="#DejaVuSans-30" transform="translate(607.324219 0.015625)"/>
      <use xlink:href="#DejaVuSans-3b" transform="translate(670.947266 0.015625)"/>
      <use xlink:href="#DejaVuSans-Oblique-68" transform="translate(724.121094 0.015625)"/>
      <use xlink:href="#DejaVuSans-3d" transform="translate(806.982422 0.015625)"/>
      <use xlink:href="#DejaVuSans-31" transform="translate(910.253906 0.015625)"/>
      <use xlink:href="#DejaVuSans-29" transform="translate(973.876953 0.015625)"/>
     </g>
    </g>
    <g id="line2d_62">
     <path d="M 639.3 340.544062 
L 649.3 340.544062 
L 659.3 340.544062 
" style="fill: none; stroke: #ff7f0e; stroke-width: 1.5; stroke-linecap: square"/>
    </g>
    <g id="text_31">
     <!-- $d(x; 2)/f(x=0; h=2)$ -->
     <g transform="translate(667.3 344.044062)scale(0.1 -0.1)">
      <use xlink:href="#DejaVuSans-Oblique-64" transform="translate(0 0.015625)"/>
      <use xlink:href="#DejaVuSans-28" transform="translate(63.476562 0.015625)"/>
      <use xlink:href="#DejaVuSans-Oblique-78" transform="translate(102.490234 0.015625)"/>
      <use xlink:href="#DejaVuSans-3b" transform="translate(161.669922 0.015625)"/>
      <use xlink:href="#DejaVuSans-32" transform="translate(214.84375 0.015625)"/>
      <use xlink:href="#DejaVuSans-29" transform="translate(278.466797 0.015625)"/>
      <use xlink:href="#DejaVuSans-2f" transform="translate(317.480469 0.015625)"/>
      <use xlink:href="#DejaVuSans-Oblique-66" transform="translate(351.171875 0.015625)"/>
      <use xlink:href="#DejaVuSans-28" transform="translate(386.376953 0.015625)"/>
      <use xlink:href="#DejaVuSans-Oblique-78" transform="translate(425.390625 0.015625)"/>
      <use xlink:href="#DejaVuSans-3d" transform="translate(504.052734 0.015625)"/>
      <use xlink:href="#DejaVuSans-30" transform="translate(607.324219 0.015625)"/>
      <use xlink:href="#DejaVuSans-3b" transform="translate(670.947266 0.015625)"/>
      <use xlink:href="#DejaVuSans-Oblique-68" transform="translate(724.121094 0.015625)"/>
      <use xlink:href="#DejaVuSans-3d" transform="translate(806.982422 0.015625)"/>
      <use xlink:href="#DejaVuSans-32" transform="translate(910.253906 0.015625)"/>
      <use xlink:href="#DejaVuSans-29" transform="translate(973.876953 0.015625)"/>
     </g>
    </g>
    <g id="line2d_63">
     <path d="M 639.3 355.222188 
L 649.3 355.222188 
L 659.3 355.222188 
" style="fill: none; stroke: #2ca02c; stroke-width: 1.5; stroke-linecap: square"/>
    </g>
    <g id="text_32">
     <!-- $d(x; 4)/f(x=0; h=4)$ -->
     <g transform="translate(667.3 358.722188)scale(0.1 -0.1)">
      <use xlink:href="#DejaVuSans-Oblique-64" transform="translate(0 0.015625)"/>
      <use xlink:href="#DejaVuSans-28" transform="translate(63.476562 0.015625)"/>
      <use xlink:href="#DejaVuSans-Oblique-78" transform="translate(102.490234 0.015625)"/>
      <use xlink:href="#DejaVuSans-3b" transform="translate(161.669922 0.015625)"/>
      <use xlink:href="#DejaVuSans-34" transform="translate(214.84375 0.015625)"/>
      <use xlink:href="#DejaVuSans-29" transform="translate(278.466797 0.015625)"/>
      <use xlink:href="#DejaVuSans-2f" transform="translate(317.480469 0.015625)"/>
      <use xlink:href="#DejaVuSans-Oblique-66" transform="translate(351.171875 0.015625)"/>
      <use xlink:href="#DejaVuSans-28" transform="translate(386.376953 0.015625)"/>
      <use xlink:href="#DejaVuSans-Oblique-78" transform="translate(425.390625 0.015625)"/>
      <use xlink:href="#DejaVuSans-3d" transform="translate(504.052734 0.015625)"/>
      <use xlink:href="#DejaVuSans-30" transform="translate(607.324219 0.015625)"/>
      <use xlink:href="#DejaVuSans-3b" transform="translate(670.947266 0.015625)"/>
      <use xlink:href="#DejaVuSans-Oblique-68" transform="translate(724.121094 0.015625)"/>
      <use xlink:href="#DejaVuSans-3d" transform="translate(806.982422 0.015625)"/>
      <use xlink:href="#DejaVuSans-34" transform="translate(910.253906 0.015625)"/>
      <use xlink:href="#DejaVuSans-29" transform="translate(973.876953 0.015625)"/>
     </g>
    </g>
    <g id="line2d_64">
     <path d="M 639.3 369.900312 
L 649.3 369.900312 
L 659.3 369.900312 
" style="fill: none; stroke: #d62728; stroke-width: 1.5; stroke-linecap: square"/>
    </g>
    <g id="text_33">
     <!-- $d(x; 8)/f(x=0; h=8)$ -->
     <g transform="translate(667.3 373.400312)scale(0.1 -0.1)">
      <use xlink:href="#DejaVuSans-Oblique-64" transform="translate(0 0.015625)"/>
      <use xlink:href="#DejaVuSans-28" transform="translate(63.476562 0.015625)"/>
      <use xlink:href="#DejaVuSans-Oblique-78" transform="translate(102.490234 0.015625)"/>
      <use xlink:href="#DejaVuSans-3b" transform="translate(161.669922 0.015625)"/>
      <use xlink:href="#DejaVuSans-38" transform="translate(214.84375 0.015625)"/>
      <use xlink:href="#DejaVuSans-29" transform="translate(278.466797 0.015625)"/>
      <use xlink:href="#DejaVuSans-2f" transform="translate(317.480469 0.015625)"/>
      <use xlink:href="#DejaVuSans-Oblique-66" transform="translate(351.171875 0.015625)"/>
      <use xlink:href="#DejaVuSans-28" transform="translate(386.376953 0.015625)"/>
      <use xlink:href="#DejaVuSans-Oblique-78" transform="translate(425.390625 0.015625)"/>
      <use xlink:href="#DejaVuSans-3d" transform="translate(504.052734 0.015625)"/>
      <use xlink:href="#DejaVuSans-30" transform="translate(607.324219 0.015625)"/>
      <use xlink:href="#DejaVuSans-3b" transform="translate(670.947266 0.015625)"/>
      <use xlink:href="#DejaVuSans-Oblique-68" transform="translate(724.121094 0.015625)"/>
      <use xlink:href="#DejaVuSans-3d" transform="translate(806.982422 0.015625)"/>
      <use xlink:href="#DejaVuSans-38" transform="translate(910.253906 0.015625)"/>
      <use xlink:href="#DejaVuSans-29" transform="translate(973.876953 0.015625)"/>
     </g>
    </g>
   </g>
  </g>
 </g>
 <defs>
  <clipPath id="pbb33d2592b">
   <rect x="108" y="51.84" width="669.6" height="332.64"/>
  </clipPath>
 </defs>
</svg>
