<?xml version="1.0" encoding="utf-8" standalone="no"?>
<!DOCTYPE svg PUBLIC "-//W3C//DTD SVG 1.1//EN"
  "http://www.w3.org/Graphics/SVG/1.1/DTD/svg11.dtd">
<svg xmlns:xlink="http://www.w3.org/1999/xlink" width="864pt" height="432pt" viewBox="0 0 864 432" xmlns="http://www.w3.org/2000/svg" version="1.1">
 <metadata>
  <rdf:RDF xmlns:dc="http://purl.org/dc/elements/1.1/" xmlns:cc="http://creativecommons.org/ns#" xmlns:rdf="http://www.w3.org/1999/02/22-rdf-syntax-ns#">
   <cc:Work>
    <dc:type rdf:resource="http://purl.org/dc/dcmitype/StillImage"/>
    <dc:date>2022-01-16T00:32:15.506708</dc:date>
    <dc:format>image/svg+xml</dc:format>
    <dc:creator>
     <cc:Agent>
      <dc:title>Matplotlib v3.5.1, https://matplotlib.org/</dc:title>
     </cc:Agent>
    </dc:creator>
   </cc:Work>
  </rdf:RDF>
 </metadata>
 <defs>
  <style type="text/css">*{stroke-linejoin: round; stroke-linecap: butt}</style>
 </defs>
 <g id="figure_1">
  <g id="patch_1">
   <path d="M 0 432 
L 864 432 
L 864 0 
L 0 0 
z
" style="fill: #ffffff"/>
  </g>
  <g id="axes_1">
   <g id="patch_2">
    <path d="M 108 384.48 
L 777.6 384.48 
L 777.6 51.84 
L 108 51.84 
z
" style="fill: #ffffff"/>
   </g>
   <g id="matplotlib.axis_1">
    <g id="xtick_1">
     <g id="line2d_1">
      <path d="M 108 384.48 
L 108 51.84 
" clip-path="url(#p4d9c3339df)" style="fill: none; stroke: #b0b0b0; stroke-width: 0.8; stroke-linecap: square"/>
     </g>
     <g id="line2d_2">
      <defs>
       <path id="ma740cbf79a" d="M 0 0 
L 0 3.5 
" style="stroke: #000000; stroke-width: 0.8"/>
      </defs>
      <g>
       <use xlink:href="#ma740cbf79a" x="108" y="384.48" style="stroke: #000000; stroke-width: 0.8"/>
      </g>
     </g>
     <g id="text_1">
      <!-- 0.0 -->
      <g transform="translate(100.048438 399.078438)scale(0.1 -0.1)">
       <defs>
        <path id="DejaVuSans-30" d="M 2034 4250 
Q 1547 4250 1301 3770 
Q 1056 3291 1056 2328 
Q 1056 1369 1301 889 
Q 1547 409 2034 409 
Q 2525 409 2770 889 
Q 3016 1369 3016 2328 
Q 3016 3291 2770 3770 
Q 2525 4250 2034 4250 
z
M 2034 4750 
Q 2819 4750 3233 4129 
Q 3647 3509 3647 2328 
Q 3647 1150 3233 529 
Q 2819 -91 2034 -91 
Q 1250 -91 836 529 
Q 422 1150 422 2328 
Q 422 3509 836 4129 
Q 1250 4750 2034 4750 
z
" transform="scale(0.015625)"/>
        <path id="DejaVuSans-2e" d="M 684 794 
L 1344 794 
L 1344 0 
L 684 0 
L 684 794 
z
" transform="scale(0.015625)"/>
       </defs>
       <use xlink:href="#DejaVuSans-30"/>
       <use xlink:href="#DejaVuSans-2e" x="63.623047"/>
       <use xlink:href="#DejaVuSans-30" x="95.410156"/>
      </g>
     </g>
    </g>
    <g id="xtick_2">
     <g id="line2d_3">
      <path d="M 174.96 384.48 
L 174.96 51.84 
" clip-path="url(#p4d9c3339df)" style="fill: none; stroke: #b0b0b0; stroke-width: 0.8; stroke-linecap: square"/>
     </g>
     <g id="line2d_4">
      <g>
       <use xlink:href="#ma740cbf79a" x="174.96" y="384.48" style="stroke: #000000; stroke-width: 0.8"/>
      </g>
     </g>
     <g id="text_2">
      <!-- 0.1 -->
      <g transform="translate(167.008438 399.078438)scale(0.1 -0.1)">
       <defs>
        <path id="DejaVuSans-31" d="M 794 531 
L 1825 531 
L 1825 4091 
L 703 3866 
L 703 4441 
L 1819 4666 
L 2450 4666 
L 2450 531 
L 3481 531 
L 3481 0 
L 794 0 
L 794 531 
z
" transform="scale(0.015625)"/>
       </defs>
       <use xlink:href="#DejaVuSans-30"/>
       <use xlink:href="#DejaVuSans-2e" x="63.623047"/>
       <use xlink:href="#DejaVuSans-31" x="95.410156"/>
      </g>
     </g>
    </g>
    <g id="xtick_3">
     <g id="line2d_5">
      <path d="M 241.92 384.48 
L 241.92 51.84 
" clip-path="url(#p4d9c3339df)" style="fill: none; stroke: #b0b0b0; stroke-width: 0.8; stroke-linecap: square"/>
     </g>
     <g id="line2d_6">
      <g>
       <use xlink:href="#ma740cbf79a" x="241.92" y="384.48" style="stroke: #000000; stroke-width: 0.8"/>
      </g>
     </g>
     <g id="text_3">
      <!-- 0.2 -->
      <g transform="translate(233.968438 399.078438)scale(0.1 -0.1)">
       <defs>
        <path id="DejaVuSans-32" d="M 1228 531 
L 3431 531 
L 3431 0 
L 469 0 
L 469 531 
Q 828 903 1448 1529 
Q 2069 2156 2228 2338 
Q 2531 2678 2651 2914 
Q 2772 3150 2772 3378 
Q 2772 3750 2511 3984 
Q 2250 4219 1831 4219 
Q 1534 4219 1204 4116 
Q 875 4013 500 3803 
L 500 4441 
Q 881 4594 1212 4672 
Q 1544 4750 1819 4750 
Q 2544 4750 2975 4387 
Q 3406 4025 3406 3419 
Q 3406 3131 3298 2873 
Q 3191 2616 2906 2266 
Q 2828 2175 2409 1742 
Q 1991 1309 1228 531 
z
" transform="scale(0.015625)"/>
       </defs>
       <use xlink:href="#DejaVuSans-30"/>
       <use xlink:href="#DejaVuSans-2e" x="63.623047"/>
       <use xlink:href="#DejaVuSans-32" x="95.410156"/>
      </g>
     </g>
    </g>
    <g id="xtick_4">
     <g id="line2d_7">
      <path d="M 308.88 384.48 
L 308.88 51.84 
" clip-path="url(#p4d9c3339df)" style="fill: none; stroke: #b0b0b0; stroke-width: 0.8; stroke-linecap: square"/>
     </g>
     <g id="line2d_8">
      <g>
       <use xlink:href="#ma740cbf79a" x="308.88" y="384.48" style="stroke: #000000; stroke-width: 0.8"/>
      </g>
     </g>
     <g id="text_4">
      <!-- 0.3 -->
      <g transform="translate(300.928437 399.078438)scale(0.1 -0.1)">
       <defs>
        <path id="DejaVuSans-33" d="M 2597 2516 
Q 3050 2419 3304 2112 
Q 3559 1806 3559 1356 
Q 3559 666 3084 287 
Q 2609 -91 1734 -91 
Q 1441 -91 1130 -33 
Q 819 25 488 141 
L 488 750 
Q 750 597 1062 519 
Q 1375 441 1716 441 
Q 2309 441 2620 675 
Q 2931 909 2931 1356 
Q 2931 1769 2642 2001 
Q 2353 2234 1838 2234 
L 1294 2234 
L 1294 2753 
L 1863 2753 
Q 2328 2753 2575 2939 
Q 2822 3125 2822 3475 
Q 2822 3834 2567 4026 
Q 2313 4219 1838 4219 
Q 1578 4219 1281 4162 
Q 984 4106 628 3988 
L 628 4550 
Q 988 4650 1302 4700 
Q 1616 4750 1894 4750 
Q 2613 4750 3031 4423 
Q 3450 4097 3450 3541 
Q 3450 3153 3228 2886 
Q 3006 2619 2597 2516 
z
" transform="scale(0.015625)"/>
       </defs>
       <use xlink:href="#DejaVuSans-30"/>
       <use xlink:href="#DejaVuSans-2e" x="63.623047"/>
       <use xlink:href="#DejaVuSans-33" x="95.410156"/>
      </g>
     </g>
    </g>
    <g id="xtick_5">
     <g id="line2d_9">
      <path d="M 375.84 384.48 
L 375.84 51.84 
" clip-path="url(#p4d9c3339df)" style="fill: none; stroke: #b0b0b0; stroke-width: 0.8; stroke-linecap: square"/>
     </g>
     <g id="line2d_10">
      <g>
       <use xlink:href="#ma740cbf79a" x="375.84" y="384.48" style="stroke: #000000; stroke-width: 0.8"/>
      </g>
     </g>
     <g id="text_5">
      <!-- 0.4 -->
      <g transform="translate(367.888438 399.078438)scale(0.1 -0.1)">
       <defs>
        <path id="DejaVuSans-34" d="M 2419 4116 
L 825 1625 
L 2419 1625 
L 2419 4116 
z
M 2253 4666 
L 3047 4666 
L 3047 1625 
L 3713 1625 
L 3713 1100 
L 3047 1100 
L 3047 0 
L 2419 0 
L 2419 1100 
L 313 1100 
L 313 1709 
L 2253 4666 
z
" transform="scale(0.015625)"/>
       </defs>
       <use xlink:href="#DejaVuSans-30"/>
       <use xlink:href="#DejaVuSans-2e" x="63.623047"/>
       <use xlink:href="#DejaVuSans-34" x="95.410156"/>
      </g>
     </g>
    </g>
    <g id="xtick_6">
     <g id="line2d_11">
      <path d="M 442.8 384.48 
L 442.8 51.84 
" clip-path="url(#p4d9c3339df)" style="fill: none; stroke: #b0b0b0; stroke-width: 0.8; stroke-linecap: square"/>
     </g>
     <g id="line2d_12">
      <g>
       <use xlink:href="#ma740cbf79a" x="442.8" y="384.48" style="stroke: #000000; stroke-width: 0.8"/>
      </g>
     </g>
     <g id="text_6">
      <!-- 0.5 -->
      <g transform="translate(434.848437 399.078438)scale(0.1 -0.1)">
       <defs>
        <path id="DejaVuSans-35" d="M 691 4666 
L 3169 4666 
L 3169 4134 
L 1269 4134 
L 1269 2991 
Q 1406 3038 1543 3061 
Q 1681 3084 1819 3084 
Q 2600 3084 3056 2656 
Q 3513 2228 3513 1497 
Q 3513 744 3044 326 
Q 2575 -91 1722 -91 
Q 1428 -91 1123 -41 
Q 819 9 494 109 
L 494 744 
Q 775 591 1075 516 
Q 1375 441 1709 441 
Q 2250 441 2565 725 
Q 2881 1009 2881 1497 
Q 2881 1984 2565 2268 
Q 2250 2553 1709 2553 
Q 1456 2553 1204 2497 
Q 953 2441 691 2322 
L 691 4666 
z
" transform="scale(0.015625)"/>
       </defs>
       <use xlink:href="#DejaVuSans-30"/>
       <use xlink:href="#DejaVuSans-2e" x="63.623047"/>
       <use xlink:href="#DejaVuSans-35" x="95.410156"/>
      </g>
     </g>
    </g>
    <g id="xtick_7">
     <g id="line2d_13">
      <path d="M 509.76 384.48 
L 509.76 51.84 
" clip-path="url(#p4d9c3339df)" style="fill: none; stroke: #b0b0b0; stroke-width: 0.8; stroke-linecap: square"/>
     </g>
     <g id="line2d_14">
      <g>
       <use xlink:href="#ma740cbf79a" x="509.76" y="384.48" style="stroke: #000000; stroke-width: 0.8"/>
      </g>
     </g>
     <g id="text_7">
      <!-- 0.6 -->
      <g transform="translate(501.808437 399.078438)scale(0.1 -0.1)">
       <defs>
        <path id="DejaVuSans-36" d="M 2113 2584 
Q 1688 2584 1439 2293 
Q 1191 2003 1191 1497 
Q 1191 994 1439 701 
Q 1688 409 2113 409 
Q 2538 409 2786 701 
Q 3034 994 3034 1497 
Q 3034 2003 2786 2293 
Q 2538 2584 2113 2584 
z
M 3366 4563 
L 3366 3988 
Q 3128 4100 2886 4159 
Q 2644 4219 2406 4219 
Q 1781 4219 1451 3797 
Q 1122 3375 1075 2522 
Q 1259 2794 1537 2939 
Q 1816 3084 2150 3084 
Q 2853 3084 3261 2657 
Q 3669 2231 3669 1497 
Q 3669 778 3244 343 
Q 2819 -91 2113 -91 
Q 1303 -91 875 529 
Q 447 1150 447 2328 
Q 447 3434 972 4092 
Q 1497 4750 2381 4750 
Q 2619 4750 2861 4703 
Q 3103 4656 3366 4563 
z
" transform="scale(0.015625)"/>
       </defs>
       <use xlink:href="#DejaVuSans-30"/>
       <use xlink:href="#DejaVuSans-2e" x="63.623047"/>
       <use xlink:href="#DejaVuSans-36" x="95.410156"/>
      </g>
     </g>
    </g>
    <g id="xtick_8">
     <g id="line2d_15">
      <path d="M 576.72 384.48 
L 576.72 51.84 
" clip-path="url(#p4d9c3339df)" style="fill: none; stroke: #b0b0b0; stroke-width: 0.8; stroke-linecap: square"/>
     </g>
     <g id="line2d_16">
      <g>
       <use xlink:href="#ma740cbf79a" x="576.72" y="384.48" style="stroke: #000000; stroke-width: 0.8"/>
      </g>
     </g>
     <g id="text_8">
      <!-- 0.7 -->
      <g transform="translate(568.768438 399.078438)scale(0.1 -0.1)">
       <defs>
        <path id="DejaVuSans-37" d="M 525 4666 
L 3525 4666 
L 3525 4397 
L 1831 0 
L 1172 0 
L 2766 4134 
L 525 4134 
L 525 4666 
z
" transform="scale(0.015625)"/>
       </defs>
       <use xlink:href="#DejaVuSans-30"/>
       <use xlink:href="#DejaVuSans-2e" x="63.623047"/>
       <use xlink:href="#DejaVuSans-37" x="95.410156"/>
      </g>
     </g>
    </g>
    <g id="xtick_9">
     <g id="line2d_17">
      <path d="M 643.68 384.48 
L 643.68 51.84 
" clip-path="url(#p4d9c3339df)" style="fill: none; stroke: #b0b0b0; stroke-width: 0.8; stroke-linecap: square"/>
     </g>
     <g id="line2d_18">
      <g>
       <use xlink:href="#ma740cbf79a" x="643.68" y="384.48" style="stroke: #000000; stroke-width: 0.8"/>
      </g>
     </g>
     <g id="text_9">
      <!-- 0.8 -->
      <g transform="translate(635.728438 399.078438)scale(0.1 -0.1)">
       <defs>
        <path id="DejaVuSans-38" d="M 2034 2216 
Q 1584 2216 1326 1975 
Q 1069 1734 1069 1313 
Q 1069 891 1326 650 
Q 1584 409 2034 409 
Q 2484 409 2743 651 
Q 3003 894 3003 1313 
Q 3003 1734 2745 1975 
Q 2488 2216 2034 2216 
z
M 1403 2484 
Q 997 2584 770 2862 
Q 544 3141 544 3541 
Q 544 4100 942 4425 
Q 1341 4750 2034 4750 
Q 2731 4750 3128 4425 
Q 3525 4100 3525 3541 
Q 3525 3141 3298 2862 
Q 3072 2584 2669 2484 
Q 3125 2378 3379 2068 
Q 3634 1759 3634 1313 
Q 3634 634 3220 271 
Q 2806 -91 2034 -91 
Q 1263 -91 848 271 
Q 434 634 434 1313 
Q 434 1759 690 2068 
Q 947 2378 1403 2484 
z
M 1172 3481 
Q 1172 3119 1398 2916 
Q 1625 2713 2034 2713 
Q 2441 2713 2670 2916 
Q 2900 3119 2900 3481 
Q 2900 3844 2670 4047 
Q 2441 4250 2034 4250 
Q 1625 4250 1398 4047 
Q 1172 3844 1172 3481 
z
" transform="scale(0.015625)"/>
       </defs>
       <use xlink:href="#DejaVuSans-30"/>
       <use xlink:href="#DejaVuSans-2e" x="63.623047"/>
       <use xlink:href="#DejaVuSans-38" x="95.410156"/>
      </g>
     </g>
    </g>
    <g id="xtick_10">
     <g id="line2d_19">
      <path d="M 710.64 384.48 
L 710.64 51.84 
" clip-path="url(#p4d9c3339df)" style="fill: none; stroke: #b0b0b0; stroke-width: 0.8; stroke-linecap: square"/>
     </g>
     <g id="line2d_20">
      <g>
       <use xlink:href="#ma740cbf79a" x="710.64" y="384.48" style="stroke: #000000; stroke-width: 0.8"/>
      </g>
     </g>
     <g id="text_10">
      <!-- 0.9 -->
      <g transform="translate(702.688437 399.078438)scale(0.1 -0.1)">
       <defs>
        <path id="DejaVuSans-39" d="M 703 97 
L 703 672 
Q 941 559 1184 500 
Q 1428 441 1663 441 
Q 2288 441 2617 861 
Q 2947 1281 2994 2138 
Q 2813 1869 2534 1725 
Q 2256 1581 1919 1581 
Q 1219 1581 811 2004 
Q 403 2428 403 3163 
Q 403 3881 828 4315 
Q 1253 4750 1959 4750 
Q 2769 4750 3195 4129 
Q 3622 3509 3622 2328 
Q 3622 1225 3098 567 
Q 2575 -91 1691 -91 
Q 1453 -91 1209 -44 
Q 966 3 703 97 
z
M 1959 2075 
Q 2384 2075 2632 2365 
Q 2881 2656 2881 3163 
Q 2881 3666 2632 3958 
Q 2384 4250 1959 4250 
Q 1534 4250 1286 3958 
Q 1038 3666 1038 3163 
Q 1038 2656 1286 2365 
Q 1534 2075 1959 2075 
z
" transform="scale(0.015625)"/>
       </defs>
       <use xlink:href="#DejaVuSans-30"/>
       <use xlink:href="#DejaVuSans-2e" x="63.623047"/>
       <use xlink:href="#DejaVuSans-39" x="95.410156"/>
      </g>
     </g>
    </g>
    <g id="xtick_11">
     <g id="line2d_21">
      <path d="M 777.6 384.48 
L 777.6 51.84 
" clip-path="url(#p4d9c3339df)" style="fill: none; stroke: #b0b0b0; stroke-width: 0.8; stroke-linecap: square"/>
     </g>
     <g id="line2d_22">
      <g>
       <use xlink:href="#ma740cbf79a" x="777.6" y="384.48" style="stroke: #000000; stroke-width: 0.8"/>
      </g>
     </g>
     <g id="text_11">
      <!-- 1.0 -->
      <g transform="translate(769.648438 399.078438)scale(0.1 -0.1)">
       <use xlink:href="#DejaVuSans-31"/>
       <use xlink:href="#DejaVuSans-2e" x="63.623047"/>
       <use xlink:href="#DejaVuSans-30" x="95.410156"/>
      </g>
     </g>
    </g>
   </g>
   <g id="matplotlib.axis_2">
    <g id="ytick_1">
     <g id="line2d_23">
      <path d="M 108 369.41073 
L 777.6 369.41073 
" clip-path="url(#p4d9c3339df)" style="fill: none; stroke: #b0b0b0; stroke-width: 0.8; stroke-linecap: square"/>
     </g>
     <g id="line2d_24">
      <defs>
       <path id="m0ca741ae61" d="M 0 0 
L -3.5 0 
" style="stroke: #000000; stroke-width: 0.8"/>
      </defs>
      <g>
       <use xlink:href="#m0ca741ae61" x="108" y="369.41073" style="stroke: #000000; stroke-width: 0.8"/>
      </g>
     </g>
     <g id="text_12">
      <!-- 0.00000 -->
      <g transform="translate(59.646875 373.209949)scale(0.1 -0.1)">
       <use xlink:href="#DejaVuSans-30"/>
       <use xlink:href="#DejaVuSans-2e" x="63.623047"/>
       <use xlink:href="#DejaVuSans-30" x="95.410156"/>
       <use xlink:href="#DejaVuSans-30" x="159.033203"/>
       <use xlink:href="#DejaVuSans-30" x="222.65625"/>
       <use xlink:href="#DejaVuSans-30" x="286.279297"/>
       <use xlink:href="#DejaVuSans-30" x="349.902344"/>
      </g>
     </g>
    </g>
    <g id="ytick_2">
     <g id="line2d_25">
      <path d="M 108 324.331084 
L 777.6 324.331084 
" clip-path="url(#p4d9c3339df)" style="fill: none; stroke: #b0b0b0; stroke-width: 0.8; stroke-linecap: square"/>
     </g>
     <g id="line2d_26">
      <g>
       <use xlink:href="#m0ca741ae61" x="108" y="324.331084" style="stroke: #000000; stroke-width: 0.8"/>
      </g>
     </g>
     <g id="text_13">
      <!-- 0.00005 -->
      <g transform="translate(59.646875 328.130303)scale(0.1 -0.1)">
       <use xlink:href="#DejaVuSans-30"/>
       <use xlink:href="#DejaVuSans-2e" x="63.623047"/>
       <use xlink:href="#DejaVuSans-30" x="95.410156"/>
       <use xlink:href="#DejaVuSans-30" x="159.033203"/>
       <use xlink:href="#DejaVuSans-30" x="222.65625"/>
       <use xlink:href="#DejaVuSans-30" x="286.279297"/>
       <use xlink:href="#DejaVuSans-35" x="349.902344"/>
      </g>
     </g>
    </g>
    <g id="ytick_3">
     <g id="line2d_27">
      <path d="M 108 279.251438 
L 777.6 279.251438 
" clip-path="url(#p4d9c3339df)" style="fill: none; stroke: #b0b0b0; stroke-width: 0.8; stroke-linecap: square"/>
     </g>
     <g id="line2d_28">
      <g>
       <use xlink:href="#m0ca741ae61" x="108" y="279.251438" style="stroke: #000000; stroke-width: 0.8"/>
      </g>
     </g>
     <g id="text_14">
      <!-- 0.00010 -->
      <g transform="translate(59.646875 283.050657)scale(0.1 -0.1)">
       <use xlink:href="#DejaVuSans-30"/>
       <use xlink:href="#DejaVuSans-2e" x="63.623047"/>
       <use xlink:href="#DejaVuSans-30" x="95.410156"/>
       <use xlink:href="#DejaVuSans-30" x="159.033203"/>
       <use xlink:href="#DejaVuSans-30" x="222.65625"/>
       <use xlink:href="#DejaVuSans-31" x="286.279297"/>
       <use xlink:href="#DejaVuSans-30" x="349.902344"/>
      </g>
     </g>
    </g>
    <g id="ytick_4">
     <g id="line2d_29">
      <path d="M 108 234.171792 
L 777.6 234.171792 
" clip-path="url(#p4d9c3339df)" style="fill: none; stroke: #b0b0b0; stroke-width: 0.8; stroke-linecap: square"/>
     </g>
     <g id="line2d_30">
      <g>
       <use xlink:href="#m0ca741ae61" x="108" y="234.171792" style="stroke: #000000; stroke-width: 0.8"/>
      </g>
     </g>
     <g id="text_15">
      <!-- 0.00015 -->
      <g transform="translate(59.646875 237.971011)scale(0.1 -0.1)">
       <use xlink:href="#DejaVuSans-30"/>
       <use xlink:href="#DejaVuSans-2e" x="63.623047"/>
       <use xlink:href="#DejaVuSans-30" x="95.410156"/>
       <use xlink:href="#DejaVuSans-30" x="159.033203"/>
       <use xlink:href="#DejaVuSans-30" x="222.65625"/>
       <use xlink:href="#DejaVuSans-31" x="286.279297"/>
       <use xlink:href="#DejaVuSans-35" x="349.902344"/>
      </g>
     </g>
    </g>
    <g id="ytick_5">
     <g id="line2d_31">
      <path d="M 108 189.092146 
L 777.6 189.092146 
" clip-path="url(#p4d9c3339df)" style="fill: none; stroke: #b0b0b0; stroke-width: 0.8; stroke-linecap: square"/>
     </g>
     <g id="line2d_32">
      <g>
       <use xlink:href="#m0ca741ae61" x="108" y="189.092146" style="stroke: #000000; stroke-width: 0.8"/>
      </g>
     </g>
     <g id="text_16">
      <!-- 0.00020 -->
      <g transform="translate(59.646875 192.891365)scale(0.1 -0.1)">
       <use xlink:href="#DejaVuSans-30"/>
       <use xlink:href="#DejaVuSans-2e" x="63.623047"/>
       <use xlink:href="#DejaVuSans-30" x="95.410156"/>
       <use xlink:href="#DejaVuSans-30" x="159.033203"/>
       <use xlink:href="#DejaVuSans-30" x="222.65625"/>
       <use xlink:href="#DejaVuSans-32" x="286.279297"/>
       <use xlink:href="#DejaVuSans-30" x="349.902344"/>
      </g>
     </g>
    </g>
    <g id="ytick_6">
     <g id="line2d_33">
      <path d="M 108 144.0125 
L 777.6 144.0125 
" clip-path="url(#p4d9c3339df)" style="fill: none; stroke: #b0b0b0; stroke-width: 0.8; stroke-linecap: square"/>
     </g>
     <g id="line2d_34">
      <g>
       <use xlink:href="#m0ca741ae61" x="108" y="144.0125" style="stroke: #000000; stroke-width: 0.8"/>
      </g>
     </g>
     <g id="text_17">
      <!-- 0.00025 -->
      <g transform="translate(59.646875 147.811719)scale(0.1 -0.1)">
       <use xlink:href="#DejaVuSans-30"/>
       <use xlink:href="#DejaVuSans-2e" x="63.623047"/>
       <use xlink:href="#DejaVuSans-30" x="95.410156"/>
       <use xlink:href="#DejaVuSans-30" x="159.033203"/>
       <use xlink:href="#DejaVuSans-30" x="222.65625"/>
       <use xlink:href="#DejaVuSans-32" x="286.279297"/>
       <use xlink:href="#DejaVuSans-35" x="349.902344"/>
      </g>
     </g>
    </g>
    <g id="ytick_7">
     <g id="line2d_35">
      <path d="M 108 98.932854 
L 777.6 98.932854 
" clip-path="url(#p4d9c3339df)" style="fill: none; stroke: #b0b0b0; stroke-width: 0.8; stroke-linecap: square"/>
     </g>
     <g id="line2d_36">
      <g>
       <use xlink:href="#m0ca741ae61" x="108" y="98.932854" style="stroke: #000000; stroke-width: 0.8"/>
      </g>
     </g>
     <g id="text_18">
      <!-- 0.00030 -->
      <g transform="translate(59.646875 102.732073)scale(0.1 -0.1)">
       <use xlink:href="#DejaVuSans-30"/>
       <use xlink:href="#DejaVuSans-2e" x="63.623047"/>
       <use xlink:href="#DejaVuSans-30" x="95.410156"/>
       <use xlink:href="#DejaVuSans-30" x="159.033203"/>
       <use xlink:href="#DejaVuSans-30" x="222.65625"/>
       <use xlink:href="#DejaVuSans-33" x="286.279297"/>
       <use xlink:href="#DejaVuSans-30" x="349.902344"/>
      </g>
     </g>
    </g>
    <g id="ytick_8">
     <g id="line2d_37">
      <path d="M 108 53.853208 
L 777.6 53.853208 
" clip-path="url(#p4d9c3339df)" style="fill: none; stroke: #b0b0b0; stroke-width: 0.8; stroke-linecap: square"/>
     </g>
     <g id="line2d_38">
      <g>
       <use xlink:href="#m0ca741ae61" x="108" y="53.853208" style="stroke: #000000; stroke-width: 0.8"/>
      </g>
     </g>
     <g id="text_19">
      <!-- 0.00035 -->
      <g transform="translate(59.646875 57.652427)scale(0.1 -0.1)">
       <use xlink:href="#DejaVuSans-30"/>
       <use xlink:href="#DejaVuSans-2e" x="63.623047"/>
       <use xlink:href="#DejaVuSans-30" x="95.410156"/>
       <use xlink:href="#DejaVuSans-30" x="159.033203"/>
       <use xlink:href="#DejaVuSans-30" x="222.65625"/>
       <use xlink:href="#DejaVuSans-33" x="286.279297"/>
       <use xlink:href="#DejaVuSans-35" x="349.902344"/>
      </g>
     </g>
    </g>
   </g>
   <g id="line2d_39">
    <path d="M 108 66.96 
L 125.001563 67.069659 
L 142.003125 67.398395 
L 159.004687 67.945483 
L 176.00625 68.709722 
L 193.007812 69.689434 
L 210.663281 70.932586 
L 228.31875 72.402857 
L 245.974219 74.096795 
L 263.629688 76.010437 
L 281.939062 78.222243 
L 300.248438 80.660017 
L 318.557813 83.317718 
L 337.521094 86.295199 
L 356.484375 89.493761 
L 376.101562 93.026404 
L 396.372656 96.905632 
L 417.297656 101.142072 
L 438.876563 105.744176 
L 461.109375 110.717925 
L 483.996094 116.066544 
L 508.190625 121.952234 
L 533.692969 128.388881 
L 561.157031 135.557244 
L 590.582813 143.471882 
L 623.278125 152.499859 
L 661.858594 163.393624 
L 712.863281 178.045607 
L 777.6 196.756009 
L 777.6 196.756009 
" clip-path="url(#p4d9c3339df)" style="fill: none; stroke: #1f77b4; stroke-width: 1.5; stroke-linecap: square"/>
   </g>
   <g id="line2d_40">
    <path d="M 108 66.96 
L 116.500781 67.069659 
L 125.001563 67.398395 
L 133.502344 67.945483 
L 142.003125 68.709722 
L 150.503906 69.689434 
L 159.004687 70.882473 
L 167.505469 72.286232 
L 176.660156 74.030113 
L 185.814844 76.010437 
L 194.969531 78.222243 
L 204.124219 80.660017 
L 213.278906 83.317718 
L 223.0875 86.40186 
L 232.896094 89.722292 
L 242.704688 93.269773 
L 253.167188 97.292975 
L 263.629688 101.550871 
L 274.746094 106.317404 
L 286.516406 111.618867 
L 298.286719 117.162465 
L 310.710938 123.253938 
L 324.442969 130.243905 
L 338.828906 137.820573 
L 354.522656 146.336602 
L 372.832031 156.535927 
L 395.064844 169.192415 
L 432.991406 191.093622 
L 465.686719 209.867468 
L 487.919531 222.376453 
L 506.882812 232.791823 
L 523.884375 241.882786 
L 540.232031 250.370237 
L 555.271875 257.935497 
L 570.311719 265.249311 
L 584.697656 271.996011 
L 598.429688 278.198756 
L 612.161719 284.162172 
L 625.89375 289.880637 
L 639.625781 295.350243 
L 652.703906 300.325922 
L 665.782031 305.073113 
L 678.860156 309.592303 
L 691.938281 313.885063 
L 705.016406 317.953958 
L 718.748438 321.989171 
L 732.480469 325.786383 
L 746.2125 329.351442 
L 759.944531 332.690953 
L 774.330469 335.955483 
L 777.6 336.664926 
L 777.6 336.664926 
" clip-path="url(#p4d9c3339df)" style="fill: none; stroke: #ff7f0e; stroke-width: 1.5; stroke-linecap: square"/>
   </g>
   <g id="line2d_41">
    <path d="M 108 66.96 
L 113.885156 67.078255 
L 119.770313 67.432738 
L 125.655469 68.02261 
L 131.540625 68.846471 
L 137.425781 69.902371 
L 143.310937 71.187819 
L 149.196094 72.699786 
L 155.08125 74.434724 
L 160.966406 76.388576 
L 166.851562 78.556797 
L 173.390625 81.211226 
L 179.929688 84.116552 
L 186.46875 87.264576 
L 193.007812 90.646481 
L 200.200781 94.625486 
L 207.39375 98.862873 
L 214.586719 103.344702 
L 222.433594 108.49562 
L 230.934375 114.361676 
L 239.435156 120.499871 
L 248.589844 127.384129 
L 258.398438 135.037783 
L 269.514844 144.007139 
L 281.939062 154.330155 
L 296.978906 167.130162 
L 321.173437 188.068455 
L 346.675781 210.053319 
L 362.369531 223.284509 
L 375.447656 234.030103 
L 387.217969 243.429752 
L 398.334375 252.035392 
L 408.796875 259.868347 
L 419.259375 267.422988 
L 429.067969 274.238324 
L 438.876563 280.78418 
L 448.685156 287.052307 
L 457.839844 292.646727 
L 466.994531 297.99095 
L 476.149219 303.083469 
L 485.303906 307.924248 
L 494.458594 312.514614 
L 503.613281 316.857145 
L 512.767969 320.955553 
L 521.922656 324.814566 
L 531.077344 328.439817 
L 540.232031 331.837724 
L 550.040625 335.234125 
L 559.849219 338.387134 
L 569.657813 341.306788 
L 579.466406 344.003589 
L 589.928906 346.646747 
L 600.391406 349.062072 
L 611.507812 351.393844 
L 622.624219 353.499874 
L 634.394531 355.501523 
L 646.81875 357.379828 
L 659.896875 359.11962 
L 673.628906 360.709816 
L 688.014844 362.143549 
L 703.054688 363.418138 
L 719.402344 364.577139 
L 737.057813 365.602175 
L 756.675 366.510228 
L 777.6 367.260379 
L 777.6 367.260379 
" clip-path="url(#p4d9c3339df)" style="fill: none; stroke: #2ca02c; stroke-width: 1.5; stroke-linecap: square"/>
   </g>
   <g id="line2d_42">
    <path d="M 108 66.96 
L 112.577344 67.087175 
L 117.154687 67.468374 
L 121.732031 68.102626 
L 126.309375 68.988313 
L 130.886719 70.123182 
L 135.464063 71.504352 
L 140.041406 73.128329 
L 144.61875 74.991016 
L 149.196094 77.087736 
L 153.773438 79.413249 
L 159.004687 82.343694 
L 164.235938 85.55595 
L 169.467187 89.039738 
L 174.698438 92.784003 
L 180.583594 97.292975 
L 186.46875 102.098964 
L 192.353906 107.183307 
L 198.892969 113.135338 
L 205.432031 119.379283 
L 212.625 126.550745 
L 220.471875 134.692083 
L 228.972656 143.828621 
L 238.78125 154.697089 
L 251.205469 168.817121 
L 277.361719 199.015511 
L 292.401563 216.156731 
L 304.171875 229.230693 
L 313.980469 239.807614 
L 323.135156 249.365825 
L 331.635938 257.935497 
L 340.136719 266.183933 
L 347.983594 273.494198 
L 355.830469 280.499098 
L 363.677344 287.188395 
L 370.870313 293.036781 
L 378.063281 298.610415 
L 385.25625 303.907728 
L 392.449219 308.928909 
L 399.642188 313.675767 
L 406.835156 318.151585 
L 414.028125 322.360979 
L 421.221094 326.309744 
L 428.414062 330.004715 
L 435.607031 333.453616 
L 442.8 336.664926 
L 449.992969 339.647742 
L 457.839844 342.652402 
L 465.686719 345.409492 
L 473.533594 347.932304 
L 481.380469 350.234321 
L 489.88125 352.4947 
L 498.382031 354.528916 
L 507.536719 356.485951 
L 516.691406 358.220612 
L 526.5 359.85477 
L 536.9625 361.367413 
L 548.078906 362.7428 
L 559.849219 363.970762 
L 572.273438 365.04671 
L 586.005469 366.012623 
L 601.045313 366.847447 
L 618.046875 367.565446 
L 637.664062 368.164242 
L 660.550781 368.635828 
L 689.322656 368.995734 
L 727.903125 369.239312 
L 777.6 369.36 
L 777.6 369.36 
" clip-path="url(#p4d9c3339df)" style="fill: none; stroke: #d62728; stroke-width: 1.5; stroke-linecap: square"/>
   </g>
   <g id="patch_3">
    <path d="M 108 384.48 
L 108 51.84 
" style="fill: none; stroke: #000000; stroke-width: 0.8; stroke-linejoin: miter; stroke-linecap: square"/>
   </g>
   <g id="patch_4">
    <path d="M 777.6 384.48 
L 777.6 51.84 
" style="fill: none; stroke: #000000; stroke-width: 0.8; stroke-linejoin: miter; stroke-linecap: square"/>
   </g>
   <g id="patch_5">
    <path d="M 108 384.48 
L 777.6 384.48 
" style="fill: none; stroke: #000000; stroke-width: 0.8; stroke-linejoin: miter; stroke-linecap: square"/>
   </g>
   <g id="patch_6">
    <path d="M 108 51.84 
L 777.6 51.84 
" style="fill: none; stroke: #000000; stroke-width: 0.8; stroke-linejoin: miter; stroke-linecap: square"/>
   </g>
   <g id="legend_1">
    <g id="patch_7">
     <path d="M 115 379.48 
L 240.4 379.48 
Q 242.4 379.48 242.4 377.48 
L 242.4 319.7675 
Q 242.4 317.7675 240.4 317.7675 
L 115 317.7675 
Q 113 317.7675 113 319.7675 
L 113 377.48 
Q 113 379.48 115 379.48 
z
" style="fill: #ffffff; opacity: 0.8; stroke: #cccccc; stroke-linejoin: miter"/>
    </g>
    <g id="line2d_43">
     <path d="M 117 325.865937 
L 127 325.865937 
L 137 325.865937 
" style="fill: none; stroke: #1f77b4; stroke-width: 1.5; stroke-linecap: square"/>
    </g>
    <g id="text_20">
     <!-- $f(x; h=4, a=0.25)$ -->
     <g transform="translate(145 329.365937)scale(0.1 -0.1)">
      <defs>
       <path id="DejaVuSans-Oblique-66" d="M 3059 4863 
L 2969 4384 
L 2419 4384 
Q 2106 4384 1964 4261 
Q 1822 4138 1753 3809 
L 1691 3500 
L 2638 3500 
L 2553 3053 
L 1606 3053 
L 1013 0 
L 434 0 
L 1031 3053 
L 481 3053 
L 563 3500 
L 1113 3500 
L 1159 3744 
Q 1278 4363 1576 4613 
Q 1875 4863 2516 4863 
L 3059 4863 
z
" transform="scale(0.015625)"/>
       <path id="DejaVuSans-28" d="M 1984 4856 
Q 1566 4138 1362 3434 
Q 1159 2731 1159 2009 
Q 1159 1288 1364 580 
Q 1569 -128 1984 -844 
L 1484 -844 
Q 1016 -109 783 600 
Q 550 1309 550 2009 
Q 550 2706 781 3412 
Q 1013 4119 1484 4856 
L 1984 4856 
z
" transform="scale(0.015625)"/>
       <path id="DejaVuSans-Oblique-78" d="M 3841 3500 
L 2234 1784 
L 3219 0 
L 2559 0 
L 1819 1388 
L 531 0 
L -166 0 
L 1556 1844 
L 641 3500 
L 1300 3500 
L 1972 2234 
L 3144 3500 
L 3841 3500 
z
" transform="scale(0.015625)"/>
       <path id="DejaVuSans-3b" d="M 750 3309 
L 1409 3309 
L 1409 2516 
L 750 2516 
L 750 3309 
z
M 750 794 
L 1409 794 
L 1409 256 
L 897 -744 
L 494 -744 
L 750 256 
L 750 794 
z
" transform="scale(0.015625)"/>
       <path id="DejaVuSans-Oblique-68" d="M 3566 2113 
L 3156 0 
L 2578 0 
L 2988 2091 
Q 3016 2238 3031 2350 
Q 3047 2463 3047 2528 
Q 3047 2791 2881 2937 
Q 2716 3084 2419 3084 
Q 1956 3084 1617 2771 
Q 1278 2459 1178 1941 
L 800 0 
L 225 0 
L 1172 4863 
L 1747 4863 
L 1375 2950 
Q 1594 3244 1934 3414 
Q 2275 3584 2650 3584 
Q 3113 3584 3367 3334 
Q 3622 3084 3622 2631 
Q 3622 2519 3608 2391 
Q 3594 2263 3566 2113 
z
" transform="scale(0.015625)"/>
       <path id="DejaVuSans-3d" d="M 678 2906 
L 4684 2906 
L 4684 2381 
L 678 2381 
L 678 2906 
z
M 678 1631 
L 4684 1631 
L 4684 1100 
L 678 1100 
L 678 1631 
z
" transform="scale(0.015625)"/>
       <path id="DejaVuSans-2c" d="M 750 794 
L 1409 794 
L 1409 256 
L 897 -744 
L 494 -744 
L 750 256 
L 750 794 
z
" transform="scale(0.015625)"/>
       <path id="DejaVuSans-Oblique-61" d="M 3438 1997 
L 3047 0 
L 2472 0 
L 2578 531 
Q 2325 219 2001 64 
Q 1678 -91 1281 -91 
Q 834 -91 548 182 
Q 263 456 263 884 
Q 263 1497 752 1853 
Q 1241 2209 2100 2209 
L 2900 2209 
L 2931 2363 
Q 2938 2388 2941 2417 
Q 2944 2447 2944 2509 
Q 2944 2788 2717 2942 
Q 2491 3097 2081 3097 
Q 1800 3097 1504 3025 
Q 1209 2953 897 2809 
L 997 3341 
Q 1322 3463 1633 3523 
Q 1944 3584 2234 3584 
Q 2853 3584 3176 3315 
Q 3500 3047 3500 2534 
Q 3500 2431 3484 2292 
Q 3469 2153 3438 1997 
z
M 2816 1759 
L 2241 1759 
Q 1534 1759 1195 1570 
Q 856 1381 856 984 
Q 856 709 1029 553 
Q 1203 397 1509 397 
Q 1978 397 2328 733 
Q 2678 1069 2791 1631 
L 2816 1759 
z
" transform="scale(0.015625)"/>
       <path id="DejaVuSans-29" d="M 513 4856 
L 1013 4856 
Q 1481 4119 1714 3412 
Q 1947 2706 1947 2009 
Q 1947 1309 1714 600 
Q 1481 -109 1013 -844 
L 513 -844 
Q 928 -128 1133 580 
Q 1338 1288 1338 2009 
Q 1338 2731 1133 3434 
Q 928 4138 513 4856 
z
" transform="scale(0.015625)"/>
      </defs>
      <use xlink:href="#DejaVuSans-Oblique-66" transform="translate(0 0.015625)"/>
      <use xlink:href="#DejaVuSans-28" transform="translate(35.205078 0.015625)"/>
      <use xlink:href="#DejaVuSans-Oblique-78" transform="translate(74.21875 0.015625)"/>
      <use xlink:href="#DejaVuSans-3b" transform="translate(133.398438 0.015625)"/>
      <use xlink:href="#DejaVuSans-Oblique-68" transform="translate(186.572266 0.015625)"/>
      <use xlink:href="#DejaVuSans-3d" transform="translate(269.433594 0.015625)"/>
      <use xlink:href="#DejaVuSans-34" transform="translate(372.705078 0.015625)"/>
      <use xlink:href="#DejaVuSans-2c" transform="translate(436.328125 0.015625)"/>
      <use xlink:href="#DejaVuSans-Oblique-61" transform="translate(487.597656 0.015625)"/>
      <use xlink:href="#DejaVuSans-3d" transform="translate(568.359375 0.015625)"/>
      <use xlink:href="#DejaVuSans-30" transform="translate(671.630859 0.015625)"/>
      <use xlink:href="#DejaVuSans-2e" transform="translate(735.253906 0.015625)"/>
      <use xlink:href="#DejaVuSans-32" transform="translate(761.541016 0.015625)"/>
      <use xlink:href="#DejaVuSans-35" transform="translate(825.164062 0.015625)"/>
      <use xlink:href="#DejaVuSans-29" transform="translate(888.787109 0.015625)"/>
     </g>
    </g>
    <g id="line2d_44">
     <path d="M 117 340.544062 
L 127 340.544062 
L 137 340.544062 
" style="fill: none; stroke: #ff7f0e; stroke-width: 1.5; stroke-linecap: square"/>
    </g>
    <g id="text_21">
     <!-- $f(x; h=4, a=0.50)$ -->
     <g transform="translate(145 344.044062)scale(0.1 -0.1)">
      <use xlink:href="#DejaVuSans-Oblique-66" transform="translate(0 0.015625)"/>
      <use xlink:href="#DejaVuSans-28" transform="translate(35.205078 0.015625)"/>
      <use xlink:href="#DejaVuSans-Oblique-78" transform="translate(74.21875 0.015625)"/>
      <use xlink:href="#DejaVuSans-3b" transform="translate(133.398438 0.015625)"/>
      <use xlink:href="#DejaVuSans-Oblique-68" transform="translate(186.572266 0.015625)"/>
      <use xlink:href="#DejaVuSans-3d" transform="translate(269.433594 0.015625)"/>
      <use xlink:href="#DejaVuSans-34" transform="translate(372.705078 0.015625)"/>
      <use xlink:href="#DejaVuSans-2c" transform="translate(436.328125 0.015625)"/>
      <use xlink:href="#DejaVuSans-Oblique-61" transform="translate(487.597656 0.015625)"/>
      <use xlink:href="#DejaVuSans-3d" transform="translate(568.359375 0.015625)"/>
      <use xlink:href="#DejaVuSans-30" transform="translate(671.630859 0.015625)"/>
      <use xlink:href="#DejaVuSans-2e" transform="translate(735.253906 0.015625)"/>
      <use xlink:href="#DejaVuSans-35" transform="translate(767.041016 0.015625)"/>
      <use xlink:href="#DejaVuSans-30" transform="translate(830.664062 0.015625)"/>
      <use xlink:href="#DejaVuSans-29" transform="translate(894.287109 0.015625)"/>
     </g>
    </g>
    <g id="line2d_45">
     <path d="M 117 355.222188 
L 127 355.222188 
L 137 355.222188 
" style="fill: none; stroke: #2ca02c; stroke-width: 1.5; stroke-linecap: square"/>
    </g>
    <g id="text_22">
     <!-- $f(x; h=4, a=0.75)$ -->
     <g transform="translate(145 358.722188)scale(0.1 -0.1)">
      <use xlink:href="#DejaVuSans-Oblique-66" transform="translate(0 0.015625)"/>
      <use xlink:href="#DejaVuSans-28" transform="translate(35.205078 0.015625)"/>
      <use xlink:href="#DejaVuSans-Oblique-78" transform="translate(74.21875 0.015625)"/>
      <use xlink:href="#DejaVuSans-3b" transform="translate(133.398438 0.015625)"/>
      <use xlink:href="#DejaVuSans-Oblique-68" transform="translate(186.572266 0.015625)"/>
      <use xlink:href="#DejaVuSans-3d" transform="translate(269.433594 0.015625)"/>
      <use xlink:href="#DejaVuSans-34" transform="translate(372.705078 0.015625)"/>
      <use xlink:href="#DejaVuSans-2c" transform="translate(436.328125 0.015625)"/>
      <use xlink:href="#DejaVuSans-Oblique-61" transform="translate(487.597656 0.015625)"/>
      <use xlink:href="#DejaVuSans-3d" transform="translate(568.359375 0.015625)"/>
      <use xlink:href="#DejaVuSans-30" transform="translate(671.630859 0.015625)"/>
      <use xlink:href="#DejaVuSans-2e" transform="translate(735.253906 0.015625)"/>
      <use xlink:href="#DejaVuSans-37" transform="translate(759.291016 0.015625)"/>
      <use xlink:href="#DejaVuSans-35" transform="translate(822.914062 0.015625)"/>
      <use xlink:href="#DejaVuSans-29" transform="translate(886.537109 0.015625)"/>
     </g>
    </g>
    <g id="line2d_46">
     <path d="M 117 369.900312 
L 127 369.900312 
L 137 369.900312 
" style="fill: none; stroke: #d62728; stroke-width: 1.5; stroke-linecap: square"/>
    </g>
    <g id="text_23">
     <!-- $f(x; h=4, a=1.00)$ -->
     <g transform="translate(145 373.400312)scale(0.1 -0.1)">
      <use xlink:href="#DejaVuSans-Oblique-66" transform="translate(0 0.015625)"/>
      <use xlink:href="#DejaVuSans-28" transform="translate(35.205078 0.015625)"/>
      <use xlink:href="#DejaVuSans-Oblique-78" transform="translate(74.21875 0.015625)"/>
      <use xlink:href="#DejaVuSans-3b" transform="translate(133.398438 0.015625)"/>
      <use xlink:href="#DejaVuSans-Oblique-68" transform="translate(186.572266 0.015625)"/>
      <use xlink:href="#DejaVuSans-3d" transform="translate(269.433594 0.015625)"/>
      <use xlink:href="#DejaVuSans-34" transform="translate(372.705078 0.015625)"/>
      <use xlink:href="#DejaVuSans-2c" transform="translate(436.328125 0.015625)"/>
      <use xlink:href="#DejaVuSans-Oblique-61" transform="translate(487.597656 0.015625)"/>
      <use xlink:href="#DejaVuSans-3d" transform="translate(568.359375 0.015625)"/>
      <use xlink:href="#DejaVuSans-31" transform="translate(671.630859 0.015625)"/>
      <use xlink:href="#DejaVuSans-2e" transform="translate(735.253906 0.015625)"/>
      <use xlink:href="#DejaVuSans-30" transform="translate(767.041016 0.015625)"/>
      <use xlink:href="#DejaVuSans-30" transform="translate(830.664062 0.015625)"/>
      <use xlink:href="#DejaVuSans-29" transform="translate(894.287109 0.015625)"/>
     </g>
    </g>
   </g>
  </g>
 </g>
 <defs>
  <clipPath id="p4d9c3339df">
   <rect x="108" y="51.84" width="669.6" height="332.64"/>
  </clipPath>
 </defs>
</svg>
