<?xml version="1.0" encoding="utf-8" standalone="no"?>
<!DOCTYPE svg PUBLIC "-//W3C//DTD SVG 1.1//EN"
  "http://www.w3.org/Graphics/SVG/1.1/DTD/svg11.dtd">
<svg xmlns:xlink="http://www.w3.org/1999/xlink" width="864pt" height="432pt" viewBox="0 0 864 432" xmlns="http://www.w3.org/2000/svg" version="1.1">
 <metadata>
  <rdf:RDF xmlns:dc="http://purl.org/dc/elements/1.1/" xmlns:cc="http://creativecommons.org/ns#" xmlns:rdf="http://www.w3.org/1999/02/22-rdf-syntax-ns#">
   <cc:Work>
    <dc:type rdf:resource="http://purl.org/dc/dcmitype/StillImage"/>
    <dc:date>2022-01-18T23:22:16.496452</dc:date>
    <dc:format>image/svg+xml</dc:format>
    <dc:creator>
     <cc:Agent>
      <dc:title>Matplotlib v3.5.1, https://matplotlib.org/</dc:title>
     </cc:Agent>
    </dc:creator>
   </cc:Work>
  </rdf:RDF>
 </metadata>
 <defs>
  <style type="text/css">*{stroke-linejoin: round; stroke-linecap: butt}</style>
 </defs>
 <g id="figure_1">
  <g id="patch_1">
   <path d="M 0 432 
L 864 432 
L 864 0 
L 0 0 
z
" style="fill: #ffffff"/>
  </g>
  <g id="axes_1">
   <g id="patch_2">
    <path d="M 108 384.48 
L 777.6 384.48 
L 777.6 51.84 
L 108 51.84 
z
" style="fill: #ffffff"/>
   </g>
   <g id="matplotlib.axis_1">
    <g id="xtick_1">
     <g id="line2d_1">
      <path d="M 108 384.48 
L 108 51.84 
" clip-path="url(#p1ce7e568eb)" style="fill: none; stroke: #b0b0b0; stroke-width: 0.8; stroke-linecap: square"/>
     </g>
     <g id="line2d_2">
      <defs>
       <path id="m6fd0bd3fc9" d="M 0 0 
L 0 3.5 
" style="stroke: #000000; stroke-width: 0.8"/>
      </defs>
      <g>
       <use xlink:href="#m6fd0bd3fc9" x="108" y="384.48" style="stroke: #000000; stroke-width: 0.8"/>
      </g>
     </g>
     <g id="text_1">
      <!-- 0 -->
      <g transform="translate(104.81875 399.078438)scale(0.1 -0.1)">
       <defs>
        <path id="DejaVuSans-30" d="M 2034 4250 
Q 1547 4250 1301 3770 
Q 1056 3291 1056 2328 
Q 1056 1369 1301 889 
Q 1547 409 2034 409 
Q 2525 409 2770 889 
Q 3016 1369 3016 2328 
Q 3016 3291 2770 3770 
Q 2525 4250 2034 4250 
z
M 2034 4750 
Q 2819 4750 3233 4129 
Q 3647 3509 3647 2328 
Q 3647 1150 3233 529 
Q 2819 -91 2034 -91 
Q 1250 -91 836 529 
Q 422 1150 422 2328 
Q 422 3509 836 4129 
Q 1250 4750 2034 4750 
z
" transform="scale(0.015625)"/>
       </defs>
       <use xlink:href="#DejaVuSans-30"/>
      </g>
     </g>
    </g>
    <g id="xtick_2">
     <g id="line2d_3">
      <path d="M 135.9 384.48 
L 135.9 51.84 
" clip-path="url(#p1ce7e568eb)" style="fill: none; stroke: #b0b0b0; stroke-width: 0.8; stroke-linecap: square"/>
     </g>
     <g id="line2d_4">
      <g>
       <use xlink:href="#m6fd0bd3fc9" x="135.9" y="384.48" style="stroke: #000000; stroke-width: 0.8"/>
      </g>
     </g>
     <g id="text_2">
      <!-- 1 -->
      <g transform="translate(132.71875 399.078438)scale(0.1 -0.1)">
       <defs>
        <path id="DejaVuSans-31" d="M 794 531 
L 1825 531 
L 1825 4091 
L 703 3866 
L 703 4441 
L 1819 4666 
L 2450 4666 
L 2450 531 
L 3481 531 
L 3481 0 
L 794 0 
L 794 531 
z
" transform="scale(0.015625)"/>
       </defs>
       <use xlink:href="#DejaVuSans-31"/>
      </g>
     </g>
    </g>
    <g id="xtick_3">
     <g id="line2d_5">
      <path d="M 163.8 384.48 
L 163.8 51.84 
" clip-path="url(#p1ce7e568eb)" style="fill: none; stroke: #b0b0b0; stroke-width: 0.8; stroke-linecap: square"/>
     </g>
     <g id="line2d_6">
      <g>
       <use xlink:href="#m6fd0bd3fc9" x="163.8" y="384.48" style="stroke: #000000; stroke-width: 0.8"/>
      </g>
     </g>
     <g id="text_3">
      <!-- 2 -->
      <g transform="translate(160.61875 399.078438)scale(0.1 -0.1)">
       <defs>
        <path id="DejaVuSans-32" d="M 1228 531 
L 3431 531 
L 3431 0 
L 469 0 
L 469 531 
Q 828 903 1448 1529 
Q 2069 2156 2228 2338 
Q 2531 2678 2651 2914 
Q 2772 3150 2772 3378 
Q 2772 3750 2511 3984 
Q 2250 4219 1831 4219 
Q 1534 4219 1204 4116 
Q 875 4013 500 3803 
L 500 4441 
Q 881 4594 1212 4672 
Q 1544 4750 1819 4750 
Q 2544 4750 2975 4387 
Q 3406 4025 3406 3419 
Q 3406 3131 3298 2873 
Q 3191 2616 2906 2266 
Q 2828 2175 2409 1742 
Q 1991 1309 1228 531 
z
" transform="scale(0.015625)"/>
       </defs>
       <use xlink:href="#DejaVuSans-32"/>
      </g>
     </g>
    </g>
    <g id="xtick_4">
     <g id="line2d_7">
      <path d="M 191.7 384.48 
L 191.7 51.84 
" clip-path="url(#p1ce7e568eb)" style="fill: none; stroke: #b0b0b0; stroke-width: 0.8; stroke-linecap: square"/>
     </g>
     <g id="line2d_8">
      <g>
       <use xlink:href="#m6fd0bd3fc9" x="191.7" y="384.48" style="stroke: #000000; stroke-width: 0.8"/>
      </g>
     </g>
     <g id="text_4">
      <!-- 3 -->
      <g transform="translate(188.51875 399.078438)scale(0.1 -0.1)">
       <defs>
        <path id="DejaVuSans-33" d="M 2597 2516 
Q 3050 2419 3304 2112 
Q 3559 1806 3559 1356 
Q 3559 666 3084 287 
Q 2609 -91 1734 -91 
Q 1441 -91 1130 -33 
Q 819 25 488 141 
L 488 750 
Q 750 597 1062 519 
Q 1375 441 1716 441 
Q 2309 441 2620 675 
Q 2931 909 2931 1356 
Q 2931 1769 2642 2001 
Q 2353 2234 1838 2234 
L 1294 2234 
L 1294 2753 
L 1863 2753 
Q 2328 2753 2575 2939 
Q 2822 3125 2822 3475 
Q 2822 3834 2567 4026 
Q 2313 4219 1838 4219 
Q 1578 4219 1281 4162 
Q 984 4106 628 3988 
L 628 4550 
Q 988 4650 1302 4700 
Q 1616 4750 1894 4750 
Q 2613 4750 3031 4423 
Q 3450 4097 3450 3541 
Q 3450 3153 3228 2886 
Q 3006 2619 2597 2516 
z
" transform="scale(0.015625)"/>
       </defs>
       <use xlink:href="#DejaVuSans-33"/>
      </g>
     </g>
    </g>
    <g id="xtick_5">
     <g id="line2d_9">
      <path d="M 219.6 384.48 
L 219.6 51.84 
" clip-path="url(#p1ce7e568eb)" style="fill: none; stroke: #b0b0b0; stroke-width: 0.8; stroke-linecap: square"/>
     </g>
     <g id="line2d_10">
      <g>
       <use xlink:href="#m6fd0bd3fc9" x="219.6" y="384.48" style="stroke: #000000; stroke-width: 0.8"/>
      </g>
     </g>
     <g id="text_5">
      <!-- 4 -->
      <g transform="translate(216.41875 399.078438)scale(0.1 -0.1)">
       <defs>
        <path id="DejaVuSans-34" d="M 2419 4116 
L 825 1625 
L 2419 1625 
L 2419 4116 
z
M 2253 4666 
L 3047 4666 
L 3047 1625 
L 3713 1625 
L 3713 1100 
L 3047 1100 
L 3047 0 
L 2419 0 
L 2419 1100 
L 313 1100 
L 313 1709 
L 2253 4666 
z
" transform="scale(0.015625)"/>
       </defs>
       <use xlink:href="#DejaVuSans-34"/>
      </g>
     </g>
    </g>
    <g id="xtick_6">
     <g id="line2d_11">
      <path d="M 247.5 384.48 
L 247.5 51.84 
" clip-path="url(#p1ce7e568eb)" style="fill: none; stroke: #b0b0b0; stroke-width: 0.8; stroke-linecap: square"/>
     </g>
     <g id="line2d_12">
      <g>
       <use xlink:href="#m6fd0bd3fc9" x="247.5" y="384.48" style="stroke: #000000; stroke-width: 0.8"/>
      </g>
     </g>
     <g id="text_6">
      <!-- 5 -->
      <g transform="translate(244.31875 399.078438)scale(0.1 -0.1)">
       <defs>
        <path id="DejaVuSans-35" d="M 691 4666 
L 3169 4666 
L 3169 4134 
L 1269 4134 
L 1269 2991 
Q 1406 3038 1543 3061 
Q 1681 3084 1819 3084 
Q 2600 3084 3056 2656 
Q 3513 2228 3513 1497 
Q 3513 744 3044 326 
Q 2575 -91 1722 -91 
Q 1428 -91 1123 -41 
Q 819 9 494 109 
L 494 744 
Q 775 591 1075 516 
Q 1375 441 1709 441 
Q 2250 441 2565 725 
Q 2881 1009 2881 1497 
Q 2881 1984 2565 2268 
Q 2250 2553 1709 2553 
Q 1456 2553 1204 2497 
Q 953 2441 691 2322 
L 691 4666 
z
" transform="scale(0.015625)"/>
       </defs>
       <use xlink:href="#DejaVuSans-35"/>
      </g>
     </g>
    </g>
    <g id="xtick_7">
     <g id="line2d_13">
      <path d="M 275.4 384.48 
L 275.4 51.84 
" clip-path="url(#p1ce7e568eb)" style="fill: none; stroke: #b0b0b0; stroke-width: 0.8; stroke-linecap: square"/>
     </g>
     <g id="line2d_14">
      <g>
       <use xlink:href="#m6fd0bd3fc9" x="275.4" y="384.48" style="stroke: #000000; stroke-width: 0.8"/>
      </g>
     </g>
     <g id="text_7">
      <!-- 6 -->
      <g transform="translate(272.21875 399.078438)scale(0.1 -0.1)">
       <defs>
        <path id="DejaVuSans-36" d="M 2113 2584 
Q 1688 2584 1439 2293 
Q 1191 2003 1191 1497 
Q 1191 994 1439 701 
Q 1688 409 2113 409 
Q 2538 409 2786 701 
Q 3034 994 3034 1497 
Q 3034 2003 2786 2293 
Q 2538 2584 2113 2584 
z
M 3366 4563 
L 3366 3988 
Q 3128 4100 2886 4159 
Q 2644 4219 2406 4219 
Q 1781 4219 1451 3797 
Q 1122 3375 1075 2522 
Q 1259 2794 1537 2939 
Q 1816 3084 2150 3084 
Q 2853 3084 3261 2657 
Q 3669 2231 3669 1497 
Q 3669 778 3244 343 
Q 2819 -91 2113 -91 
Q 1303 -91 875 529 
Q 447 1150 447 2328 
Q 447 3434 972 4092 
Q 1497 4750 2381 4750 
Q 2619 4750 2861 4703 
Q 3103 4656 3366 4563 
z
" transform="scale(0.015625)"/>
       </defs>
       <use xlink:href="#DejaVuSans-36"/>
      </g>
     </g>
    </g>
    <g id="xtick_8">
     <g id="line2d_15">
      <path d="M 303.3 384.48 
L 303.3 51.84 
" clip-path="url(#p1ce7e568eb)" style="fill: none; stroke: #b0b0b0; stroke-width: 0.8; stroke-linecap: square"/>
     </g>
     <g id="line2d_16">
      <g>
       <use xlink:href="#m6fd0bd3fc9" x="303.3" y="384.48" style="stroke: #000000; stroke-width: 0.8"/>
      </g>
     </g>
     <g id="text_8">
      <!-- 7 -->
      <g transform="translate(300.11875 399.078438)scale(0.1 -0.1)">
       <defs>
        <path id="DejaVuSans-37" d="M 525 4666 
L 3525 4666 
L 3525 4397 
L 1831 0 
L 1172 0 
L 2766 4134 
L 525 4134 
L 525 4666 
z
" transform="scale(0.015625)"/>
       </defs>
       <use xlink:href="#DejaVuSans-37"/>
      </g>
     </g>
    </g>
    <g id="xtick_9">
     <g id="line2d_17">
      <path d="M 331.2 384.48 
L 331.2 51.84 
" clip-path="url(#p1ce7e568eb)" style="fill: none; stroke: #b0b0b0; stroke-width: 0.8; stroke-linecap: square"/>
     </g>
     <g id="line2d_18">
      <g>
       <use xlink:href="#m6fd0bd3fc9" x="331.2" y="384.48" style="stroke: #000000; stroke-width: 0.8"/>
      </g>
     </g>
     <g id="text_9">
      <!-- 8 -->
      <g transform="translate(328.01875 399.078438)scale(0.1 -0.1)">
       <defs>
        <path id="DejaVuSans-38" d="M 2034 2216 
Q 1584 2216 1326 1975 
Q 1069 1734 1069 1313 
Q 1069 891 1326 650 
Q 1584 409 2034 409 
Q 2484 409 2743 651 
Q 3003 894 3003 1313 
Q 3003 1734 2745 1975 
Q 2488 2216 2034 2216 
z
M 1403 2484 
Q 997 2584 770 2862 
Q 544 3141 544 3541 
Q 544 4100 942 4425 
Q 1341 4750 2034 4750 
Q 2731 4750 3128 4425 
Q 3525 4100 3525 3541 
Q 3525 3141 3298 2862 
Q 3072 2584 2669 2484 
Q 3125 2378 3379 2068 
Q 3634 1759 3634 1313 
Q 3634 634 3220 271 
Q 2806 -91 2034 -91 
Q 1263 -91 848 271 
Q 434 634 434 1313 
Q 434 1759 690 2068 
Q 947 2378 1403 2484 
z
M 1172 3481 
Q 1172 3119 1398 2916 
Q 1625 2713 2034 2713 
Q 2441 2713 2670 2916 
Q 2900 3119 2900 3481 
Q 2900 3844 2670 4047 
Q 2441 4250 2034 4250 
Q 1625 4250 1398 4047 
Q 1172 3844 1172 3481 
z
" transform="scale(0.015625)"/>
       </defs>
       <use xlink:href="#DejaVuSans-38"/>
      </g>
     </g>
    </g>
    <g id="xtick_10">
     <g id="line2d_19">
      <path d="M 359.1 384.48 
L 359.1 51.84 
" clip-path="url(#p1ce7e568eb)" style="fill: none; stroke: #b0b0b0; stroke-width: 0.8; stroke-linecap: square"/>
     </g>
     <g id="line2d_20">
      <g>
       <use xlink:href="#m6fd0bd3fc9" x="359.1" y="384.48" style="stroke: #000000; stroke-width: 0.8"/>
      </g>
     </g>
     <g id="text_10">
      <!-- 9 -->
      <g transform="translate(355.91875 399.078438)scale(0.1 -0.1)">
       <defs>
        <path id="DejaVuSans-39" d="M 703 97 
L 703 672 
Q 941 559 1184 500 
Q 1428 441 1663 441 
Q 2288 441 2617 861 
Q 2947 1281 2994 2138 
Q 2813 1869 2534 1725 
Q 2256 1581 1919 1581 
Q 1219 1581 811 2004 
Q 403 2428 403 3163 
Q 403 3881 828 4315 
Q 1253 4750 1959 4750 
Q 2769 4750 3195 4129 
Q 3622 3509 3622 2328 
Q 3622 1225 3098 567 
Q 2575 -91 1691 -91 
Q 1453 -91 1209 -44 
Q 966 3 703 97 
z
M 1959 2075 
Q 2384 2075 2632 2365 
Q 2881 2656 2881 3163 
Q 2881 3666 2632 3958 
Q 2384 4250 1959 4250 
Q 1534 4250 1286 3958 
Q 1038 3666 1038 3163 
Q 1038 2656 1286 2365 
Q 1534 2075 1959 2075 
z
" transform="scale(0.015625)"/>
       </defs>
       <use xlink:href="#DejaVuSans-39"/>
      </g>
     </g>
    </g>
    <g id="xtick_11">
     <g id="line2d_21">
      <path d="M 387 384.48 
L 387 51.84 
" clip-path="url(#p1ce7e568eb)" style="fill: none; stroke: #b0b0b0; stroke-width: 0.8; stroke-linecap: square"/>
     </g>
     <g id="line2d_22">
      <g>
       <use xlink:href="#m6fd0bd3fc9" x="387" y="384.48" style="stroke: #000000; stroke-width: 0.8"/>
      </g>
     </g>
     <g id="text_11">
      <!-- 10 -->
      <g transform="translate(380.6375 399.078438)scale(0.1 -0.1)">
       <use xlink:href="#DejaVuSans-31"/>
       <use xlink:href="#DejaVuSans-30" x="63.623047"/>
      </g>
     </g>
    </g>
    <g id="xtick_12">
     <g id="line2d_23">
      <path d="M 414.9 384.48 
L 414.9 51.84 
" clip-path="url(#p1ce7e568eb)" style="fill: none; stroke: #b0b0b0; stroke-width: 0.8; stroke-linecap: square"/>
     </g>
     <g id="line2d_24">
      <g>
       <use xlink:href="#m6fd0bd3fc9" x="414.9" y="384.48" style="stroke: #000000; stroke-width: 0.8"/>
      </g>
     </g>
     <g id="text_12">
      <!-- 11 -->
      <g transform="translate(408.5375 399.078438)scale(0.1 -0.1)">
       <use xlink:href="#DejaVuSans-31"/>
       <use xlink:href="#DejaVuSans-31" x="63.623047"/>
      </g>
     </g>
    </g>
    <g id="xtick_13">
     <g id="line2d_25">
      <path d="M 442.8 384.48 
L 442.8 51.84 
" clip-path="url(#p1ce7e568eb)" style="fill: none; stroke: #b0b0b0; stroke-width: 0.8; stroke-linecap: square"/>
     </g>
     <g id="line2d_26">
      <g>
       <use xlink:href="#m6fd0bd3fc9" x="442.8" y="384.48" style="stroke: #000000; stroke-width: 0.8"/>
      </g>
     </g>
     <g id="text_13">
      <!-- 12 -->
      <g transform="translate(436.4375 399.078438)scale(0.1 -0.1)">
       <use xlink:href="#DejaVuSans-31"/>
       <use xlink:href="#DejaVuSans-32" x="63.623047"/>
      </g>
     </g>
    </g>
    <g id="xtick_14">
     <g id="line2d_27">
      <path d="M 470.7 384.48 
L 470.7 51.84 
" clip-path="url(#p1ce7e568eb)" style="fill: none; stroke: #b0b0b0; stroke-width: 0.8; stroke-linecap: square"/>
     </g>
     <g id="line2d_28">
      <g>
       <use xlink:href="#m6fd0bd3fc9" x="470.7" y="384.48" style="stroke: #000000; stroke-width: 0.8"/>
      </g>
     </g>
     <g id="text_14">
      <!-- 13 -->
      <g transform="translate(464.3375 399.078438)scale(0.1 -0.1)">
       <use xlink:href="#DejaVuSans-31"/>
       <use xlink:href="#DejaVuSans-33" x="63.623047"/>
      </g>
     </g>
    </g>
    <g id="xtick_15">
     <g id="line2d_29">
      <path d="M 498.6 384.48 
L 498.6 51.84 
" clip-path="url(#p1ce7e568eb)" style="fill: none; stroke: #b0b0b0; stroke-width: 0.8; stroke-linecap: square"/>
     </g>
     <g id="line2d_30">
      <g>
       <use xlink:href="#m6fd0bd3fc9" x="498.6" y="384.48" style="stroke: #000000; stroke-width: 0.8"/>
      </g>
     </g>
     <g id="text_15">
      <!-- 14 -->
      <g transform="translate(492.2375 399.078438)scale(0.1 -0.1)">
       <use xlink:href="#DejaVuSans-31"/>
       <use xlink:href="#DejaVuSans-34" x="63.623047"/>
      </g>
     </g>
    </g>
    <g id="xtick_16">
     <g id="line2d_31">
      <path d="M 526.5 384.48 
L 526.5 51.84 
" clip-path="url(#p1ce7e568eb)" style="fill: none; stroke: #b0b0b0; stroke-width: 0.8; stroke-linecap: square"/>
     </g>
     <g id="line2d_32">
      <g>
       <use xlink:href="#m6fd0bd3fc9" x="526.5" y="384.48" style="stroke: #000000; stroke-width: 0.8"/>
      </g>
     </g>
     <g id="text_16">
      <!-- 15 -->
      <g transform="translate(520.1375 399.078438)scale(0.1 -0.1)">
       <use xlink:href="#DejaVuSans-31"/>
       <use xlink:href="#DejaVuSans-35" x="63.623047"/>
      </g>
     </g>
    </g>
    <g id="xtick_17">
     <g id="line2d_33">
      <path d="M 554.4 384.48 
L 554.4 51.84 
" clip-path="url(#p1ce7e568eb)" style="fill: none; stroke: #b0b0b0; stroke-width: 0.8; stroke-linecap: square"/>
     </g>
     <g id="line2d_34">
      <g>
       <use xlink:href="#m6fd0bd3fc9" x="554.4" y="384.48" style="stroke: #000000; stroke-width: 0.8"/>
      </g>
     </g>
     <g id="text_17">
      <!-- 16 -->
      <g transform="translate(548.0375 399.078438)scale(0.1 -0.1)">
       <use xlink:href="#DejaVuSans-31"/>
       <use xlink:href="#DejaVuSans-36" x="63.623047"/>
      </g>
     </g>
    </g>
    <g id="xtick_18">
     <g id="line2d_35">
      <path d="M 582.3 384.48 
L 582.3 51.84 
" clip-path="url(#p1ce7e568eb)" style="fill: none; stroke: #b0b0b0; stroke-width: 0.8; stroke-linecap: square"/>
     </g>
     <g id="line2d_36">
      <g>
       <use xlink:href="#m6fd0bd3fc9" x="582.3" y="384.48" style="stroke: #000000; stroke-width: 0.8"/>
      </g>
     </g>
     <g id="text_18">
      <!-- 17 -->
      <g transform="translate(575.9375 399.078438)scale(0.1 -0.1)">
       <use xlink:href="#DejaVuSans-31"/>
       <use xlink:href="#DejaVuSans-37" x="63.623047"/>
      </g>
     </g>
    </g>
    <g id="xtick_19">
     <g id="line2d_37">
      <path d="M 610.2 384.48 
L 610.2 51.84 
" clip-path="url(#p1ce7e568eb)" style="fill: none; stroke: #b0b0b0; stroke-width: 0.8; stroke-linecap: square"/>
     </g>
     <g id="line2d_38">
      <g>
       <use xlink:href="#m6fd0bd3fc9" x="610.2" y="384.48" style="stroke: #000000; stroke-width: 0.8"/>
      </g>
     </g>
     <g id="text_19">
      <!-- 18 -->
      <g transform="translate(603.8375 399.078438)scale(0.1 -0.1)">
       <use xlink:href="#DejaVuSans-31"/>
       <use xlink:href="#DejaVuSans-38" x="63.623047"/>
      </g>
     </g>
    </g>
    <g id="xtick_20">
     <g id="line2d_39">
      <path d="M 638.1 384.48 
L 638.1 51.84 
" clip-path="url(#p1ce7e568eb)" style="fill: none; stroke: #b0b0b0; stroke-width: 0.8; stroke-linecap: square"/>
     </g>
     <g id="line2d_40">
      <g>
       <use xlink:href="#m6fd0bd3fc9" x="638.1" y="384.48" style="stroke: #000000; stroke-width: 0.8"/>
      </g>
     </g>
     <g id="text_20">
      <!-- 19 -->
      <g transform="translate(631.7375 399.078438)scale(0.1 -0.1)">
       <use xlink:href="#DejaVuSans-31"/>
       <use xlink:href="#DejaVuSans-39" x="63.623047"/>
      </g>
     </g>
    </g>
    <g id="xtick_21">
     <g id="line2d_41">
      <path d="M 666 384.48 
L 666 51.84 
" clip-path="url(#p1ce7e568eb)" style="fill: none; stroke: #b0b0b0; stroke-width: 0.8; stroke-linecap: square"/>
     </g>
     <g id="line2d_42">
      <g>
       <use xlink:href="#m6fd0bd3fc9" x="666" y="384.48" style="stroke: #000000; stroke-width: 0.8"/>
      </g>
     </g>
     <g id="text_21">
      <!-- 20 -->
      <g transform="translate(659.6375 399.078438)scale(0.1 -0.1)">
       <use xlink:href="#DejaVuSans-32"/>
       <use xlink:href="#DejaVuSans-30" x="63.623047"/>
      </g>
     </g>
    </g>
    <g id="xtick_22">
     <g id="line2d_43">
      <path d="M 693.9 384.48 
L 693.9 51.84 
" clip-path="url(#p1ce7e568eb)" style="fill: none; stroke: #b0b0b0; stroke-width: 0.8; stroke-linecap: square"/>
     </g>
     <g id="line2d_44">
      <g>
       <use xlink:href="#m6fd0bd3fc9" x="693.9" y="384.48" style="stroke: #000000; stroke-width: 0.8"/>
      </g>
     </g>
     <g id="text_22">
      <!-- 21 -->
      <g transform="translate(687.5375 399.078438)scale(0.1 -0.1)">
       <use xlink:href="#DejaVuSans-32"/>
       <use xlink:href="#DejaVuSans-31" x="63.623047"/>
      </g>
     </g>
    </g>
    <g id="xtick_23">
     <g id="line2d_45">
      <path d="M 721.8 384.48 
L 721.8 51.84 
" clip-path="url(#p1ce7e568eb)" style="fill: none; stroke: #b0b0b0; stroke-width: 0.8; stroke-linecap: square"/>
     </g>
     <g id="line2d_46">
      <g>
       <use xlink:href="#m6fd0bd3fc9" x="721.8" y="384.48" style="stroke: #000000; stroke-width: 0.8"/>
      </g>
     </g>
     <g id="text_23">
      <!-- 22 -->
      <g transform="translate(715.4375 399.078438)scale(0.1 -0.1)">
       <use xlink:href="#DejaVuSans-32"/>
       <use xlink:href="#DejaVuSans-32" x="63.623047"/>
      </g>
     </g>
    </g>
    <g id="xtick_24">
     <g id="line2d_47">
      <path d="M 749.7 384.48 
L 749.7 51.84 
" clip-path="url(#p1ce7e568eb)" style="fill: none; stroke: #b0b0b0; stroke-width: 0.8; stroke-linecap: square"/>
     </g>
     <g id="line2d_48">
      <g>
       <use xlink:href="#m6fd0bd3fc9" x="749.7" y="384.48" style="stroke: #000000; stroke-width: 0.8"/>
      </g>
     </g>
     <g id="text_24">
      <!-- 23 -->
      <g transform="translate(743.3375 399.078438)scale(0.1 -0.1)">
       <use xlink:href="#DejaVuSans-32"/>
       <use xlink:href="#DejaVuSans-33" x="63.623047"/>
      </g>
     </g>
    </g>
    <g id="xtick_25">
     <g id="line2d_49">
      <path d="M 777.6 384.48 
L 777.6 51.84 
" clip-path="url(#p1ce7e568eb)" style="fill: none; stroke: #b0b0b0; stroke-width: 0.8; stroke-linecap: square"/>
     </g>
     <g id="line2d_50">
      <g>
       <use xlink:href="#m6fd0bd3fc9" x="777.6" y="384.48" style="stroke: #000000; stroke-width: 0.8"/>
      </g>
     </g>
     <g id="text_25">
      <!-- 24 -->
      <g transform="translate(771.2375 399.078438)scale(0.1 -0.1)">
       <use xlink:href="#DejaVuSans-32"/>
       <use xlink:href="#DejaVuSans-34" x="63.623047"/>
      </g>
     </g>
    </g>
    <g id="text_26">
     <!-- h -->
     <g transform="translate(439.63125 412.756563)scale(0.1 -0.1)">
      <defs>
       <path id="DejaVuSans-68" d="M 3513 2113 
L 3513 0 
L 2938 0 
L 2938 2094 
Q 2938 2591 2744 2837 
Q 2550 3084 2163 3084 
Q 1697 3084 1428 2787 
Q 1159 2491 1159 1978 
L 1159 0 
L 581 0 
L 581 4863 
L 1159 4863 
L 1159 2956 
Q 1366 3272 1645 3428 
Q 1925 3584 2291 3584 
Q 2894 3584 3203 3211 
Q 3513 2838 3513 2113 
z
" transform="scale(0.015625)"/>
      </defs>
      <use xlink:href="#DejaVuSans-68"/>
     </g>
    </g>
   </g>
   <g id="matplotlib.axis_2">
    <g id="ytick_1">
     <g id="line2d_51">
      <path d="M 108 384.48 
L 777.6 384.48 
" clip-path="url(#p1ce7e568eb)" style="fill: none; stroke: #b0b0b0; stroke-width: 0.8; stroke-linecap: square"/>
     </g>
     <g id="line2d_52">
      <defs>
       <path id="mf03218d105" d="M 0 0 
L -3.5 0 
" style="stroke: #000000; stroke-width: 0.8"/>
      </defs>
      <g>
       <use xlink:href="#mf03218d105" x="108" y="384.48" style="stroke: #000000; stroke-width: 0.8"/>
      </g>
     </g>
     <g id="text_27">
      <!-- 0 -->
      <g transform="translate(94.6375 388.279219)scale(0.1 -0.1)">
       <use xlink:href="#DejaVuSans-30"/>
      </g>
     </g>
    </g>
    <g id="ytick_2">
     <g id="line2d_53">
      <path d="M 108 342.9 
L 777.6 342.9 
" clip-path="url(#p1ce7e568eb)" style="fill: none; stroke: #b0b0b0; stroke-width: 0.8; stroke-linecap: square"/>
     </g>
     <g id="line2d_54">
      <g>
       <use xlink:href="#mf03218d105" x="108" y="342.9" style="stroke: #000000; stroke-width: 0.8"/>
      </g>
     </g>
     <g id="text_28">
      <!-- 1 -->
      <g transform="translate(94.6375 346.699219)scale(0.1 -0.1)">
       <use xlink:href="#DejaVuSans-31"/>
      </g>
     </g>
    </g>
    <g id="ytick_3">
     <g id="line2d_55">
      <path d="M 108 301.32 
L 777.6 301.32 
" clip-path="url(#p1ce7e568eb)" style="fill: none; stroke: #b0b0b0; stroke-width: 0.8; stroke-linecap: square"/>
     </g>
     <g id="line2d_56">
      <g>
       <use xlink:href="#mf03218d105" x="108" y="301.32" style="stroke: #000000; stroke-width: 0.8"/>
      </g>
     </g>
     <g id="text_29">
      <!-- 2 -->
      <g transform="translate(94.6375 305.119219)scale(0.1 -0.1)">
       <use xlink:href="#DejaVuSans-32"/>
      </g>
     </g>
    </g>
    <g id="ytick_4">
     <g id="line2d_57">
      <path d="M 108 259.74 
L 777.6 259.74 
" clip-path="url(#p1ce7e568eb)" style="fill: none; stroke: #b0b0b0; stroke-width: 0.8; stroke-linecap: square"/>
     </g>
     <g id="line2d_58">
      <g>
       <use xlink:href="#mf03218d105" x="108" y="259.74" style="stroke: #000000; stroke-width: 0.8"/>
      </g>
     </g>
     <g id="text_30">
      <!-- 3 -->
      <g transform="translate(94.6375 263.539219)scale(0.1 -0.1)">
       <use xlink:href="#DejaVuSans-33"/>
      </g>
     </g>
    </g>
    <g id="ytick_5">
     <g id="line2d_59">
      <path d="M 108 218.16 
L 777.6 218.16 
" clip-path="url(#p1ce7e568eb)" style="fill: none; stroke: #b0b0b0; stroke-width: 0.8; stroke-linecap: square"/>
     </g>
     <g id="line2d_60">
      <g>
       <use xlink:href="#mf03218d105" x="108" y="218.16" style="stroke: #000000; stroke-width: 0.8"/>
      </g>
     </g>
     <g id="text_31">
      <!-- 4 -->
      <g transform="translate(94.6375 221.959219)scale(0.1 -0.1)">
       <use xlink:href="#DejaVuSans-34"/>
      </g>
     </g>
    </g>
    <g id="ytick_6">
     <g id="line2d_61">
      <path d="M 108 176.58 
L 777.6 176.58 
" clip-path="url(#p1ce7e568eb)" style="fill: none; stroke: #b0b0b0; stroke-width: 0.8; stroke-linecap: square"/>
     </g>
     <g id="line2d_62">
      <g>
       <use xlink:href="#mf03218d105" x="108" y="176.58" style="stroke: #000000; stroke-width: 0.8"/>
      </g>
     </g>
     <g id="text_32">
      <!-- 5 -->
      <g transform="translate(94.6375 180.379219)scale(0.1 -0.1)">
       <use xlink:href="#DejaVuSans-35"/>
      </g>
     </g>
    </g>
    <g id="ytick_7">
     <g id="line2d_63">
      <path d="M 108 135 
L 777.6 135 
" clip-path="url(#p1ce7e568eb)" style="fill: none; stroke: #b0b0b0; stroke-width: 0.8; stroke-linecap: square"/>
     </g>
     <g id="line2d_64">
      <g>
       <use xlink:href="#mf03218d105" x="108" y="135" style="stroke: #000000; stroke-width: 0.8"/>
      </g>
     </g>
     <g id="text_33">
      <!-- 6 -->
      <g transform="translate(94.6375 138.799219)scale(0.1 -0.1)">
       <use xlink:href="#DejaVuSans-36"/>
      </g>
     </g>
    </g>
    <g id="ytick_8">
     <g id="line2d_65">
      <path d="M 108 93.42 
L 777.6 93.42 
" clip-path="url(#p1ce7e568eb)" style="fill: none; stroke: #b0b0b0; stroke-width: 0.8; stroke-linecap: square"/>
     </g>
     <g id="line2d_66">
      <g>
       <use xlink:href="#mf03218d105" x="108" y="93.42" style="stroke: #000000; stroke-width: 0.8"/>
      </g>
     </g>
     <g id="text_34">
      <!-- 7 -->
      <g transform="translate(94.6375 97.219219)scale(0.1 -0.1)">
       <use xlink:href="#DejaVuSans-37"/>
      </g>
     </g>
    </g>
    <g id="ytick_9">
     <g id="line2d_67">
      <path d="M 108 51.84 
L 777.6 51.84 
" clip-path="url(#p1ce7e568eb)" style="fill: none; stroke: #b0b0b0; stroke-width: 0.8; stroke-linecap: square"/>
     </g>
     <g id="line2d_68">
      <g>
       <use xlink:href="#mf03218d105" x="108" y="51.84" style="stroke: #000000; stroke-width: 0.8"/>
      </g>
     </g>
     <g id="text_35">
      <!-- 8 -->
      <g transform="translate(94.6375 55.639219)scale(0.1 -0.1)">
       <use xlink:href="#DejaVuSans-38"/>
      </g>
     </g>
    </g>
    <g id="text_36">
     <!-- a -->
     <g transform="translate(88.557812 221.224062)rotate(-90)scale(0.1 -0.1)">
      <defs>
       <path id="DejaVuSans-61" d="M 2194 1759 
Q 1497 1759 1228 1600 
Q 959 1441 959 1056 
Q 959 750 1161 570 
Q 1363 391 1709 391 
Q 2188 391 2477 730 
Q 2766 1069 2766 1631 
L 2766 1759 
L 2194 1759 
z
M 3341 1997 
L 3341 0 
L 2766 0 
L 2766 531 
Q 2569 213 2275 61 
Q 1981 -91 1556 -91 
Q 1019 -91 701 211 
Q 384 513 384 1019 
Q 384 1609 779 1909 
Q 1175 2209 1959 2209 
L 2766 2209 
L 2766 2266 
Q 2766 2663 2505 2880 
Q 2244 3097 1772 3097 
Q 1472 3097 1187 3025 
Q 903 2953 641 2809 
L 641 3341 
Q 956 3463 1253 3523 
Q 1550 3584 1831 3584 
Q 2591 3584 2966 3190 
Q 3341 2797 3341 1997 
z
" transform="scale(0.015625)"/>
      </defs>
      <use xlink:href="#DejaVuSans-61"/>
     </g>
    </g>
   </g>
   <g id="line2d_69">
    <path d="M 109.829387 -1 
L 109.961719 16.132138 
L 110.615625 66.799779 
L 111.269531 101.512177 
L 111.923438 127.233822 
L 112.577344 147.299612 
L 113.885156 177.02891 
L 115.192969 198.376636 
L 116.500781 214.695574 
L 117.808594 227.714978 
L 119.116406 238.429565 
L 120.424219 247.457721 
L 121.732031 255.206931 
L 123.039844 261.958182 
L 125.001563 270.638503 
L 126.963281 277.985986 
L 128.925 284.315055 
L 130.886719 289.844213 
L 132.848437 294.730763 
L 134.810156 299.091294 
L 136.771875 303.014354 
L 139.3875 307.681113 
L 142.003125 311.815102 
L 144.61875 315.509608 
L 147.234375 318.83615 
L 149.85 321.850671 
L 153.119531 325.247014 
L 156.389062 328.293485 
L 159.658594 331.043779 
L 163.582031 334.012704 
L 167.505469 336.67476 
L 171.428906 339.076121 
L 176.00625 341.597198 
L 180.583594 343.860655 
L 185.814844 346.179941 
L 191.046094 348.256601 
L 196.93125 350.347259 
L 203.470312 352.41266 
L 210.009375 354.249712 
L 217.202344 356.048672 
L 225.049219 357.788461 
L 233.55 359.453999 
L 243.358594 361.140895 
L 253.821094 362.711822 
L 265.591406 364.249086 
L 278.669531 365.725515 
L 293.055469 367.123088 
L 309.403125 368.481623 
L 327.7125 369.774076 
L 348.6375 371.019703 
L 372.178125 372.192957 
L 398.988281 373.304383 
L 430.375781 374.376098 
L 466.994531 375.394077 
L 509.498437 376.346407 
L 559.849219 377.245592 
L 620.008594 378.090333 
L 692.592188 378.879869 
L 777.6 379.588206 
L 777.6 379.588206 
" clip-path="url(#p1ce7e568eb)" style="fill: none; stroke-dasharray: 3.7,1.6; stroke-dashoffset: 0; stroke: #000000; stroke-opacity: 0.25"/>
   </g>
   <g id="line2d_70">
    <path d="M 111.931894 -1 
L 112.577344 28.709418 
L 113.885156 73.303365 
L 115.192969 105.324953 
L 116.500781 129.803361 
L 117.808594 149.332466 
L 119.116406 165.404348 
L 120.424219 178.946582 
L 121.732031 190.570396 
L 123.039844 200.697273 
L 125.001563 213.717754 
L 126.963281 224.73898 
L 128.925 234.232582 
L 130.886719 242.526319 
L 132.848437 249.856145 
L 134.810156 256.396942 
L 136.771875 262.281532 
L 138.733594 267.612914 
L 141.349219 273.99903 
L 143.964844 279.69445 
L 146.580469 284.813596 
L 149.196094 289.445541 
L 151.811719 293.66088 
L 154.427344 297.516441 
L 157.696875 301.899811 
L 160.966406 305.86625 
L 164.235938 309.474466 
L 167.505469 312.77214 
L 171.428906 316.374181 
L 175.352344 319.6407 
L 179.275781 322.616844 
L 183.199219 325.339788 
L 187.776563 328.237533 
L 192.353906 330.873342 
L 197.585156 333.607888 
L 202.816406 336.085574 
L 208.701562 338.608143 
L 214.586719 340.888492 
L 221.125781 343.177731 
L 228.31875 345.440794 
L 235.511719 347.475086 
L 243.358594 349.471342 
L 251.859375 351.409782 
L 261.014063 353.275777 
L 271.476562 355.171019 
L 282.592969 356.95214 
L 295.017187 358.706943 
L 308.749219 360.406972 
L 323.789062 362.032149 
L 340.136719 363.569554 
L 358.446094 365.061698 
L 378.717187 366.485625 
L 401.603906 367.863344 
L 427.10625 369.171121 
L 455.878125 370.420923 
L 488.573437 371.615612 
L 525.846094 372.752708 
L 569.003906 373.842322 
L 619.354687 374.883315 
L 678.20625 375.868861 
L 747.520312 376.798453 
L 777.6 377.142309 
L 777.6 377.142309 
" clip-path="url(#p1ce7e568eb)" style="fill: none; stroke-dasharray: 3.7,1.6; stroke-dashoffset: 0; stroke: #000000; stroke-opacity: 0.25"/>
   </g>
   <g id="line2d_71">
    <path d="M 114.754204 -1 
L 115.846875 29.585974 
L 117.154687 58.607815 
L 118.4625 82.150798 
L 119.770313 101.770556 
L 121.078125 118.464674 
L 122.385937 132.906501 
L 123.69375 145.569336 
L 125.655469 161.955469 
L 127.617188 175.912968 
L 129.578906 187.996399 
L 131.540625 198.59603 
L 133.502344 207.995727 
L 135.464063 216.4077 
L 137.425781 223.994303 
L 139.3875 230.882225 
L 142.003125 239.150205 
L 144.61875 246.539216 
L 147.234375 253.192301 
L 149.85 259.221342 
L 152.465625 264.715374 
L 155.08125 269.746324 
L 157.696875 274.373081 
L 160.966406 279.661667 
L 164.235938 284.472622 
L 167.505469 288.869521 
L 170.775 292.904663 
L 174.044531 296.621559 
L 177.967969 300.71283 
L 181.891406 304.451001 
L 185.814844 307.879881 
L 189.738281 311.036176 
L 194.315625 314.415128 
L 198.892969 317.506596 
L 203.470312 320.34532 
L 208.701562 323.317524 
L 213.932813 326.03468 
L 219.817969 328.824946 
L 225.703125 331.368332 
L 232.242188 333.942062 
L 238.78125 336.284183 
L 245.974219 338.627919 
L 253.821094 340.943645 
L 262.321875 343.207567 
L 271.476562 345.401358 
L 281.285156 347.511595 
L 291.747656 349.529099 
L 302.864062 351.448256 
L 315.288281 353.361587 
L 328.366406 355.15287 
L 342.752344 356.901917 
L 358.446094 358.588931 
L 376.101562 360.258169 
L 395.71875 361.879274 
L 417.297656 363.430754 
L 440.838281 364.898714 
L 467.648438 366.34081 
L 497.074219 367.698464 
L 530.423437 369.011597 
L 568.35 370.276427 
L 611.507812 371.486202 
L 660.550781 372.633431 
L 717.440625 373.734472 
L 777.6 374.696412 
L 777.6 374.696412 
" clip-path="url(#p1ce7e568eb)" style="fill: none; stroke-dasharray: 3.7,1.6; stroke-dashoffset: 0; stroke: #000000; stroke-opacity: 0.25"/>
   </g>
   <g id="line2d_72">
    <path d="M 118.10902 -1 
L 119.116406 19.353914 
L 120.424219 41.924304 
L 121.732031 61.297327 
L 123.039844 78.175455 
L 125.001563 99.876257 
L 126.963281 118.244966 
L 128.925 134.067637 
L 130.886719 147.890532 
L 132.848437 160.106908 
L 134.810156 171.008236 
L 136.771875 180.815886 
L 138.733594 189.701523 
L 141.349219 200.34505 
L 143.964844 209.837417 
L 146.580469 218.369326 
L 149.196094 226.089235 
L 151.811719 233.1148 
L 154.427344 239.540735 
L 157.042969 245.444334 
L 159.658594 250.889448 
L 162.928125 257.131503 
L 166.197656 262.826101 
L 169.467187 268.043824 
L 172.736719 272.84314 
L 176.00625 277.272994 
L 179.275781 281.37474 
L 183.199219 285.912979 
L 187.122656 290.080787 
L 191.046094 293.921503 
L 194.969531 297.471864 
L 199.546875 301.28858 
L 204.124219 304.794987 
L 208.701562 308.026906 
L 213.932813 311.423351 
L 219.164062 314.539657 
L 224.395312 317.408511 
L 230.280469 320.374675 
L 236.165625 323.096414 
L 242.704688 325.868388 
L 249.24375 328.40669 
L 256.436719 330.962036 
L 264.283594 333.502119 
L 272.784375 336.000312 
L 281.285156 338.269494 
L 290.439844 340.491026 
L 300.248438 342.649478 
L 311.364844 344.856751 
L 323.135156 346.956672 
L 335.559375 348.947417 
L 349.291406 350.918191 
L 364.33125 352.842593 
L 380.678906 354.700869 
L 398.334375 356.479131 
L 417.951562 358.223094 
L 439.530469 359.908148 
L 463.071094 361.517175 
L 489.227344 363.075747 
L 517.999219 364.563777 
L 550.040625 365.995754 
L 586.005469 367.376847 
L 626.547656 368.706119 
L 672.321094 369.979147 
L 723.979687 371.190098 
L 777.6 372.250515 
L 777.6 372.250515 
" clip-path="url(#p1ce7e568eb)" style="fill: none; stroke-dasharray: 3.7,1.6; stroke-dashoffset: 0; stroke: #000000; stroke-opacity: 0.25"/>
   </g>
   <g id="line2d_73">
    <path d="M 121.878281 -1 
L 123.039844 16.914546 
L 125.001563 42.955508 
L 126.963281 64.997959 
L 128.925 83.985165 
L 130.886719 100.572638 
L 132.848437 115.23229 
L 134.810156 128.313883 
L 136.771875 140.083063 
L 138.733594 150.745828 
L 141.349219 163.51806 
L 143.964844 174.9089 
L 146.580469 185.147191 
L 149.196094 194.411081 
L 151.811719 202.84176 
L 154.427344 210.552882 
L 157.042969 217.6372 
L 159.658594 224.171337 
L 162.928125 231.661804 
L 166.197656 238.495321 
L 169.467187 244.756588 
L 172.736719 250.515768 
L 176.00625 255.831593 
L 179.275781 260.753688 
L 182.545312 265.324334 
L 186.46875 270.395938 
L 190.392187 275.066961 
L 194.315625 279.382693 
L 198.239062 283.381767 
L 202.1625 287.097368 
L 206.739844 291.112011 
L 211.317187 294.818888 
L 215.894531 298.251505 
L 221.125781 301.875462 
L 226.357031 305.21562 
L 231.588281 308.303464 
L 237.473437 311.509205 
L 243.358594 314.462685 
L 249.897656 317.482536 
L 256.436719 320.258443 
L 263.629687 323.063383 
L 270.822656 325.638391 
L 278.669531 328.216546 
L 287.170313 330.770535 
L 296.325 333.2779 
L 306.133594 335.720785 
L 316.596094 338.08554 
L 327.7125 340.362229 
L 339.482813 342.544125 
L 352.560938 344.731169 
L 366.292969 346.79714 
L 381.332812 348.828855 
L 397.680469 350.80444 
L 415.335938 352.707753 
L 434.299219 354.527627 
L 455.224219 356.309551 
L 478.110937 358.031798 
L 503.613281 359.719716 
L 531.73125 361.348402 
L 562.464844 362.900764 
L 596.467969 364.392972 
L 634.394531 365.831938 
L 676.898438 367.218318 
L 724.633594 368.548961 
L 777.6 369.804618 
L 777.6 369.804618 
" clip-path="url(#p1ce7e568eb)" style="fill: none; stroke-dasharray: 3.7,1.6; stroke-dashoffset: 0; stroke: #000000; stroke-opacity: 0.25"/>
   </g>
   <g id="line2d_74">
    <path d="M 125.956334 -1 
L 127.617188 19.487693 
L 129.578906 40.633698 
L 131.540625 59.183052 
L 133.502344 75.632523 
L 135.464063 90.353476 
L 137.425781 103.63003 
L 139.3875 115.683894 
L 142.003125 130.152859 
L 144.61875 143.083628 
L 147.234375 154.726527 
L 149.85 165.277349 
L 152.465625 174.891904 
L 155.08125 183.696067 
L 157.696875 191.792892 
L 160.3125 199.267748 
L 162.928125 206.192104 
L 166.197656 214.164541 
L 169.467187 221.469353 
L 172.736719 228.188397 
L 176.00625 234.390192 
L 179.275781 240.132636 
L 182.545312 245.465056 
L 185.814844 250.429793 
L 189.738281 255.953307 
L 193.661719 261.054092 
L 197.585156 265.778405 
L 201.508594 270.165939 
L 205.432031 274.250967 
L 210.009375 278.673992 
L 214.586719 282.766481 
L 219.164062 286.563519 
L 223.741406 290.095422 
L 228.972656 293.840846 
L 234.203906 297.308262 
L 239.435156 300.526956 
L 245.320312 303.88212 
L 251.205469 306.985653 
L 257.744531 310.171366 
L 264.283594 313.110967 
L 271.476562 316.092377 
L 278.669531 318.839304 
L 286.516406 321.599214 
L 295.017187 324.342867 
L 304.171875 327.045858 
L 313.326563 329.519734 
L 323.135156 331.94734 
L 333.597656 334.313898 
L 344.714062 336.608011 
L 357.138281 338.938323 
L 370.216406 341.160421 
L 384.602344 343.369157 
L 399.642187 345.451516 
L 415.989844 347.489846 
L 433.645312 349.466381 
L 452.608594 351.368159 
L 473.533594 353.241697 
L 496.420312 355.063366 
L 521.26875 356.815915 
L 548.732812 358.525867 
L 578.8125 360.172266 
L 612.161719 361.770169 
L 648.780469 363.299614 
L 689.976562 364.791849 
L 735.75 366.221623 
L 777.6 367.358721 
L 777.6 367.358721 
" clip-path="url(#p1ce7e568eb)" style="fill: none; stroke-dasharray: 3.7,1.6; stroke-dashoffset: 0; stroke: #000000; stroke-opacity: 0.25"/>
   </g>
   <g id="line2d_75">
    <path d="M 130.244173 -1 
L 132.194531 19.22177 
L 134.15625 37.321167 
L 136.117969 53.562786 
L 138.079688 68.244955 
L 140.041406 81.601868 
L 142.657031 97.667285 
L 145.272656 112.053305 
L 147.888281 125.028497 
L 150.503906 136.803883 
L 153.119531 147.548056 
L 155.735156 157.397694 
L 158.350781 166.465041 
L 160.966406 174.843334 
L 163.582031 182.610818 
L 166.851562 191.56123 
L 170.121094 199.768752 
L 173.390625 207.323594 
L 176.660156 214.301415 
L 179.929688 220.766258 
L 183.199219 226.772767 
L 186.46875 232.367917 
L 190.392187 238.595948 
L 194.315625 244.350257 
L 198.239062 249.682356 
L 202.1625 254.636491 
L 206.085938 259.250907 
L 210.009375 263.558848 
L 214.586719 268.235978 
L 219.164062 272.575451 
L 223.741406 276.611911 
L 228.31875 280.375452 
L 233.55 284.375997 
L 238.78125 288.088366 
L 244.0125 291.542054 
L 249.897656 295.150047 
L 255.782813 298.494667 
L 262.321875 301.935134 
L 268.860937 305.11642 
L 276.053906 308.349498 
L 283.246875 311.334188 
L 291.09375 314.338729 
L 298.940625 317.110078 
L 307.441406 319.879032 
L 316.596094 322.62072 
L 326.404688 325.314522 
L 336.867188 327.943843 
L 347.983594 330.495773 
L 359.753906 332.960688 
L 372.178125 335.331828 
L 385.25625 337.604872 
L 399.642187 339.876018 
L 414.682031 342.028101 
L 431.029687 344.145033 
L 448.685156 346.207684 
L 467.648438 348.201621 
L 488.573437 350.174964 
L 511.460156 352.102343 
L 536.308594 353.964738 
L 563.11875 355.748721 
L 592.544531 357.481837 
L 625.239844 359.178341 
L 661.204687 360.814727 
L 700.439062 362.374866 
L 744.250781 363.891011 
L 777.6 364.912824 
L 777.6 364.912824 
" clip-path="url(#p1ce7e568eb)" style="fill: none; stroke-dasharray: 3.7,1.6; stroke-dashoffset: 0; stroke: #000000; stroke-opacity: 0.25"/>
   </g>
   <g id="line2d_76">
    <path d="M 134.682495 -1 
L 136.117969 12.198134 
L 138.079688 28.715574 
L 140.041406 43.742102 
L 142.657031 61.815696 
L 145.272656 77.999968 
L 147.888281 92.597059 
L 150.503906 105.844368 
L 153.119531 117.931563 
L 155.735156 129.012406 
L 158.350781 139.213171 
L 160.966406 148.63875 
L 163.582031 157.37717 
L 166.851562 167.446383 
L 170.121094 176.679846 
L 173.390625 185.179043 
L 176.660156 193.029092 
L 179.929688 200.30204 
L 183.199219 207.059363 
L 186.46875 213.353907 
L 189.738281 219.231395 
L 193.661719 225.789546 
L 197.585156 231.863664 
L 201.508594 237.504779 
L 205.432031 242.756958 
L 209.355469 247.658469 
L 213.278906 252.242722 
L 217.85625 257.228937 
L 222.433594 261.86369 
L 227.010938 266.182207 
L 231.588281 270.215196 
L 236.819531 274.509039 
L 242.050781 278.499972 
L 247.282031 282.218381 
L 253.167187 286.108699 
L 259.052344 289.720351 
L 264.9375 293.081741 
L 271.476562 296.553057 
L 278.015625 299.775284 
L 285.208594 303.062345 
L 292.401562 306.108077 
L 300.248438 309.185061 
L 308.749219 312.260915 
L 317.25 315.09878 
L 326.404688 317.918837 
L 336.213281 320.699576 
L 346.675781 323.423356 
L 357.792187 326.076132 
L 369.5625 328.647121 
L 381.986719 331.128416 
L 395.064844 333.5146 
L 409.450781 335.906237 
L 424.490625 338.179419 
L 440.838281 340.422107 
L 458.49375 342.613669 
L 477.457031 344.738255 
L 497.728125 346.784267 
L 519.960938 348.799982 
L 544.155469 350.762978 
L 570.311719 352.656598 
L 599.083594 354.508922 
L 630.471094 356.299028 
L 664.474219 358.012215 
L 701.746875 359.666261 
L 742.942969 361.26986 
L 777.6 362.466927 
L 777.6 362.466927 
" clip-path="url(#p1ce7e568eb)" style="fill: none; stroke-dasharray: 3.7,1.6; stroke-dashoffset: 0; stroke: #000000; stroke-opacity: 0.25"/>
   </g>
   <g id="line2d_77">
    <path d="M 139.212863 -1 
L 140.695312 11.121362 
L 143.310937 30.641976 
L 145.926562 48.155347 
L 148.542188 63.977011 
L 151.157813 78.35598 
L 153.773438 91.491967 
L 156.389062 103.547423 
L 159.004687 114.656158 
L 161.620313 124.929618 
L 164.235938 134.461554 
L 167.505469 145.453802 
L 170.775 155.541657 
L 174.044531 164.833899 
L 177.314062 173.421938 
L 180.583594 181.383277 
L 183.853125 188.784152 
L 187.122656 195.681574 
L 190.392187 202.124935 
L 194.315625 209.317821 
L 198.239062 215.982944 
L 202.1625 222.175613 
L 206.085938 227.943634 
L 210.009375 233.32856 
L 213.932813 238.366701 
L 218.510156 243.848541 
L 223.0875 248.945801 
L 227.664844 253.696849 
L 232.242188 258.135154 
L 236.819531 262.290044 
L 242.050781 266.724414 
L 247.282031 270.855978 
L 252.513281 274.71418 
L 258.398438 278.759889 
L 264.283594 282.524238 
L 270.16875 286.035112 
L 276.707812 289.668324 
L 283.246875 293.047734 
L 290.439844 296.502052 
L 297.632812 299.709047 
L 305.479687 302.955145 
L 313.326563 305.965334 
L 321.827344 308.9885 
L 330.982031 311.997447 
L 340.136719 314.778513 
L 349.945312 317.53332 
L 360.407812 320.243892 
L 371.524219 322.895541 
L 383.294531 325.476612 
L 395.71875 327.978184 
L 409.450781 330.509152 
L 423.836719 332.929986 
L 439.530469 335.336296 
L 455.878125 337.616411 
L 473.533594 339.853853 
L 492.496875 342.03178 
L 512.767969 344.137485 
L 535.000781 346.220066 
L 559.195312 348.25593 
L 585.351562 350.22715 
L 613.469531 352.12082 
L 644.203125 353.965379 
L 677.552344 355.743404 
L 714.171094 357.471888 
L 754.713281 359.158578 
L 777.6 360.021031 
L 777.6 360.021031 
" clip-path="url(#p1ce7e568eb)" style="fill: none; stroke-dasharray: 3.7,1.6; stroke-dashoffset: 0; stroke: #000000; stroke-opacity: 0.25"/>
   </g>
   <g id="line2d_78">
    <path d="M 123.673018 -1 
L 128.925 100.024983 
L 135.9 168.14425 
L 142.875 209.503044 
L 149.85 237.352912 
L 156.825 257.414015 
L 163.8 272.576578 
L 170.775 284.450578 
L 177.75 294.011068 
L 184.725 301.880914 
L 191.7 308.473423 
L 198.675 314.079655 
L 205.65 318.907924 
L 212.625 323.108752 
L 219.6 326.802303 
L 226.575 330.073402 
L 233.55 332.992318 
L 240.525 335.612273 
L 247.5 337.976512 
L 254.475 340.123288 
L 261.45 342.078795 
L 268.425 343.871018 
L 275.4 345.515673 
L 282.375 347.033634 
L 289.35 348.437957 
L 296.325 349.739785 
L 303.3 350.952923 
L 310.275 352.082444 
L 317.25 353.139324 
L 324.225 354.129386 
L 331.2 355.058782 
L 338.175 355.933126 
L 345.15 356.758406 
L 352.125 357.536534 
L 359.1 358.271419 
L 366.075 358.968799 
L 373.05 359.629464 
L 380.025 360.25728 
L 387 360.853703 
L 393.975 361.422019 
L 400.95 361.963307 
L 407.925 362.480313 
L 414.9 362.973868 
L 421.875 363.445468 
L 428.85 363.897443 
L 435.825 364.330166 
L 442.8 364.745758 
L 449.775 365.144344 
L 456.75 365.527004 
L 463.725 365.894655 
L 470.7 366.248126 
L 477.675 366.589082 
L 484.65 366.917398 
L 491.625 367.233739 
L 498.6 367.53956 
L 505.575 367.833904 
L 512.55 368.118811 
L 519.525 368.394029 
L 526.5 368.660099 
L 533.475 368.917438 
L 540.45 369.166502 
L 547.425 369.407624 
L 554.4 369.641886 
L 561.375 369.868289 
L 568.35 370.088455 
L 575.325 370.30201 
L 582.3 370.509328 
L 589.275 370.710617 
L 596.25 370.906167 
L 603.225 371.096188 
L 610.2 371.28097 
L 617.175 371.460678 
L 624.15 371.635522 
L 631.125 371.806208 
L 638.1 371.971904 
L 645.075 372.133817 
L 652.05 372.291072 
L 659.025 372.444835 
L 666 372.594274 
L 672.975 372.740511 
L 679.95 372.883172 
L 686.925 373.022423 
L 693.9 373.157849 
L 700.875 373.290573 
L 707.85 373.420219 
L 714.825 373.546872 
L 721.8 373.670655 
L 728.775 373.791653 
L 735.75 373.909948 
L 742.725 374.025665 
L 749.7 374.138846 
L 756.675 374.249615 
L 763.65 374.35843 
L 770.625 374.464542 
L 777.6 374.568451 
" clip-path="url(#p1ce7e568eb)" style="fill: none; stroke: #1f77b4; stroke-width: 1.5; stroke-linecap: square"/>
   </g>
   <g id="line2d_79">
    <path d="M 132.004274 -1 
L 135.9 58.164318 
L 142.875 122.054899 
L 149.85 164.831571 
L 156.825 195.502226 
L 163.8 218.581205 
L 170.775 236.590335 
L 177.75 251.03398 
L 184.725 262.885111 
L 191.7 272.787804 
L 198.675 281.182806 
L 205.65 288.395689 
L 212.625 294.658052 
L 219.6 300.149939 
L 226.575 305.005651 
L 233.55 309.328308 
L 240.525 313.202317 
L 247.5 316.695452 
L 254.475 319.859275 
L 261.45 322.741184 
L 268.425 325.374446 
L 275.4 327.793154 
L 282.375 330.019763 
L 289.35 332.078805 
L 296.325 333.987743 
L 303.3 335.760714 
L 310.275 337.413935 
L 317.25 338.959879 
L 324.225 340.406032 
L 331.2 341.763203 
L 338.175 343.039044 
L 345.15 344.241163 
L 352.125 345.375756 
L 359.1 346.448479 
L 366.075 347.463156 
L 373.05 348.425566 
L 380.025 349.33858 
L 387 350.206937 
L 393.975 351.033963 
L 400.95 351.821613 
L 407.925 352.572589 
L 414.9 353.290385 
L 421.875 353.976288 
L 428.85 354.633211 
L 435.825 355.262191 
L 442.8 355.864977 
L 449.775 356.443978 
L 456.75 356.999861 
L 463.725 357.533873 
L 470.7 358.048176 
L 477.675 358.542313 
L 484.65 359.018861 
L 491.625 359.478861 
L 498.6 359.921646 
L 505.575 360.349671 
L 512.55 360.762186 
L 519.525 361.161437 
L 526.5 361.548048 
L 533.475 361.921312 
L 540.45 362.282559 
L 547.425 362.632953 
L 554.4 362.972412 
L 561.375 363.301435 
L 568.35 363.619855 
L 575.325 363.93 
L 582.3 364.230415 
L 589.275 364.522099 
L 596.25 364.805508 
L 603.225 365.081433 
L 610.2 365.349749 
L 617.175 365.610123 
L 624.15 365.864052 
L 631.125 366.111162 
L 638.1 366.351785 
L 645.075 366.586172 
L 652.05 366.814529 
L 659.025 367.037107 
L 666 367.254154 
L 672.975 367.465797 
L 679.95 367.672782 
L 686.925 367.87432 
L 693.9 368.071035 
L 700.875 368.263592 
L 707.85 368.451243 
L 714.825 368.634985 
L 721.8 368.814153 
L 728.775 368.989704 
L 735.75 369.161346 
L 742.725 369.328789 
L 749.7 369.493071 
L 756.675 369.653778 
L 763.65 369.811075 
L 770.625 369.965046 
L 777.6 370.115815 
" clip-path="url(#p1ce7e568eb)" style="fill: none; stroke: #ff7f0e; stroke-width: 1.5; stroke-linecap: square"/>
   </g>
   <g id="line2d_80">
    <path d="M 137.993493 -1 
L 142.875 55.567647 
L 149.85 109.59462 
L 156.825 148.278157 
L 163.8 177.356714 
L 170.775 200.014072 
L 177.75 218.172058 
L 184.725 233.054788 
L 191.7 245.473902 
L 198.675 256.001126 
L 205.65 265.033134 
L 212.625 272.874706 
L 219.6 279.743306 
L 226.575 285.811076 
L 233.55 291.211486 
L 240.525 296.047656 
L 247.5 300.404408 
L 254.475 304.352014 
L 261.45 307.942447 
L 268.425 311.224356 
L 275.4 314.235995 
L 282.375 317.008134 
L 289.35 319.569046 
L 296.325 321.943264 
L 303.3 324.14742 
L 310.275 326.202719 
L 317.25 328.122468 
L 324.225 329.91914 
L 331.2 331.605209 
L 338.175 333.188991 
L 345.15 334.680881 
L 352.125 336.08878 
L 359.1 337.41934 
L 366.075 338.677967 
L 373.05 339.870481 
L 380.025 341.003952 
L 387 342.080874 
L 393.975 343.104989 
L 400.95 344.081413 
L 407.925 345.01243 
L 414.9 345.90112 
L 421.875 346.751223 
L 428.85 347.565234 
L 435.825 348.343737 
L 442.8 349.090638 
L 449.775 349.807893 
L 456.75 350.495668 
L 463.725 351.157247 
L 470.7 351.79338 
L 477.675 352.405521 
L 484.65 352.995707 
L 491.625 353.56448 
L 498.6 354.11292 
L 505.575 354.642109 
L 512.55 355.153044 
L 519.525 355.647347 
L 526.5 356.125184 
L 533.475 356.587388 
L 540.45 357.034622 
L 547.425 357.467678 
L 554.4 357.88722 
L 561.375 358.294454 
L 568.35 358.688758 
L 575.325 359.071876 
L 582.3 359.443726 
L 589.275 359.804806 
L 596.25 360.155575 
L 603.225 360.496448 
L 610.2 360.827882 
L 617.175 361.150751 
L 624.15 361.464389 
L 631.125 361.770168 
L 638.1 362.067382 
L 645.075 362.357403 
L 652.05 362.63998 
L 659.025 362.915406 
L 666 363.183971 
L 672.975 363.445884 
L 679.95 363.701393 
L 686.925 363.950748 
L 693.9 364.194199 
L 700.875 364.43187 
L 707.85 364.664053 
L 714.825 364.891371 
L 721.8 365.113034 
L 728.775 365.329749 
L 735.75 365.542056 
L 742.725 365.749291 
L 749.7 365.952451 
L 756.675 366.151203 
L 763.65 366.34534 
L 770.625 366.535818 
L 777.6 366.722305 
" clip-path="url(#p1ce7e568eb)" style="fill: none; stroke: #2ca02c; stroke-width: 1.5; stroke-linecap: square"/>
   </g>
   <g id="line2d_81">
    <path d="M 142.812067 -1 
L 142.875 -0.143316 
L 149.85 63.277411 
L 156.825 108.652833 
L 163.8 142.740533 
L 170.775 169.288947 
L 177.75 190.556285 
L 184.725 207.975395 
L 191.7 222.508021 
L 198.675 234.82069 
L 205.65 245.383258 
L 212.625 254.547905 
L 219.6 262.57243 
L 226.575 269.659741 
L 233.55 275.9641 
L 240.525 281.611496 
L 247.5 286.695898 
L 254.475 291.300052 
L 261.45 295.487573 
L 268.425 299.31626 
L 275.4 302.825612 
L 282.375 306.058041 
L 289.35 309.041406 
L 296.325 311.806892 
L 303.3 314.37612 
L 310.275 316.769881 
L 317.25 319.005221 
L 324.225 321.09628 
L 331.2 323.058024 
L 338.175 324.902097 
L 345.15 326.638894 
L 352.125 328.276314 
L 359.1 329.823922 
L 366.075 331.289201 
L 373.05 332.677141 
L 380.025 333.99398 
L 387 335.245954 
L 393.975 336.436805 
L 400.95 337.571939 
L 407.925 338.654266 
L 414.9 339.688361 
L 421.875 340.676717 
L 428.85 341.621831 
L 435.825 342.527443 
L 442.8 343.395717 
L 449.775 344.228398 
L 456.75 345.027732 
L 463.725 345.796504 
L 470.7 346.535755 
L 477.675 347.247064 
L 484.65 347.932802 
L 491.625 348.592884 
L 498.6 349.230098 
L 505.575 349.844941 
L 512.55 350.43862 
L 519.525 351.01284 
L 526.5 351.567226 
L 533.475 352.104107 
L 540.45 352.623691 
L 547.425 353.126767 
L 554.4 353.614126 
L 561.375 354.086475 
L 568.35 354.545144 
L 575.325 354.98951 
L 582.3 355.421401 
L 589.275 355.840777 
L 596.25 356.248178 
L 603.225 356.644103 
L 610.2 357.029009 
L 617.175 357.403395 
L 624.15 357.767636 
L 631.125 358.122189 
L 638.1 358.467926 
L 645.075 358.804142 
L 652.05 359.132291 
L 659.025 359.452125 
L 666 359.763434 
L 672.975 360.067592 
L 679.95 360.364307 
L 686.925 360.65387 
L 693.9 360.936572 
L 700.875 361.21258 
L 707.85 361.482185 
L 714.825 361.745594 
L 721.8 362.003474 
L 728.775 362.255116 
L 735.75 362.501145 
L 742.725 362.74181 
L 749.7 362.977651 
L 756.675 363.207963 
L 763.65 363.433826 
L 770.625 363.654532 
L 777.6 363.871039 
" clip-path="url(#p1ce7e568eb)" style="fill: none; stroke: #d62728; stroke-width: 1.5; stroke-linecap: square"/>
   </g>
   <g id="line2d_82">
    <path d="M 147.550625 -1 
L 149.85 22.617576 
L 156.825 73.859936 
L 163.8 112.331831 
L 170.775 142.291053 
L 177.75 166.282297 
L 184.725 185.93051 
L 191.7 202.320515 
L 198.675 216.198256 
L 205.65 228.10261 
L 212.625 238.427339 
L 219.6 247.469326 
L 226.575 255.450191 
L 233.55 262.550808 
L 240.525 268.90839 
L 247.5 274.633956 
L 254.475 279.816487 
L 261.45 284.52958 
L 268.425 288.836437 
L 275.4 292.786121 
L 282.375 296.42146 
L 289.35 299.778629 
L 296.325 302.888398 
L 303.3 305.777792 
L 310.275 308.469265 
L 317.25 310.981529 
L 324.225 313.334125 
L 331.2 315.538281 
L 338.175 317.61146 
L 345.15 319.562809 
L 352.125 321.403556 
L 359.1 323.142016 
L 366.075 324.787752 
L 373.05 326.347002 
L 380.025 327.826834 
L 387 329.23307 
L 393.975 330.571946 
L 400.95 331.846789 
L 407.925 333.062172 
L 414.9 334.223501 
L 421.875 335.332856 
L 428.85 336.394393 
L 435.825 337.41144 
L 442.8 338.386075 
L 449.775 339.320794 
L 456.75 340.219337 
L 463.725 341.081707 
L 470.7 341.911228 
L 477.675 342.709979 
L 484.65 343.47975 
L 491.625 344.220789 
L 498.6 344.936089 
L 505.575 345.626276 
L 512.55 346.292637 
L 519.525 346.936462 
L 526.5 347.559496 
L 533.475 348.162074 
L 540.45 348.744568 
L 547.425 349.309224 
L 554.4 349.856209 
L 561.375 350.386396 
L 568.35 350.901115 
L 575.325 351.399867 
L 582.3 351.884565 
L 589.275 352.354585 
L 596.25 352.811799 
L 603.225 353.256123 
L 610.2 353.688097 
L 617.175 354.108222 
L 624.15 354.516995 
L 631.125 354.914874 
L 638.1 355.302815 
L 645.075 355.680195 
L 652.05 356.048344 
L 659.025 356.406722 
L 666 356.756618 
L 672.975 357.097366 
L 679.95 357.430339 
L 686.925 357.755245 
L 693.9 358.072417 
L 700.875 358.382147 
L 707.85 358.684683 
L 714.825 358.980233 
L 721.8 359.26909 
L 728.775 359.551418 
L 735.75 359.827509 
L 742.725 360.097987 
L 749.7 360.362103 
L 756.675 360.620564 
L 763.65 360.873953 
L 770.625 361.121603 
L 777.6 361.364472 
" clip-path="url(#p1ce7e568eb)" style="fill: none; stroke: #9467bd; stroke-width: 1.5; stroke-linecap: square"/>
   </g>
   <g id="line2d_83">
    <path d="M 108.653906 62.827455 
L 109.307812 157.977621 
L 109.961719 200.306069 
L 110.615625 225.639889 
L 111.269531 242.996088 
L 111.923438 255.856911 
L 112.577344 265.889806 
L 113.885156 280.754455 
L 115.192969 291.428318 
L 116.500781 299.587787 
L 117.808594 306.097489 
L 119.116406 311.454783 
L 120.424219 315.968861 
L 121.732031 319.843465 
L 123.039844 323.219091 
L 125.001563 327.559251 
L 126.963281 331.232993 
L 128.925 334.397527 
L 130.886719 337.162106 
L 132.848437 339.605382 
L 135.464063 342.461925 
L 138.079688 344.950619 
L 140.695312 347.144136 
L 143.964844 349.551483 
L 147.234375 351.658075 
L 150.503906 353.520485 
L 154.427344 355.492147 
L 158.350781 357.22813 
L 162.928125 359.010301 
L 168.159375 360.785996 
L 173.390625 362.335449 
L 179.275781 363.858948 
L 185.814844 365.32997 
L 193.007812 366.730181 
L 201.508594 368.14942 
L 210.663281 369.451142 
L 221.125781 370.712577 
L 232.896094 371.906542 
L 246.628125 373.067505 
L 262.321875 374.161892 
L 280.63125 375.204473 
L 301.55625 376.168326 
L 326.404688 377.084315 
L 355.830469 377.940521 
L 391.141406 378.740141 
L 434.299219 379.487938 
L 487.919531 380.184567 
L 555.271875 380.826058 
L 640.933594 381.409918 
L 753.405469 381.942746 
L 777.6 382.034103 
L 777.6 382.034103 
" clip-path="url(#p1ce7e568eb)" style="fill: none; stroke-dasharray: 5.55,2.4; stroke-dashoffset: 0; stroke: #000000; stroke-opacity: 0.75; stroke-width: 1.5"/>
   </g>
   <g id="patch_3">
    <path d="M 108 384.48 
L 108 51.84 
" style="fill: none; stroke: #000000; stroke-width: 0.8; stroke-linejoin: miter; stroke-linecap: square"/>
   </g>
   <g id="patch_4">
    <path d="M 777.6 384.48 
L 777.6 51.84 
" style="fill: none; stroke: #000000; stroke-width: 0.8; stroke-linejoin: miter; stroke-linecap: square"/>
   </g>
   <g id="patch_5">
    <path d="M 108 384.48 
L 777.6 384.48 
" style="fill: none; stroke: #000000; stroke-width: 0.8; stroke-linejoin: miter; stroke-linecap: square"/>
   </g>
   <g id="patch_6">
    <path d="M 108 51.84 
L 777.6 51.84 
" style="fill: none; stroke: #000000; stroke-width: 0.8; stroke-linejoin: miter; stroke-linecap: square"/>
   </g>
   <g id="legend_1">
    <g id="patch_7">
     <path d="M 611.2 153.04 
L 770.6 153.04 
Q 772.6 153.04 772.6 151.04 
L 772.6 58.84 
Q 772.6 56.84 770.6 56.84 
L 611.2 56.84 
Q 609.2 56.84 609.2 58.84 
L 609.2 151.04 
Q 609.2 153.04 611.2 153.04 
z
" style="fill: #ffffff; opacity: 0.8; stroke: #cccccc; stroke-linejoin: miter"/>
    </g>
    <g id="line2d_84">
     <path d="M 613.2 65.760312 
L 623.2 65.760312 
L 633.2 65.760312 
" style="fill: none; stroke: #1f77b4; stroke-width: 1.5; stroke-linecap: square"/>
    </g>
    <g id="text_37">
     <!-- $1 - T(h, a)/T(h, \infty) = 10^{-8}$ -->
     <g transform="translate(641.2 69.260312)scale(0.1 -0.1)">
      <defs>
       <path id="DejaVuSans-2212" d="M 678 2272 
L 4684 2272 
L 4684 1741 
L 678 1741 
L 678 2272 
z
" transform="scale(0.015625)"/>
       <path id="DejaVuSans-Oblique-54" d="M 378 4666 
L 4325 4666 
L 4225 4134 
L 2559 4134 
L 1759 0 
L 1125 0 
L 1925 4134 
L 275 4134 
L 378 4666 
z
" transform="scale(0.015625)"/>
       <path id="DejaVuSans-28" d="M 1984 4856 
Q 1566 4138 1362 3434 
Q 1159 2731 1159 2009 
Q 1159 1288 1364 580 
Q 1569 -128 1984 -844 
L 1484 -844 
Q 1016 -109 783 600 
Q 550 1309 550 2009 
Q 550 2706 781 3412 
Q 1013 4119 1484 4856 
L 1984 4856 
z
" transform="scale(0.015625)"/>
       <path id="DejaVuSans-Oblique-68" d="M 3566 2113 
L 3156 0 
L 2578 0 
L 2988 2091 
Q 3016 2238 3031 2350 
Q 3047 2463 3047 2528 
Q 3047 2791 2881 2937 
Q 2716 3084 2419 3084 
Q 1956 3084 1617 2771 
Q 1278 2459 1178 1941 
L 800 0 
L 225 0 
L 1172 4863 
L 1747 4863 
L 1375 2950 
Q 1594 3244 1934 3414 
Q 2275 3584 2650 3584 
Q 3113 3584 3367 3334 
Q 3622 3084 3622 2631 
Q 3622 2519 3608 2391 
Q 3594 2263 3566 2113 
z
" transform="scale(0.015625)"/>
       <path id="DejaVuSans-2c" d="M 750 794 
L 1409 794 
L 1409 256 
L 897 -744 
L 494 -744 
L 750 256 
L 750 794 
z
" transform="scale(0.015625)"/>
       <path id="DejaVuSans-Oblique-61" d="M 3438 1997 
L 3047 0 
L 2472 0 
L 2578 531 
Q 2325 219 2001 64 
Q 1678 -91 1281 -91 
Q 834 -91 548 182 
Q 263 456 263 884 
Q 263 1497 752 1853 
Q 1241 2209 2100 2209 
L 2900 2209 
L 2931 2363 
Q 2938 2388 2941 2417 
Q 2944 2447 2944 2509 
Q 2944 2788 2717 2942 
Q 2491 3097 2081 3097 
Q 1800 3097 1504 3025 
Q 1209 2953 897 2809 
L 997 3341 
Q 1322 3463 1633 3523 
Q 1944 3584 2234 3584 
Q 2853 3584 3176 3315 
Q 3500 3047 3500 2534 
Q 3500 2431 3484 2292 
Q 3469 2153 3438 1997 
z
M 2816 1759 
L 2241 1759 
Q 1534 1759 1195 1570 
Q 856 1381 856 984 
Q 856 709 1029 553 
Q 1203 397 1509 397 
Q 1978 397 2328 733 
Q 2678 1069 2791 1631 
L 2816 1759 
z
" transform="scale(0.015625)"/>
       <path id="DejaVuSans-29" d="M 513 4856 
L 1013 4856 
Q 1481 4119 1714 3412 
Q 1947 2706 1947 2009 
Q 1947 1309 1714 600 
Q 1481 -109 1013 -844 
L 513 -844 
Q 928 -128 1133 580 
Q 1338 1288 1338 2009 
Q 1338 2731 1133 3434 
Q 928 4138 513 4856 
z
" transform="scale(0.015625)"/>
       <path id="DejaVuSans-2f" d="M 1625 4666 
L 2156 4666 
L 531 -594 
L 0 -594 
L 1625 4666 
z
" transform="scale(0.015625)"/>
       <path id="DejaVuSans-221e" d="M 2916 1091 
Q 2819 1203 2666 1466 
Q 2456 1091 2272 925 
Q 2041 725 1681 725 
Q 1259 725 981 1041 
Q 688 1372 688 1919 
Q 688 2444 981 2800 
Q 1244 3116 1688 3116 
Q 1916 3116 2084 3022 
Q 2281 2919 2416 2741 
Q 2541 2581 2666 2366 
Q 2875 2741 3059 2906 
Q 3291 3106 3650 3106 
Q 4072 3106 4350 2791 
Q 4644 2459 4644 1913 
Q 4644 1388 4350 1031 
Q 4088 716 3644 716 
Q 3416 716 3247 809 
Q 3078 894 2916 1091 
z
M 1647 1134 
Q 2163 1134 2472 1884 
Q 2075 2703 1647 2703 
Q 1334 2703 1175 2478 
Q 1003 2238 1003 1919 
Q 1003 1569 1175 1353 
Q 1350 1134 1647 1134 
z
M 3684 2697 
Q 3219 2697 2859 1947 
Q 3253 1128 3684 1128 
Q 3997 1128 4156 1353 
Q 4328 1594 4328 1913 
Q 4328 2263 4156 2478 
Q 3981 2697 3684 2697 
z
" transform="scale(0.015625)"/>
       <path id="DejaVuSans-3d" d="M 678 2906 
L 4684 2906 
L 4684 2381 
L 678 2381 
L 678 2906 
z
M 678 1631 
L 4684 1631 
L 4684 1100 
L 678 1100 
L 678 1631 
z
" transform="scale(0.015625)"/>
      </defs>
      <use xlink:href="#DejaVuSans-31" transform="translate(0 0.765625)"/>
      <use xlink:href="#DejaVuSans-2212" transform="translate(83.105469 0.765625)"/>
      <use xlink:href="#DejaVuSans-Oblique-54" transform="translate(186.376953 0.765625)"/>
      <use xlink:href="#DejaVuSans-28" transform="translate(247.460938 0.765625)"/>
      <use xlink:href="#DejaVuSans-Oblique-68" transform="translate(286.474609 0.765625)"/>
      <use xlink:href="#DejaVuSans-2c" transform="translate(349.853516 0.765625)"/>
      <use xlink:href="#DejaVuSans-Oblique-61" transform="translate(401.123047 0.765625)"/>
      <use xlink:href="#DejaVuSans-29" transform="translate(462.402344 0.765625)"/>
      <use xlink:href="#DejaVuSans-2f" transform="translate(501.416016 0.765625)"/>
      <use xlink:href="#DejaVuSans-Oblique-54" transform="translate(535.107422 0.765625)"/>
      <use xlink:href="#DejaVuSans-28" transform="translate(596.191406 0.765625)"/>
      <use xlink:href="#DejaVuSans-Oblique-68" transform="translate(635.205078 0.765625)"/>
      <use xlink:href="#DejaVuSans-2c" transform="translate(698.583984 0.765625)"/>
      <use xlink:href="#DejaVuSans-221e" transform="translate(749.853516 0.765625)"/>
      <use xlink:href="#DejaVuSans-29" transform="translate(833.154297 0.765625)"/>
      <use xlink:href="#DejaVuSans-3d" transform="translate(891.650391 0.765625)"/>
      <use xlink:href="#DejaVuSans-31" transform="translate(994.921875 0.765625)"/>
      <use xlink:href="#DejaVuSans-30" transform="translate(1058.544922 0.765625)"/>
      <use xlink:href="#DejaVuSans-2212" transform="translate(1123.125 39.046875)scale(0.7)"/>
      <use xlink:href="#DejaVuSans-38" transform="translate(1181.777344 39.046875)scale(0.7)"/>
     </g>
    </g>
    <g id="line2d_85">
     <path d="M 613.2 81.260312 
L 623.2 81.260312 
L 633.2 81.260312 
" style="fill: none; stroke: #ff7f0e; stroke-width: 1.5; stroke-linecap: square"/>
    </g>
    <g id="text_38">
     <!-- $1 - T(h, a)/T(h, \infty) = 10^{-16}$ -->
     <g transform="translate(641.2 84.760312)scale(0.1 -0.1)">
      <use xlink:href="#DejaVuSans-31" transform="translate(0 0.765625)"/>
      <use xlink:href="#DejaVuSans-2212" transform="translate(83.105469 0.765625)"/>
      <use xlink:href="#DejaVuSans-Oblique-54" transform="translate(186.376953 0.765625)"/>
      <use xlink:href="#DejaVuSans-28" transform="translate(247.460938 0.765625)"/>
      <use xlink:href="#DejaVuSans-Oblique-68" transform="translate(286.474609 0.765625)"/>
      <use xlink:href="#DejaVuSans-2c" transform="translate(349.853516 0.765625)"/>
      <use xlink:href="#DejaVuSans-Oblique-61" transform="translate(401.123047 0.765625)"/>
      <use xlink:href="#DejaVuSans-29" transform="translate(462.402344 0.765625)"/>
      <use xlink:href="#DejaVuSans-2f" transform="translate(501.416016 0.765625)"/>
      <use xlink:href="#DejaVuSans-Oblique-54" transform="translate(535.107422 0.765625)"/>
      <use xlink:href="#DejaVuSans-28" transform="translate(596.191406 0.765625)"/>
      <use xlink:href="#DejaVuSans-Oblique-68" transform="translate(635.205078 0.765625)"/>
      <use xlink:href="#DejaVuSans-2c" transform="translate(698.583984 0.765625)"/>
      <use xlink:href="#DejaVuSans-221e" transform="translate(749.853516 0.765625)"/>
      <use xlink:href="#DejaVuSans-29" transform="translate(833.154297 0.765625)"/>
      <use xlink:href="#DejaVuSans-3d" transform="translate(891.650391 0.765625)"/>
      <use xlink:href="#DejaVuSans-31" transform="translate(994.921875 0.765625)"/>
      <use xlink:href="#DejaVuSans-30" transform="translate(1058.544922 0.765625)"/>
      <use xlink:href="#DejaVuSans-2212" transform="translate(1123.125 39.046875)scale(0.7)"/>
      <use xlink:href="#DejaVuSans-31" transform="translate(1181.777344 39.046875)scale(0.7)"/>
      <use xlink:href="#DejaVuSans-36" transform="translate(1226.313477 39.046875)scale(0.7)"/>
     </g>
    </g>
    <g id="line2d_86">
     <path d="M 613.2 96.760312 
L 623.2 96.760312 
L 633.2 96.760312 
" style="fill: none; stroke: #2ca02c; stroke-width: 1.5; stroke-linecap: square"/>
    </g>
    <g id="text_39">
     <!-- $1 - T(h, a)/T(h, \infty) = 10^{-24}$ -->
     <g transform="translate(641.2 100.260312)scale(0.1 -0.1)">
      <use xlink:href="#DejaVuSans-31" transform="translate(0 0.765625)"/>
      <use xlink:href="#DejaVuSans-2212" transform="translate(83.105469 0.765625)"/>
      <use xlink:href="#DejaVuSans-Oblique-54" transform="translate(186.376953 0.765625)"/>
      <use xlink:href="#DejaVuSans-28" transform="translate(247.460938 0.765625)"/>
      <use xlink:href="#DejaVuSans-Oblique-68" transform="translate(286.474609 0.765625)"/>
      <use xlink:href="#DejaVuSans-2c" transform="translate(349.853516 0.765625)"/>
      <use xlink:href="#DejaVuSans-Oblique-61" transform="translate(401.123047 0.765625)"/>
      <use xlink:href="#DejaVuSans-29" transform="translate(462.402344 0.765625)"/>
      <use xlink:href="#DejaVuSans-2f" transform="translate(501.416016 0.765625)"/>
      <use xlink:href="#DejaVuSans-Oblique-54" transform="translate(535.107422 0.765625)"/>
      <use xlink:href="#DejaVuSans-28" transform="translate(596.191406 0.765625)"/>
      <use xlink:href="#DejaVuSans-Oblique-68" transform="translate(635.205078 0.765625)"/>
      <use xlink:href="#DejaVuSans-2c" transform="translate(698.583984 0.765625)"/>
      <use xlink:href="#DejaVuSans-221e" transform="translate(749.853516 0.765625)"/>
      <use xlink:href="#DejaVuSans-29" transform="translate(833.154297 0.765625)"/>
      <use xlink:href="#DejaVuSans-3d" transform="translate(891.650391 0.765625)"/>
      <use xlink:href="#DejaVuSans-31" transform="translate(994.921875 0.765625)"/>
      <use xlink:href="#DejaVuSans-30" transform="translate(1058.544922 0.765625)"/>
      <use xlink:href="#DejaVuSans-2212" transform="translate(1123.125 39.046875)scale(0.7)"/>
      <use xlink:href="#DejaVuSans-32" transform="translate(1181.777344 39.046875)scale(0.7)"/>
      <use xlink:href="#DejaVuSans-34" transform="translate(1226.313477 39.046875)scale(0.7)"/>
     </g>
    </g>
    <g id="line2d_87">
     <path d="M 613.2 112.260312 
L 623.2 112.260312 
L 633.2 112.260312 
" style="fill: none; stroke: #d62728; stroke-width: 1.5; stroke-linecap: square"/>
    </g>
    <g id="text_40">
     <!-- $1 - T(h, a)/T(h, \infty) = 10^{-32}$ -->
     <g transform="translate(641.2 115.760312)scale(0.1 -0.1)">
      <use xlink:href="#DejaVuSans-31" transform="translate(0 0.765625)"/>
      <use xlink:href="#DejaVuSans-2212" transform="translate(83.105469 0.765625)"/>
      <use xlink:href="#DejaVuSans-Oblique-54" transform="translate(186.376953 0.765625)"/>
      <use xlink:href="#DejaVuSans-28" transform="translate(247.460938 0.765625)"/>
      <use xlink:href="#DejaVuSans-Oblique-68" transform="translate(286.474609 0.765625)"/>
      <use xlink:href="#DejaVuSans-2c" transform="translate(349.853516 0.765625)"/>
      <use xlink:href="#DejaVuSans-Oblique-61" transform="translate(401.123047 0.765625)"/>
      <use xlink:href="#DejaVuSans-29" transform="translate(462.402344 0.765625)"/>
      <use xlink:href="#DejaVuSans-2f" transform="translate(501.416016 0.765625)"/>
      <use xlink:href="#DejaVuSans-Oblique-54" transform="translate(535.107422 0.765625)"/>
      <use xlink:href="#DejaVuSans-28" transform="translate(596.191406 0.765625)"/>
      <use xlink:href="#DejaVuSans-Oblique-68" transform="translate(635.205078 0.765625)"/>
      <use xlink:href="#DejaVuSans-2c" transform="translate(698.583984 0.765625)"/>
      <use xlink:href="#DejaVuSans-221e" transform="translate(749.853516 0.765625)"/>
      <use xlink:href="#DejaVuSans-29" transform="translate(833.154297 0.765625)"/>
      <use xlink:href="#DejaVuSans-3d" transform="translate(891.650391 0.765625)"/>
      <use xlink:href="#DejaVuSans-31" transform="translate(994.921875 0.765625)"/>
      <use xlink:href="#DejaVuSans-30" transform="translate(1058.544922 0.765625)"/>
      <use xlink:href="#DejaVuSans-2212" transform="translate(1123.125 39.046875)scale(0.7)"/>
      <use xlink:href="#DejaVuSans-33" transform="translate(1181.777344 39.046875)scale(0.7)"/>
      <use xlink:href="#DejaVuSans-32" transform="translate(1226.313477 39.046875)scale(0.7)"/>
     </g>
    </g>
    <g id="line2d_88">
     <path d="M 613.2 127.760312 
L 623.2 127.760312 
L 633.2 127.760312 
" style="fill: none; stroke: #9467bd; stroke-width: 1.5; stroke-linecap: square"/>
    </g>
    <g id="text_41">
     <!-- $1 - T(h, a)/T(h, \infty) = 10^{-40}$ -->
     <g transform="translate(641.2 131.260312)scale(0.1 -0.1)">
      <use xlink:href="#DejaVuSans-31" transform="translate(0 0.765625)"/>
      <use xlink:href="#DejaVuSans-2212" transform="translate(83.105469 0.765625)"/>
      <use xlink:href="#DejaVuSans-Oblique-54" transform="translate(186.376953 0.765625)"/>
      <use xlink:href="#DejaVuSans-28" transform="translate(247.460938 0.765625)"/>
      <use xlink:href="#DejaVuSans-Oblique-68" transform="translate(286.474609 0.765625)"/>
      <use xlink:href="#DejaVuSans-2c" transform="translate(349.853516 0.765625)"/>
      <use xlink:href="#DejaVuSans-Oblique-61" transform="translate(401.123047 0.765625)"/>
      <use xlink:href="#DejaVuSans-29" transform="translate(462.402344 0.765625)"/>
      <use xlink:href="#DejaVuSans-2f" transform="translate(501.416016 0.765625)"/>
      <use xlink:href="#DejaVuSans-Oblique-54" transform="translate(535.107422 0.765625)"/>
      <use xlink:href="#DejaVuSans-28" transform="translate(596.191406 0.765625)"/>
      <use xlink:href="#DejaVuSans-Oblique-68" transform="translate(635.205078 0.765625)"/>
      <use xlink:href="#DejaVuSans-2c" transform="translate(698.583984 0.765625)"/>
      <use xlink:href="#DejaVuSans-221e" transform="translate(749.853516 0.765625)"/>
      <use xlink:href="#DejaVuSans-29" transform="translate(833.154297 0.765625)"/>
      <use xlink:href="#DejaVuSans-3d" transform="translate(891.650391 0.765625)"/>
      <use xlink:href="#DejaVuSans-31" transform="translate(994.921875 0.765625)"/>
      <use xlink:href="#DejaVuSans-30" transform="translate(1058.544922 0.765625)"/>
      <use xlink:href="#DejaVuSans-2212" transform="translate(1123.125 39.046875)scale(0.7)"/>
      <use xlink:href="#DejaVuSans-34" transform="translate(1181.777344 39.046875)scale(0.7)"/>
      <use xlink:href="#DejaVuSans-30" transform="translate(1226.313477 39.046875)scale(0.7)"/>
     </g>
    </g>
    <g id="line2d_89">
     <path d="M 613.2 142.44 
L 623.2 142.44 
L 633.2 142.44 
" style="fill: none; stroke-dasharray: 5.55,2.4; stroke-dashoffset: 0; stroke: #000000; stroke-opacity: 0.75; stroke-width: 1.5"/>
    </g>
    <g id="text_42">
     <!-- $x_{peak}(h)$ -->
     <g transform="translate(641.2 145.94)scale(0.1 -0.1)">
      <defs>
       <path id="DejaVuSans-Oblique-78" d="M 3841 3500 
L 2234 1784 
L 3219 0 
L 2559 0 
L 1819 1388 
L 531 0 
L -166 0 
L 1556 1844 
L 641 3500 
L 1300 3500 
L 1972 2234 
L 3144 3500 
L 3841 3500 
z
" transform="scale(0.015625)"/>
       <path id="DejaVuSans-Oblique-70" d="M 3175 2156 
Q 3175 2616 2975 2859 
Q 2775 3103 2400 3103 
Q 2144 3103 1911 2972 
Q 1678 2841 1497 2591 
Q 1319 2344 1212 1994 
Q 1106 1644 1106 1300 
Q 1106 863 1306 627 
Q 1506 391 1875 391 
Q 2147 391 2380 519 
Q 2613 647 2778 891 
Q 2956 1147 3065 1494 
Q 3175 1841 3175 2156 
z
M 1394 2969 
Q 1625 3272 1939 3428 
Q 2253 3584 2638 3584 
Q 3175 3584 3472 3232 
Q 3769 2881 3769 2247 
Q 3769 1728 3584 1258 
Q 3400 788 3053 416 
Q 2822 169 2531 39 
Q 2241 -91 1919 -91 
Q 1547 -91 1294 64 
Q 1041 219 916 525 
L 556 -1331 
L -19 -1331 
L 922 3500 
L 1497 3500 
L 1394 2969 
z
" transform="scale(0.015625)"/>
       <path id="DejaVuSans-Oblique-65" d="M 3078 2063 
Q 3088 2113 3092 2166 
Q 3097 2219 3097 2272 
Q 3097 2653 2873 2875 
Q 2650 3097 2266 3097 
Q 1838 3097 1509 2826 
Q 1181 2556 1013 2059 
L 3078 2063 
z
M 3578 1613 
L 903 1613 
Q 884 1494 878 1425 
Q 872 1356 872 1306 
Q 872 872 1139 634 
Q 1406 397 1894 397 
Q 2269 397 2603 481 
Q 2938 566 3225 728 
L 3116 159 
Q 2806 34 2476 -28 
Q 2147 -91 1806 -91 
Q 1078 -91 686 257 
Q 294 606 294 1247 
Q 294 1794 489 2264 
Q 684 2734 1063 3103 
Q 1306 3334 1642 3459 
Q 1978 3584 2356 3584 
Q 2950 3584 3301 3228 
Q 3653 2872 3653 2272 
Q 3653 2128 3634 1964 
Q 3616 1800 3578 1613 
z
" transform="scale(0.015625)"/>
       <path id="DejaVuSans-Oblique-6b" d="M 1172 4863 
L 1747 4863 
L 1197 2028 
L 3169 3500 
L 3916 3500 
L 1716 1825 
L 3322 0 
L 2625 0 
L 1131 1709 
L 800 0 
L 225 0 
L 1172 4863 
z
" transform="scale(0.015625)"/>
      </defs>
      <use xlink:href="#DejaVuSans-Oblique-78" transform="translate(0 0.015625)"/>
      <use xlink:href="#DejaVuSans-Oblique-70" transform="translate(59.179688 -16.390625)scale(0.7)"/>
      <use xlink:href="#DejaVuSans-Oblique-65" transform="translate(103.613281 -16.390625)scale(0.7)"/>
      <use xlink:href="#DejaVuSans-Oblique-61" transform="translate(146.679688 -16.390625)scale(0.7)"/>
      <use xlink:href="#DejaVuSans-Oblique-6b" transform="translate(189.575195 -16.390625)scale(0.7)"/>
      <use xlink:href="#DejaVuSans-28" transform="translate(232.84668 0.015625)"/>
      <use xlink:href="#DejaVuSans-Oblique-68" transform="translate(271.860352 0.015625)"/>
      <use xlink:href="#DejaVuSans-29" transform="translate(335.239258 0.015625)"/>
     </g>
    </g>
   </g>
  </g>
 </g>
 <defs>
  <clipPath id="p1ce7e568eb">
   <rect x="108" y="51.84" width="669.6" height="332.64"/>
  </clipPath>
 </defs>
</svg>
